<svg xmlns="http://www.w3.org/2000/svg" viewBox="0 0 1600 1600"><defs><style>.cls-1{fill:#3e1955;}.cls-2{fill:#fff;}</style></defs><g id="Layer_2" data-name="Layer 2"><g id="Layer_2-2" data-name="Layer 2"><circle class="cls-1" cx="800" cy="800" r="800"/><path class="cls-2" d="M195.37,630c-12.84,10.72-16.05,14.76-22.79,18.46l.32-40.11A11.11,11.11,0,0,1,184,597.23c.3,0,.59,0,.88,0a11.14,11.14,0,0,1,10.26,11.06Zm471.49,129.8a10.28,10.28,0,0,0-.15-2l0-.61s-.12-2.18-.16-2.92a18.13,18.13,0,0,0-.3-2.15l-.05-.24.12-1.1a27.34,27.34,0,0,1,0-2.75v-.29a9.32,9.32,0,0,0-.06-1c0-.21,0-.4-.05-.57a8.17,8.17,0,0,1,.05-1.48l.06-.58a7.93,7.93,0,0,1,0-1.09c0-.18,0-.36,0-.54s0-.41,0-.64-.06-.67-.07-1c0-.5,0-1.08-.08-1.72v-.36a2.57,2.57,0,0,1-.1-.73l-.32-2.51,0-.19a.82.82,0,0,0,0-.32l-.13-.34.1-.85,0-1.42,0-.46a12.64,12.64,0,0,1-.18-2.79c0-1,.12-1.89.22-2.72a2.35,2.35,0,0,0-.19-1.09,6.73,6.73,0,0,0-.81.15l0,.33,0,.11a14.77,14.77,0,0,0-.41,2l-.19,1.6a15.4,15.4,0,0,1-.34,2c-.14.56-.32,1.18-.54,1.87l-.22.45,0,.23a3.72,3.72,0,0,1-.32,1.17.61.61,0,0,0,0,.21l0,.29-.14.26a6.16,6.16,0,0,0-.6,1.71A18.67,18.67,0,0,1,661,740l-.15.42a16.93,16.93,0,0,0-.53,2.24,15.84,15.84,0,0,1-.83,2.77,2.2,2.2,0,0,1-.27.68l-.26,2.12-.27,0a16.64,16.64,0,0,1-.59,1.84l-.22.59,0,.4-.29.77-.21,1.79a1.89,1.89,0,0,1-.3.86l-.24,2-.32,0a15.66,15.66,0,0,0-.61,1.92,6.69,6.69,0,0,1-.9,2.12,2.09,2.09,0,0,0,.07,1.06,2.77,2.77,0,0,0,.61,1,3,3,0,0,0,.27.25c.89,0,1.52,0,1.89,0L659,763a5.54,5.54,0,0,1,1.89.52,9,9,0,0,0,1.85.32l.85.1.86-.07h.34l.15,0a1.75,1.75,0,0,0,2-1.12.68.68,0,0,0,.09-.8A4.71,4.71,0,0,1,666.86,759.82ZM474.24,724.58l.13-.33a3.38,3.38,0,0,0,0-.78l-.2-2.39c-.09-1-.13-1.9-.14-2.74a5.71,5.71,0,0,0-.42-2l-.07-.2-.13-1.42a9.5,9.5,0,0,1,0-2.23,15.48,15.48,0,0,1-.05-2.3l-.18-.44-.13-1.54a1.48,1.48,0,0,0-.08-.41l-.18-.31-.33-3.84a11.28,11.28,0,0,0-3.42-5.75l-.09-.09-.08-.1a3,3,0,0,0-1.53-1.05,9.74,9.74,0,0,0-1.56-.37l-.21,0-.66,0a3.65,3.65,0,0,1-1.11-.22l-.11.14-4.29.45-.43,0a6.51,6.51,0,0,0-1.17,0l-1.74.18a1.07,1.07,0,0,0-1.08.8,5.37,5.37,0,0,0-.34,1.65l.28,3.87c.19.79.34,1.61.47,2.47a9.17,9.17,0,0,1-.06,3l.54,7.38a7.3,7.3,0,0,1,.26,3.28l.34,2,0,.22a16.17,16.17,0,0,0-.14,3,10,10,0,0,0,.32,2l0,.15.43,5.54a8.7,8.7,0,0,1,0,2l.36,4.57a2,2,0,0,0,.69,1.38,1.56,1.56,0,0,0,1,.46h.29l1.29-.13a5.7,5.7,0,0,1,1,0,4.52,4.52,0,0,1,.53.06l2-.19,2.69-.47a8.81,8.81,0,0,0,4.09-1.6,8.58,8.58,0,0,0,3.05-4.49,15.3,15.3,0,0,0,.66-5.87,16.73,16.73,0,0,1-.45-2.92ZM374.11,769.3a12,12,0,0,0-.51-2.08l-.28-1.26c-.18-.84-.36-1.64-.53-2.4a15.83,15.83,0,0,0-.69-2.17l-.09-.23L372,760c-.28-1.15-.42-2.11-.52-2.76l-.05-.36a7.52,7.52,0,0,0-.23-1l-.15-.57a8.33,8.33,0,0,1-.2-1.5l0-.62a8.33,8.33,0,0,1-.2-1.09c0-.19-.05-.37-.08-.56s-.11-.44-.18-.68-.16-.58-.22-.86c-.1-.48-.24-1-.41-1.62l-.05-.23v-.11a2.28,2.28,0,0,1-.23-.68l-.79-2.33v-.19a.65.65,0,0,0-.05-.26l-.19-.32-.06-.86-.26-1.24,0-.18,0-.38a11.78,11.78,0,0,1-.66-2.63c-.12-.94-.21-1.83-.26-2.65a1.75,1.75,0,0,0-.28-.84,4.45,4.45,0,0,1-.84.3s0,0,0,0l0,.48v.12a14.67,14.67,0,0,0-.08,2l.09,1.57a16.13,16.13,0,0,1,0,2c0,.57-.11,1.2-.21,1.91l-.14.48v.22a5.09,5.09,0,0,1-.12,1.4l0,.3-.09.28a6.19,6.19,0,0,0-.29,1.77,18.13,18.13,0,0,1-.32,2.55l-.06.4a18.69,18.69,0,0,0-.17,2.45,14.66,14.66,0,0,1-.23,1.9c-.07.4-.13.79-.17,1.15a2.53,2.53,0,0,1-.16.75l.09,2.19-.26,0a17.63,17.63,0,0,1-.32,2.34l-.12.69v.44l-.17.92.08,2a2.27,2.27,0,0,1-.17.92l.07,2-.27.05a25,25,0,0,0-.37,2.58,8.24,8.24,0,0,1-.55,2.49s-.15.43.23,1.35a2.49,2.49,0,0,0,.74.84l.23.13a17.41,17.41,0,0,1,2.16-.64l.94-.19a6.67,6.67,0,0,1,1.64-.12l.44.06a12,12,0,0,0,1.92-.26l.89-.17,1-.43.15,0a2.73,2.73,0,0,0,2.23-2.05,1.45,1.45,0,0,0,0-1.14A4.93,4.93,0,0,1,374.11,769.3ZM1469,883.45c-43.34,12-372.67,101.93-565.18,111.19-26.57,1.28-53.39,3.55-79.32,1.65C747,989.92,722,985.34,698.73,976.36c-.16-.06-16.81-6.75-17-6.76-7.34-2.5-17.58-5.11-17.61-15.7,0-11.66,9.35-16.91,19.85-16.21L729.9,940c15.45.32,31.24-6.46,32-16.38.7-9.45-6.09-19.76-31.52-28.38-44.27-17.58-85.93-20.86-122-23.51-18.68-1.37-39.36-1.27-67.05.35-125.29,7.28-284.34,55.6-346.9,76l-1.08.35.32,172.61a11.17,11.17,0,0,1-5.84,9.84,11.06,11.06,0,0,1-5.82,1.29l-.29,0a11.16,11.16,0,0,1-10.28-11.06l-.32-169.21.18-1.18-.55-287.58c105.3-61.83,365-68,416.13-68.56,14.54-.17,31.42.44,50.18,1.82,67.7,5,149.66,19.45,168.65,29.78,15.18,8.26,10.94,30.12,10.9,30.34l-9,71.66L788.24,844.83l-7.5,31.7,0,.16a1.6,1.6,0,0,0,.07.86l-.12.94.18.21a9.38,9.38,0,0,0,.64,3c.15.44.3.92.45,1.43a31.31,31.31,0,0,0,1.91,5.15c.31.55.64,1.17,1,1.92l.18.39.3.2a4.57,4.57,0,0,0,.49.75,11.57,11.57,0,0,0,1.92,2.28l.08.06a1.17,1.17,0,0,0,.23.21l.09.08.66.89.21.14a3.12,3.12,0,0,1,.65.56A5.82,5.82,0,0,0,791,897l3.43,2.17a15.67,15.67,0,0,0,1.43.89l2.18,1.21.32.1.12,0c1.1.36,1.69.56,2.84,1a6.89,6.89,0,0,0,1.71.48c1.06.37,1.94.59,2.48.73.36.09.54.15.73.21a6.46,6.46,0,0,0,1.18.31l3.13.52h.12c.59,0,1.16,0,1.73.08l.88.08a10.51,10.51,0,0,0,2.17-.07l.49.06a3.83,3.83,0,0,0,.84,0l.39,0a6.5,6.5,0,0,0,2.21-.2c.57,0,1.08,0,1.5-.08a11.41,11.41,0,0,0,1.66-.34,2.07,2.07,0,0,1,.59-.11l.25,0,.27,0a20.72,20.72,0,0,0,6.66-2.33l.08,0,.09-.06,1.65-1.17.61-.44,1.29-.76.71-.51.58-.41a6.15,6.15,0,0,0,1.47-1.5l.24-.35v-.08c.36-.43.72-.91,1.08-1.39a11.94,11.94,0,0,0,1.13-1.76l.23-.24a20.29,20.29,0,0,0,2.35-4.17c.66-1.5,1.23-2.94,1.69-4.3a3.13,3.13,0,0,0,.36-1l.18-.26.09-.41a1.51,1.51,0,0,1,.1-.38,4.61,4.61,0,0,0,.28-1c.07-.63.19-1.24.33-1.91s.28-1.47.4-2.24l.16-1.24a2.05,2.05,0,0,1,.21-.7l.1-.22,0-.23c.09-.74.14-1.1.24-1.78a4.16,4.16,0,0,0-2.87-4.87,8.52,8.52,0,0,1-2.76-1.44l-.15-.12-.18-.08c-.88-.4-1.47-.69-1.79-.86a13.71,13.71,0,0,0-1.36-.64,3.1,3.1,0,0,0-.8-.37l-1-.72-.22,0a2.09,2.09,0,0,0-.49-.26l-1.51-.86c-.48-.25-1-.55-1.52-.88s-1.14-.66-1.56-.88a15.57,15.57,0,0,1-1.41-.76l-.08-.05-.1,0c-.37-.15-.55-.23-.93-.36l-.12,0-.13,0-.49-.06a3.69,3.69,0,0,0-3.91,2.92l0,.12-.38,2.93-.08.07-.21.72-.2,1.45,0,.18a7.94,7.94,0,0,1-.61,3.29l0,.11,0,.12a5.54,5.54,0,0,0-.07.57c-.12.84-.27,1.67-.42,2.41a6.47,6.47,0,0,1-.76,1.85l-.19.31,0,.37a.68.68,0,0,0,0,.14,4.7,4.7,0,0,1-1.18,1.72c-1.27,1.55-3.17,2.35-5.91,2.54l-1.16-.34a4.36,4.36,0,0,1-.81-.23,2.4,2.4,0,0,0-.4-.14,5.93,5.93,0,0,1-2.5-1.34,10.15,10.15,0,0,1-1.77-2.93,12,12,0,0,1-.83-3.54,17,17,0,0,1,0-3.46l.79-5.94-.11-.32h0s0-.2.06-.61l.88-6.69c.25-1,.47-2.19.64-3.38s.27-2.16.43-3.29l.1-.76c.23-1.67.35-2.58.57-4.3a21.65,21.65,0,0,1,.5-3.83l.81-5.94a36.36,36.36,0,0,1,.68-5.16l1.14-8.56v-.14a9.23,9.23,0,0,1,.07-1.65l.08-.56c.08-.53.15-1.05.17-1.49v-.34a6.93,6.93,0,0,1,.1-1.18,16.5,16.5,0,0,0,.37-2l.58-4.29a4.56,4.56,0,0,0,0-.91l.08-.18a6.58,6.58,0,0,0,.2-.82c0-.13,0-.26.07-.38a5.56,5.56,0,0,0,.26-1.21c.1-.66.16-1.07.25-1.81a3.06,3.06,0,0,1,.14-.69l.21-.31,0-.32.07-.62a3.25,3.25,0,0,0,.3-.91l1.68-3.67a6.44,6.44,0,0,1,6.22-3.1l.58.06.19,0,.62.07a9.77,9.77,0,0,1,3.7,1.71l0,0,.16.14a3.26,3.26,0,0,1,.56.69c.19.28.37.57.59.92l.4.65.84,4.91c-.06.38-.09.63-.14,1.07l0,.13v.13a7.23,7.23,0,0,1,0,1.45l-.08.45a6.35,6.35,0,0,0-.15,1.64l0,.33a3.81,3.81,0,0,0-.24,1l-.77,5.74a3.26,3.26,0,0,0,1.06,2.95,5.15,5.15,0,0,0,2.56,1.16,4.61,4.61,0,0,0,.58.07,3.76,3.76,0,0,0,1.34-.11,1.49,1.49,0,0,1,.43-.12,10.55,10.55,0,0,0,1.16-.22l.23.07.51-.18a4.23,4.23,0,0,1,.7-.17,7.92,7.92,0,0,0,.85-.26,7.67,7.67,0,0,1,1.24-.37,15,15,0,0,1,1.74-.18,18.26,18.26,0,0,0,2-.2c1.2-.22,2.66-.51,4.33-.9.31,0,.57-.07,1-.13a2,2,0,0,0,.66-.08l1.07.14.3-.25a4.3,4.3,0,0,0,2.39-1.22A6.41,6.41,0,0,0,854,812l.15-1.22a5.17,5.17,0,0,0,0-1.42l.42-3.26a6.89,6.89,0,0,0-.08-2.08,4.09,4.09,0,0,0-.14-1.42l-.07-.35a6.54,6.54,0,0,1,0-1.81c0-.19,0-.34,0-.46a17,17,0,0,0-.1-2.18l0-.5a13.17,13.17,0,0,0-.62-3.13,2.25,2.25,0,0,0-.2-.64c-.06-.26-.17-.85-.17-.85l-.14-.53-.3-.56a4.33,4.33,0,0,0-.48-1.61l-.11-.18c-.08-.35-.2-.74-.35-1.19l-.33-1h-.21l-.54-1.45-.54-.66-.72-1.36-1.16-1.52a18.2,18.2,0,0,0-1.44-1.6,16.14,16.14,0,0,0-1.6-1.39l-1.12-.77-.53-.35-1.26-.86c-.82-.56-1.7-1.12-2.62-1.69s-1.83-1.07-2.65-1.49a7.69,7.69,0,0,0-2.6-.92l.18.13a11.93,11.93,0,0,0-4.24-1.41L829,771.9l-5.44-.73-.2,0a2.81,2.81,0,0,0-.88.05l-1.61-.21-.37.13h0a7.45,7.45,0,0,1-.77,0l-1.06,0-.21,0h-.35c-.45.06-.83.08-1.1.1a10.26,10.26,0,0,0-1.22.16l-3.64.83a9.21,9.21,0,0,0-1.35.22l17.24-73.16,1.09.09c37.1,2.73,79.17,2.11,125-1.82,173.27-14.88,407-116.6,449.36-135.56a2.94,2.94,0,0,1,4.12,2.91L1395.4,750.25a10.66,10.66,0,0,0,1.46,6.12L1470.38,880A2.32,2.32,0,0,1,1469,883.45Zm-1162.68-36c-.64-6.49-.89-9.87-1.27-16.54a7.55,7.55,0,0,0,.12-1.78l-.08-1.51a7.9,7.9,0,0,0-.36-2.13,11.78,11.78,0,0,1-.12-3l.17-2-.08-.29a13.34,13.34,0,0,1-.29-2.91l-.08-2.26a11.5,11.5,0,0,0-.13-4.45c-.08-3-.12-4.56-.18-7.59.12-.86.22-1.77.27-2.69a8.76,8.76,0,0,0-.37-3.12c0-2.43-.05-3.73-.08-6.24a29.36,29.36,0,0,0-.06-7.07v-.9a9.49,9.49,0,0,0,.2-2.28l0-6,0-.12a8.64,8.64,0,0,1,0-2.49l0-.17-.23-3c0-1.06,0-2.18-.11-3.24a28.46,28.46,0,0,1,.09-4v-2.49a6.27,6.27,0,0,0,.29-2.6,15.11,15.11,0,0,1-.09-1.66v-.67a9.08,9.08,0,0,1,0-2.55v-.12l0-4.73a6.11,6.11,0,0,0-.22-1.63v-1.53c0-.68,0-1.39.06-2a6.65,6.65,0,0,0-.1-1.47,5.62,5.62,0,0,1-.09-1.06l0-.6a14.93,14.93,0,0,0-.2-4.51l0-1a10.35,10.35,0,0,0,.15-2l-.05-2.8-.25-2.24V725a14.2,14.2,0,0,1,.14-2.62l0-.15v-.16c0-3.1,0-4.65-.05-7.75v-.67l-.2-.54v-2.83a29.69,29.69,0,0,0,0-5V704a8,8,0,0,0,.19-3,9.8,9.8,0,0,1,0-2.83,3.46,3.46,0,0,0-2.45-4l-.76-.25-.51.08a1.85,1.85,0,0,0-.41-.07l-.18,0-.27,0-6.12,1-1.4,0-.83.14-.21.07a14,14,0,0,1-3,.82l-3.33.53q-1.33.21-2.28.27c-.62,0-1.25,0-1.87,0h-.14l-.36.06a4.6,4.6,0,0,0-3,1.56,8.06,8.06,0,0,0-1.31,2.46,10,10,0,0,0-.41,1.57,2,2,0,0,1-.3.75,14.42,14.42,0,0,0-1.28,3.17,32.19,32.19,0,0,1-.94,3.17l-.22.63c-.28.8-.57,1.65-.92,2.43a4.66,4.66,0,0,1-.22.45l-.17.32a3.45,3.45,0,0,0-.38,1.47,6.8,6.8,0,0,1-.91,2.58l-.7,1.78a27.29,27.29,0,0,0-.81,2.83,31.73,31.73,0,0,1-1.3,3.85c-.43,1.11-.78,2.09-1.06,2.92a16.12,16.12,0,0,0-.65,2.52l-.37,1.1a32.63,32.63,0,0,0-1.74,4.68c-.23.78-.44,1.58-.64,2.37-.27,1-.52,2-.82,2.89l-.16.49c-.32,1-.73,2.26-1,3.59-.1.44-.18.88-.27,1.32a16.6,16.6,0,0,1-.47,2.09c-.13,0-.32-.12-.58-.24a2.87,2.87,0,0,1-.07-.67,22.35,22.35,0,0,0-1.53-6.68,14,14,0,0,0-.5-2.07,7.65,7.65,0,0,0-.81-1.7,3.08,3.08,0,0,1-.37-1.09v-.23l-.06-.27-.17-.53a24.93,24.93,0,0,0-1.08-3.92c-.42-1.23-1-2.72-1.67-4.44l-.16-.4-.13-.09a42.55,42.55,0,0,0-1.94-5.37c-.26-.58-.51-1.22-.75-1.9l-1-2.73-.61-2.4-.2-.26a13.18,13.18,0,0,1-.66-2.32c-.14-.57-.28-1.05-.42-1.45l-.37-1.08a12.29,12.29,0,0,1-.62-1.89c-.11-.43-.24-.88-.38-1.32s-.19-.62-.27-.91a3.82,3.82,0,0,0-2-2.45,5.13,5.13,0,0,0-1.94-.56,5.4,5.4,0,0,0-1.06,0l-2.41.56L234,704a8.45,8.45,0,0,1-1.22.11,9.28,9.28,0,0,0-1.48.1,7.92,7.92,0,0,0-1.92.48c-.79.13-1.49.26-2.09.42s-1.2.26-1.84.36-1.29.16-1.94.2-1.29,0-1.93,0h-.14l-1.19.18a5.91,5.91,0,0,0-4.26,2.49,4.2,4.2,0,0,0-.63,4.27,5.74,5.74,0,0,1,0,.8l-.05,1.73a9.75,9.75,0,0,0-.08,3.06l-.06,1.71a7.62,7.62,0,0,0-.37,2.83,19.27,19.27,0,0,0,.3,2.76,5.14,5.14,0,0,1,0,2.35l-.06.19v.2c0,.53,0,.93,0,1.31,0,.6,0,1.15,0,2.1a8.53,8.53,0,0,1-.14,1.25,5.92,5.92,0,0,0,0,2,32.08,32.08,0,0,0-.21,5.07c-.12,2.58-.19,4-.33,6.73a5.33,5.33,0,0,0-.18,1.93,10.33,10.33,0,0,1,0,1.25l-.3,5.73v.1a11.09,11.09,0,0,1-.16,3,10.74,10.74,0,0,0-.16,3.43,8.22,8.22,0,0,1-.17,3.12l0,.14-.33,6.36a8.5,8.5,0,0,1-.27,1.88l-.05.17-.08,1.7,0,.16a12.38,12.38,0,0,1,.06,2.37l-.08,1.65a38.92,38.92,0,0,1-.13,4.86c-.08.86-.18,1.72-.29,2.54s-.18,1.54-.25,2.24a14.91,14.91,0,0,0,.06,3.48c-.11,2.55-.16,3.87-.26,6.46a7,7,0,0,0,.08,1.39.73.73,0,0,1-.06.31l-.1.24v.26l-.2,6a14.9,14.9,0,0,1-.26,2.49l0,.14,0,1.22a8,8,0,0,0,.16,2.09l-.08,3.73a19.2,19.2,0,0,1-.14,2,24.17,24.17,0,0,0-.15,2.55c0,1.78-.06,4.69-.06,4.69l.1.26a4.77,4.77,0,0,1-.07,2.45,4.94,4.94,0,0,0,.3,3.7,12.4,12.4,0,0,1,0,3.74l-.06.77a4.82,4.82,0,0,1-.06.61,3.33,3.33,0,0,0,.14,1.68,31.22,31.22,0,0,1,.1,4.68l.09,2.46.09.24a2.67,2.67,0,0,1,.07,1.7,3.79,3.79,0,0,0,.07,2.7,4.92,4.92,0,0,0,.18.78h0s0,.18-.07.58l0,.18.05.86a7.54,7.54,0,0,1,0,1.83l-.06.24v.24a8.16,8.16,0,0,0,.41,2.24c.13,1.62.22,2.48.39,4.07l0,.12,0,.12a4.57,4.57,0,0,1,.25,1.75,6.07,6.07,0,0,0-.05,1.74l0,.27.13.25a5.56,5.56,0,0,1,.35,2.52,3.58,3.58,0,0,0,1.62,3.1,3.69,3.69,0,0,0,2,.75,5.67,5.67,0,0,0,1.22,0,15.14,15.14,0,0,0,2.49-.26,9.78,9.78,0,0,0,2.25-.61,17.1,17.1,0,0,1,1.94-.48l2.77-.52,3.63-.72a6.72,6.72,0,0,1,1.55-.19h.21l1.92-.4a11.34,11.34,0,0,1,1.71-.2h.13l.77-.16c3.78-.8,3.83-3.53,3.68-4.66-.4-3-.58-4.59-.88-8a3.09,3.09,0,0,1,0-.81l.15-.37-.06-.38c-.23-1.7-.33-2.57-.53-4.35-.06-.92-.11-1.87-.16-2.75a15,15,0,0,1,.07-2.49l0-.12v-.12c-.06-1.36-.09-2-.14-3.42l0-.8-.27-1.58-.09-3.44c-.12-1.42-.18-2.09-.29-3.43V831a16,16,0,0,1,.15-3l0-.16v-.16c0-4.6,0-7,0-11.74,0-2.06.09-4.09.2-6s.12-4.19,0-6.76a9.71,9.71,0,0,1,.06-2.88,11.15,11.15,0,0,0,.14-4.21l.2-6.4a18,18,0,0,1,.29-2.66l0-.11.12-3.35-.08-.26a5.48,5.48,0,0,1-.26-1.91l.26-6.56a.53.53,0,0,1,.07-.31l.13,0h0a5.88,5.88,0,0,0,.38,1.69,4.92,4.92,0,0,1,.35,1.38,5.18,5.18,0,0,0,.58,2.08,22.65,22.65,0,0,1,.56,2.39c.18,1.05.4,2.09.66,3.13l.06.21.11.19a3.87,3.87,0,0,1,.4,1.18,11.36,11.36,0,0,0,1.07,3c.26.8.56,1.64.88,2.5s.58,1.68.85,2.65c.67,2.34,1.36,4.49,2.05,6.41l.12.33.07.08c0,.1.31.93.42,1.25a4.23,4.23,0,0,1,.31,1.17v.47l.25.39a11.94,11.94,0,0,1,.86,2.44,17.88,17.88,0,0,0,.92,2.58c.28.59.55,1.22.83,1.89a9,9,0,0,1,.54,1.94,12.59,12.59,0,0,0,.79,2,3.59,3.59,0,0,0,3,1.94,5.56,5.56,0,0,0,2-.25,4.3,4.3,0,0,0,2.42-2,20.13,20.13,0,0,0,1.71-4.85,6.63,6.63,0,0,1,.67-1.84l.09-.13.06-.15a36.58,36.58,0,0,0,1.87-6c.27-1.19.6-2.38,1-3.54s.75-2.14,1.15-3.21l.07-.21c.52-1.38.92-2.75,1.28-4,.2-.66.38-1.27.56-1.82.05-.15.11-.37.19-.64s.28-1,.5-1.62c.11-.35.32-1.06.62-2l.08-.28c.3-1,.56-1.89.72-2.63a22.84,22.84,0,0,1,1.07-3.16l.07-.18,0-.2a11.94,11.94,0,0,1,1.42-4,11,11,0,0,0,1.33-4.79,15.42,15.42,0,0,1,1.2-4.37,1.11,1.11,0,0,1,0,.19,5.34,5.34,0,0,1-.21,2l-.05.19-.11,6,.06.22a5.69,5.69,0,0,1,.13,1.92l0,.28c-.09.88-.24,2.36-.26,4.26-.06,4.11-.09,6.18-.13,10.31a28,28,0,0,0,0,4.86l-.23,1.6.22,3.44c0,1.85,0,2.82,0,4.76,0,.81,0,1.57-.1,2.31a10.17,10.17,0,0,0,.11,2.58,7.16,7.16,0,0,0-.28,2.74,16.71,16.71,0,0,0,.34,1.92l0,1.71,0,.14c.15.75.27,1.47.35,2.15a10,10,0,0,1-.25,2.7l0,.16v.16c.2,8.74.36,13,.91,21.17a10.43,10.43,0,0,1,0,1.48,3.31,3.31,0,0,0,.47,2l.08.94-.12,1.35.07.77a4.81,4.81,0,0,1,0,.83,9,9,0,0,0,0,1.56l0,.2a1.79,1.79,0,0,1,0,.46,4.89,4.89,0,0,0,0,1.26,4.15,4.15,0,0,0,3.85,3.41,8.92,8.92,0,0,0,2.61-.39c3.53-1,5.3-1.46,8.84-2.46l.16,0,.14-.08a18.09,18.09,0,0,1,3-1,17,17,0,0,1,1.82-.42c.23,0,.5-.06.77-.09.42,0,.87-.09,1.29-.17a14.33,14.33,0,0,0,1.59-.43l.54-.17a8.14,8.14,0,0,0,2.4-1.2A4.39,4.39,0,0,0,306.33,847.42Zm109.13-28.06a5.54,5.54,0,0,0-.58-2.4l0-.37-.08-.2a46.08,46.08,0,0,1-2.27-7.64,17,17,0,0,0-1.38-4.25,2.3,2.3,0,0,1-.43-1.06v-.13l-.34-1.25a5,5,0,0,0-.45-1.77l-.91-3,0-.09c-.16-.36-.4-1-.73-1.93-.06-.58-.16-1.33-.31-2.25a6.36,6.36,0,0,0-.86-2.53,10.75,10.75,0,0,1-.52-2.34,9.17,9.17,0,0,0-.47-2.32,3.61,3.61,0,0,1-.24-1,5.58,5.58,0,0,0-.44-1.73,8.55,8.55,0,0,1-.34-.95,4.65,4.65,0,0,1-.15-.85v-.15l-.92-3.25c-.21-.61-.39-1.17-.57-1.77s-.55-1.82-1.1-3.64a16.36,16.36,0,0,0-1.19-4.61,4.18,4.18,0,0,0-.28-1.17.77.77,0,0,1,0-.23l0-.38-.2-.32a1.13,1.13,0,0,1-.06-.32,5.66,5.66,0,0,0-.29-1.23,12.07,12.07,0,0,1-.32-1.2c-.06-.27-.11-.58-.15-.9a15.91,15.91,0,0,0-.42-2.1c-.29-1-.62-1.93-1-2.88l-.05-.15-.08-.13a2,2,0,0,1-.31-.88,6.63,6.63,0,0,0-.33-1.63,12.19,12.19,0,0,0-1.24-4.61,5.84,5.84,0,0,0-.2-.83c0-.14-.1-.31-.17-.5a4,4,0,0,1-.21-.61,30.11,30.11,0,0,0-1.15-4,34,34,0,0,0-.92-4,10.14,10.14,0,0,0-.4-2,13.29,13.29,0,0,0-.84-2,5.35,5.35,0,0,1-.27-.77,3.69,3.69,0,0,1-.12-.74,17.31,17.31,0,0,0-.85-3.45l0-.22a2.12,2.12,0,0,0-.26-.93l-.08-1.11-.23-.18a19.88,19.88,0,0,0-.56-2.57,2.07,2.07,0,0,0-.24-.75l-.14-2.27-.41.05a10.87,10.87,0,0,1-.29-1.65l0-.69-.23-.18a13.26,13.26,0,0,0-.3-1.55,26,26,0,0,0-.93-2.61,3.49,3.49,0,0,0-.23-.9,4.2,4.2,0,0,0-.27-1.35,7.18,7.18,0,0,0-.22-1.35,1.76,1.76,0,0,1,0-.34,6.45,6.45,0,0,0-.11-.68,5.5,5.5,0,0,0-.19-.64,5.15,5.15,0,0,1-.16-.56l-.06-.29c-.09-.43-.2-1-.35-1.6s-.29-1.11-.43-1.63l-.07-.24c-.17-.58-.41-1.38-.73-2.42l-.68-2.84a5.06,5.06,0,0,0-.28-1.49,7.8,7.8,0,0,0-.29-1.86l0-.72-.77-3.21c-.32-.94-.54-1.69-.7-2.37s-.32-1.31-.47-1.92a2.06,2.06,0,0,0-.22-.75l-.06-1-.27-.27c0-.16,0-.37-.05-.6a11.65,11.65,0,0,0-.22-1.7,4.61,4.61,0,0,0-1.85-2.55,4.4,4.4,0,0,0-2.2-.79,4.83,4.83,0,0,0-1.07,0l-4.19.63a15.66,15.66,0,0,0-2.77.64l-.08,0-.13,0-11,1.64a11,11,0,0,0-2.3.15l-.2,0a6.83,6.83,0,0,0-1.87.51,4.92,4.92,0,0,0-3.63,4.78v.27a12.27,12.27,0,0,1-.09,1.75,11.77,11.77,0,0,0-.39,1.89,4.68,4.68,0,0,0-.27,1.13c0,.14,0,.31-.06.5a6.71,6.71,0,0,1-.17,1.14,15.57,15.57,0,0,0-.58,3.6,24.88,24.88,0,0,1-1,6.43,5.89,5.89,0,0,0-.24,1.76,6.94,6.94,0,0,1-.14,1.18c-.1.5-.17,1-.24,1.52l-.13.83a15.38,15.38,0,0,1-.5,2.13l-.08.24,0,.92-.33,2.69a22.65,22.65,0,0,1-.68,3.22l-.06.21V722a4.59,4.59,0,0,0-.17,1.27l-.2.23,0,1a2.29,2.29,0,0,0-.18,1l0,.63q-.17.95-.33,2a15.59,15.59,0,0,1-.49,2.13l-.07.24v.38a1.85,1.85,0,0,0-.16.6l-.2.89v.19a4,4,0,0,1-.09,1.11l-.07.24v.25a11.18,11.18,0,0,1-.41,3.5,11.16,11.16,0,0,0-.48,2.67c0,.63-.09,1.29-.18,2a3.31,3.31,0,0,0-.2,1.27l-.12.27-.05.39-.09,1.91a5.6,5.6,0,0,0-.37,2.11,7.4,7.4,0,0,1-.14.89c-.08.42-.16.87-.21,1.32l0,.27a3.13,3.13,0,0,0-.17.9l-.36,2.72a2.76,2.76,0,0,0-.18,1l-.58,2.79v.18l-.73,6.13v.1a4.16,4.16,0,0,1-.07,1.05l-.05.15,0,.22-.17,1.3-.22.3v1.15a2.33,2.33,0,0,0-.2,1.06v.16a9.38,9.38,0,0,0-.58,3.45,6.15,6.15,0,0,1-.28,2.3,4.06,4.06,0,0,0-.3,1.58,1.13,1.13,0,0,1-.09.4L336,778v.3a31.11,31.11,0,0,1-.9,7.21,10.76,10.76,0,0,0-.19,1.71l0,.48c0,.37-.08.75-.13,1.13s-.11.82-.14,1.19c-.06.7-.15,1.45-.27,2.23l-.56,4.24c-.11.59-.24,1.32-.37,2.08a12.43,12.43,0,0,0-.19,2.2l-.38,2v.17a2.07,2.07,0,0,0-.19.87l-.34,2.87c-.12,1-.23,1.86-.35,2.67s-.21,1.73-.26,2.57a8.94,8.94,0,0,1-.4,2.13l-.07.25v.26a7.78,7.78,0,0,1-.3,2l0,.11s-.29,3.12-.45,5.05a6.16,6.16,0,0,0-.18,1.65,2,2,0,0,1-.06.47q-.06.33-.09.63a5.73,5.73,0,0,0,0,.91l0,.34a6.35,6.35,0,0,1-.29,1.6c-.42,2.83-.61,4.16-1,6.79l-.21,3.34-.24.32.07,1.1a2.36,2.36,0,0,0-.14,1.06l.06.8,0,.15a3.52,3.52,0,0,0,3.24,2.87,5.28,5.28,0,0,0,1.72-.19l5.95-1.58,2.95-1c4.38-1.16,6.62-1.75,11.09-2.91l.21-.06.19-.11a6.26,6.26,0,0,0,1.52-1.26,5.72,5.72,0,0,0,1.16-2.55l.22-.58,0-.2c.09-.78.15-1.45.18-2,0-.35.08-.74.13-1.14l.06-.48a22.83,22.83,0,0,0,.16-2.32v-.21c0-.62,0-1.27,0-1.94l.15-.39v-.21a19.75,19.75,0,0,0,0-3,5.61,5.61,0,0,1,.21-2l.08-.27,0-.72a12.77,12.77,0,0,0,.27-1.5l.29-.08-.12-2.09a2.44,2.44,0,0,0,.16-1.06l.1-1.93a7.87,7.87,0,0,1,0-1.31l.36-3.56a3.25,3.25,0,0,1,2.12-2.47,10.07,10.07,0,0,1,2.31-.75,5.68,5.68,0,0,1,1.6-.24h.24l.31,0,.85-.2a9.6,9.6,0,0,0,1.52-.49,6.16,6.16,0,0,1,.82-.28l1.1-.25a17.07,17.07,0,0,0,3.17-.49c2.81-.64,4.21-.95,7-1.57a1.53,1.53,0,0,1,.46,0c.16,0,.43,0,.64.64.28.84.54,1.77.8,2.74l.29,1,.1,1.32.19.32a5.28,5.28,0,0,1,.11.81l0,.19.06.19c.34,1,.61,1.84.8,2.5l0,.25.06.33.26.9,0,.44.05.15a8.93,8.93,0,0,1,.32,1.61,6.32,6.32,0,0,0,.62,2.17l.08.83.27.61a9.31,9.31,0,0,0,.24,1.26c.06.22.15.46.24.72a5.6,5.6,0,0,1,.21.66c0,.17.07.34.1.5a5.09,5.09,0,0,0,.25,1,21.89,21.89,0,0,0,1,4.19,3.9,3.9,0,0,0,3.48,3,4.77,4.77,0,0,0,1.52-.14l2.37-.56.2-.12a7,7,0,0,1,1.69-.55l.8-.18a7.13,7.13,0,0,0,2-.26l1.81-.42.09,0a22.18,22.18,0,0,1,3-.89c1.19-.27,2.59-.66,4.14-1.16a7.82,7.82,0,0,1,.91-.11c.42,0,1,0,1.68-.07h.15l.78-.18a4.67,4.67,0,0,0,3.25-2.59A5.18,5.18,0,0,0,415.46,819.36Zm95.25-12.48-.25-2.58-.25-.34c-.44-.6-.85-1.2-1.22-1.8a10.29,10.29,0,0,1-.94-2l-.08-.77-.19-.32a1.66,1.66,0,0,1-.21-.54,4.67,4.67,0,0,0-.8-1.59,11.4,11.4,0,0,1-.62-1.42,17.49,17.49,0,0,0-.86-1.94l-.2-.55-.59-1.57-.09-.14a2.11,2.11,0,0,1-.32-.87v-.2L504,790a26.08,26.08,0,0,0-2.41-4.6v-.1l-.12-.42-2.22-5,0-.2-2.15-4.87-.78-1.9c-.35-.79-.64-1.53-.9-2.27a19,19,0,0,0-1-2.32l-2.91-6.12a4.19,4.19,0,0,0-.41-1.13q-.29-.54-.54-1l-.61-1.28a4.26,4.26,0,0,1-.13-.66,6.13,6.13,0,0,1,.61-.49l.24-.07a8.17,8.17,0,0,0,2.63-2.3,7.76,7.76,0,0,1,.72-.75c.22-.21.43-.41.62-.62l.29-.19a8.79,8.79,0,0,0,1.42-1.59c.31-.45.65-1,1-1.57s.71-1.22,1-1.82.5-1.06.72-1.59l.29-.49c.76-2.15,1.44-4.44,2-6.8l0-.11v-.11c.07-.72.11-1.37.13-1.94s.08-1,.14-1.48a9.76,9.76,0,0,0,0-2.16,1.94,1.94,0,0,1,.15-.92l.14-.36,0-.31.13-.56-.07-3-.6-6.31a7.66,7.66,0,0,0-.24-1.25l.1-.26,0-.33a22.5,22.5,0,0,0-.35-3.66,11.75,11.75,0,0,1-.08-2.24l0-.53c0-.24,0-.49,0-.74s0-.48,0-.7a5.58,5.58,0,0,0-.33-2.08,8.55,8.55,0,0,1-.51-2.6c0-.47,0-1,0-1.45s0-1.14,0-1.69c0-.25,0-.51,0-.77s-.05-.72-.05-1.06a5.33,5.33,0,0,0-.51-2.32l-.07-.77-.11-.24a2.2,2.2,0,0,1-.18-.69,9.56,9.56,0,0,0-.36-1.73l-.06-.65a18.14,18.14,0,0,0-.82-4c-.37-1.11-.74-2.19-1.1-3.23l-.81-2.18-1.53-3a3.81,3.81,0,0,1-.5-1,3.42,3.42,0,0,0-1.09-1.75l-.33-.28-.34-.43a24.94,24.94,0,0,0-6.41-6.06,18.79,18.79,0,0,0-7.91-3.23l-1.49-.41,0,0a5.93,5.93,0,0,0-1.67-.49l-1-.05c-.3,0-.64-.06-1-.11l-1.63-.09a3,3,0,0,0-.58-.09,2.53,2.53,0,0,0-.55,0,4.08,4.08,0,0,1-.56,0l-.63-.06-2.71.28h-.14a10.31,10.31,0,0,0-1.85,0l-1.82.19a9.24,9.24,0,0,1-1.66.09l-.26-.06h-.39l-2.29.25a12.46,12.46,0,0,0-2.46.46l-.77.08a3.62,3.62,0,0,1-.56,0l-.26,0-.26-.07-5.38.58-.94.3-6.29.68q-.88.09-1.95.12c-.81,0-1.61.07-2.41.15l-5.81.63-.12,0a4.29,4.29,0,0,0-3.43,4.36,3.09,3.09,0,0,0,0,1.51,2.78,2.78,0,0,1,.11.58v.32l.14.28a4.55,4.55,0,0,1,.23,2.34,17.81,17.81,0,0,0,.25,4.37l.26,4.73c0,.51,0,1.07,0,1.61,0,.34,0,.67,0,1a4.87,4.87,0,0,0,.28,1.77l.13,2.33a5.86,5.86,0,0,0,0,2,13.15,13.15,0,0,1,.16,1.39l.13,2.38a4.43,4.43,0,0,0,0,1.74,6.06,6.06,0,0,1,.14,1.06l.11,2a24.6,24.6,0,0,0,.4,6.64,7.58,7.58,0,0,1,.19,3,5.87,5.87,0,0,0,.12,2.44,7.78,7.78,0,0,1,.2,2c0,.84,0,1.62,0,2.32l.24,4,.06.18a2.54,2.54,0,0,1,.12.9c0,.3,0,.61,0,.9a2.4,2.4,0,0,1,0,.38,16.25,16.25,0,0,0-.05,2.65l.13,2a9.85,9.85,0,0,1-.06,1.71l0,.15v.16a14.49,14.49,0,0,0,.46,3.34,3.25,3.25,0,0,1,.3,1.42l0,.18.11,1.64a11.13,11.13,0,0,0,0,2.16l0,.61c0,.52.05,1.05.12,1.51,0,.24.09.5.14.78a15,15,0,0,1,.23,1.56l.18,2.48c.36,4.74.53,7.14.86,12a10.13,10.13,0,0,0,.23,3c.62,2.6.49,3.68.37,4.1a3.28,3.28,0,0,0,.08,2.38,31.72,31.72,0,0,1,.3,4.44,2.79,2.79,0,0,0,0,1.57,1.81,1.81,0,0,1,.09.44c.06.88.16,1.78.3,2.71a8.8,8.8,0,0,1,.07,2.21,11.06,11.06,0,0,0,0,3.57c.29,4.07.45,6.16.76,10.28l0,.68.23.18c.07.76.16,1.47.26,2.14a5.86,5.86,0,0,1-.09,2.18l0,.21.08,1,0,.14a19.15,19.15,0,0,1,.45,2,3,3,0,0,1-.1,1.49l-.16.55.22.53a6.44,6.44,0,0,1,.27,1.75l.06.73,0,.1a4,4,0,0,0,2.92,3,6.11,6.11,0,0,0,1.28.24,5.7,5.7,0,0,0,1.1,0l1.55-.24a6.4,6.4,0,0,0,1.56-.43l4.11-.61h.14a10.59,10.59,0,0,0,2.17-.13,8.94,8.94,0,0,0,2-.49c2.82-.4,4.3-.6,7.18-1a4.73,4.73,0,0,0,4.11-5.53l0-.37-.24-.39-.21-2.35a22.24,22.24,0,0,0-.49-2.92l-.33-1.37-.15-1.76a7.25,7.25,0,0,0,.2-2.46l-.35-4a8.68,8.68,0,0,0-.37-1.78l0-.37-.29-1,0-.25a4.79,4.79,0,0,1,0-1.35l.06-.24,0-.26a11.64,11.64,0,0,0-.42-2.4,6.5,6.5,0,0,0-.22-1h0s0-.06,0-.16a10.35,10.35,0,0,0,.12-2.57l0-.65c0-.58-.05-1.18-.08-1.76,0-.38,0-.76-.07-1.13a16.89,16.89,0,0,0-.8-4.66l-.12-1.39a10.56,10.56,0,0,0,.15-3A15,15,0,0,0,460,768c-.09-.33-.17-.65-.24-1a5,5,0,0,1,0-1.79l.23-.09c.61.09,1.09.14,1.43.17a5.89,5.89,0,0,0,.71,0l1-.1a3,3,0,0,1,.36.6l.32,1.34.82,1.88c.34.77.75,1.61,1.24,2.51.18.51.36,1,.53,1.35l.51,1.18c.32.73.57,1.34.74,1.83l.33.94.08.14s.05.08.07.31a2.93,2.93,0,0,0,.91,1.9,8.4,8.4,0,0,1,1.16,2.66,8.42,8.42,0,0,0,1.62,3.34,3,3,0,0,1,.65,1.62,7.29,7.29,0,0,0,.7,2.26l0,.1.22.35c.35.88.74,1.76,1.17,2.61a24,24,0,0,1,1.06,2.52,8.21,8.21,0,0,0,1.2,2.36l.84,1.64a2,2,0,0,0,.21.44l.09,1,.32.26a12.7,12.7,0,0,0,1.14,2.49c.4.84.86,1.86,1.29,2.92s.84,2.13,1.21,3.15a4.42,4.42,0,0,0,4.23,3.48,7.81,7.81,0,0,0,1.27,0l4.6-.44a14.11,14.11,0,0,0,2.75-.47l4-.38h.2a3.89,3.89,0,0,0,.51.08,5.52,5.52,0,0,0,.7,0l6.82-.66.21-.07a4.29,4.29,0,0,0,2.49-2.09Zm93.57-140.33-.13-.15a3.65,3.65,0,0,0-2.4-1.08h-.3l-2.17,0-.32.15h0a5.15,5.15,0,0,1-.73,0l-6.59-.08a6.29,6.29,0,0,0-1.15-.2l-.38,0H588.8l-6.18-.27a5.71,5.71,0,0,0-3.23.83,7.19,7.19,0,0,0-2.3,3.25l-.55,1.15c-.35.71-.7,1.45-1,2.19a28.12,28.12,0,0,0-1.4,4.59,10.65,10.65,0,0,0-.4,1c-.14.38-.33.89-.59,1.52l-.12.27v.15a16.06,16.06,0,0,0-.64,1.57,11.46,11.46,0,0,1-1.17,2.16l-.15.24-.24,1.13-1,2.26a4.68,4.68,0,0,0-.51,1.5,8.27,8.27,0,0,0-.8,1.88,14.49,14.49,0,0,1-1,2.67l-.3.29-.14.54-.32.62a5.08,5.08,0,0,0-.46,1.44,6.76,6.76,0,0,1-.42,1.28l-.11.27a1.7,1.7,0,0,0-.19.59l-.29.82-.44.72a15.75,15.75,0,0,0-.7,2,8.47,8.47,0,0,1-.41,1.08l-.13.29c-.12.29-.23.62-.33.94l-.13.37a4.85,4.85,0,0,1-.33.8l-.16.33v.07a1.81,1.81,0,0,0-.18.57l-.4,1.14a1.86,1.86,0,0,0-.23.7,6.56,6.56,0,0,1-.58,1,6,6,0,0,0-.89,3.06,1.54,1.54,0,0,1-.32.89,7.1,7.1,0,0,0-.87,1.9l-.07.22a6.67,6.67,0,0,0-.31,1.36c0-.43,0-.85-.08-1.25a4.71,4.71,0,0,1,.1-1.42l0-.15.06-5.82c0-1,.09-2.14.24-3.42l0-2.37.24-4.14,0-2.08-.16-3.9.31-9.93,0-3.7-.07-.25a4.26,4.26,0,0,1-.11-1.31c0-1.43.06-2.67.14-3.72,0-.48,0-1,0-1.51a13.44,13.44,0,0,1,.08-1.61,4.45,4.45,0,0,0-1.26-4,4.7,4.7,0,0,0-2.84-1.44h-.2c-.42,0-1.29,0-2.6.07a15.75,15.75,0,0,0-2.65.27l-3.2,0c-.57,0-1.07,0-1.49-.06a5.75,5.75,0,0,1-.94-.12l-.18-.05-2.41,0a8.38,8.38,0,0,0-2,.18l-3.8,0a4.5,4.5,0,0,0-4,2.3l-.13.2-.06.24a6.48,6.48,0,0,0-.24,2.94,10,10,0,0,1,.24,1.85c.06,1.09.08,1.77.08,2a3.45,3.45,0,0,1-.14.94,8.35,8.35,0,0,0-.2,3.21c0,.37,0,.74,0,1.1s0,.8,0,1.13.08.67.14,1,.11.7.14,1.06l0,.4a7.64,7.64,0,0,1,.06,1.37l-.05.29A16,16,0,0,0,532,687l-.24,3.43.18,2.52-.28,6-.09,8.26,0,.17a8.69,8.69,0,0,1,0,3.4l0,.14v1.39l.07.24a3.84,3.84,0,0,1,.11,1.12l-.06,5.84a8.18,8.18,0,0,0-.23,2.55c0,.32.09.68.14,1.06s.11.69.14,1a7.75,7.75,0,0,1-.11,1.93,18.73,18.73,0,0,0-.25,3l0,3.42.19,1.41-.09,7.92-.21,1.86-.08,6.33h.31q.12.71.18,1.41a2.62,2.62,0,0,1-.21,1.27l-.12.28v.9a19.26,19.26,0,0,0,.16,3.16l0,2.89a8.49,8.49,0,0,0,0,3.24,5.09,5.09,0,0,1-.19,2l0,.18,0,3.6.14,5.29a9,9,0,0,1-.15,2.07,14.06,14.06,0,0,0,.08,4.39l-.05,4.53a12.6,12.6,0,0,1-.11,1.61,15.56,15.56,0,0,0-.13,1.8l-.07,6.58,0,.15a7.86,7.86,0,0,1,.15,1.41l0,1.58-.21,1.2,0,2.14a3.69,3.69,0,0,1-.14,1.12l-.08.23v.25a6.08,6.08,0,0,0,1.32,4,3.55,3.55,0,0,0,2.36,1.18l.43,0a6.75,6.75,0,0,0,1.84-.25,8.27,8.27,0,0,1,2-.11l1.42,0a2.56,2.56,0,0,1,.71.12l.23.08h.74l1.41.22H543a11,11,0,0,0,1.87-.1l1.5-.26,2.39,0a8.54,8.54,0,0,0,2.19.39c.4,0,.82.05,1.29.05h1a4.55,4.55,0,0,0,3.84-1.56,4.79,4.79,0,0,0,.95-3.86,5.72,5.72,0,0,1,0-2.15c0-.15.08-.3.13-.44s.15-.49.2-.71a3.53,3.53,0,0,0-.06-1.64l0-3.5-.11-.28a2.57,2.57,0,0,1-.18-1.27,19.56,19.56,0,0,0,.13-2.16l.12-10.85a6.94,6.94,0,0,0-.11-1.42.81.81,0,0,1,0-.31l.08-.23.08-7a7.26,7.26,0,0,0-.18-1.69l0-1.37a4.58,4.58,0,0,0,0-2.42,1.89,1.89,0,0,1,.45-1,7,7,0,0,0,1.63-3.6,6.9,6.9,0,0,1,1-2.59,12.75,12.75,0,0,0,1-2.74l.09-.22c.24.23.55.55.94,1a3.94,3.94,0,0,0,.19,1.58c.11.4.19.92.29,1.52a27.21,27.21,0,0,0,.66,3.13l.77,2.8c.25.79.49,1.64.72,2.61a5.31,5.31,0,0,0,.26,1.27c.12.38.29,1.14.54,2.27l.54,2.47a5.42,5.42,0,0,0,.79,2.63c.05.11.18.49.37,1.06v.17l0,.36.15.64v.2a2,2,0,0,0,.25,1l.35,1.29a2,2,0,0,0,.23.72v0c.26.94.51,1.9.77,2.9s.5,2.08.75,3.26l0,.18.08.17a2,2,0,0,1,.15.58,4.21,4.21,0,0,0,.7,1.78c0,.13,0,.28.07.44s.08.47.13.7a3.4,3.4,0,0,0,.09.33,1.83,1.83,0,0,1,.06.25,5.24,5.24,0,0,0,.27,1.58l1.19,3.72,0,.09a3.73,3.73,0,0,0,.26,1.11l0,.2c.26,1.09.52,2.12.78,3.07l.26.95c.17.64.34,1.29.53,1.9a4.51,4.51,0,0,0,3.53,3.11,8,8,0,0,0,1.47.24l.47,0a5.38,5.38,0,0,0,1.69-.18l3.33,0a6.2,6.2,0,0,0,1.22-.12,3.85,3.85,0,0,1,.79-.06l.42,0a3.22,3.22,0,0,1,.7.11l.23.09,12.1.13.18,0a4.4,4.4,0,0,0,2.61-2.11,4.06,4.06,0,0,0,.09-3.89l-.45-1.25a17.26,17.26,0,0,0-.82-3.18l-.62-1.91a12.8,12.8,0,0,1-.52-1.61c-.12-.51-.3-1.21-.54-2.09a8.09,8.09,0,0,0-.93-2.86,2.57,2.57,0,0,1-.42-1.32,7.24,7.24,0,0,0-1.1-3.69c-.12-.37-.24-.71-.37-1a1.74,1.74,0,0,1-.08-.53,7.31,7.31,0,0,0-1.2-3.85,1.68,1.68,0,0,1-.16-1,6.41,6.41,0,0,0-.22-2.14,18.72,18.72,0,0,0-1-2.7c0-.18-.1-.39-.19-.68l-.2-.71c-.31-1.09-.6-2-.83-2.58a16.33,16.33,0,0,1-.59-2l-.12-.49c-.26-1-.57-2.35-1-4.07l-.1-.44-.13-.14a5.35,5.35,0,0,0-.41-1.25l-1.32-4.71c-.24-1-.5-2.07-.76-3.09s-.67-2.34-1.2-3.86l-.34-1.46a16.38,16.38,0,0,0-.65-2l-.51-1.63a37.1,37.1,0,0,0-1-4.2c-.39-1.29-.85-2.61-1.4-4l-.12-.31-.12-.13-1.07-4.51,0-.1c-.13-.34-.27-.78-.43-1.31s-.32-1.05-.52-1.65a7,7,0,0,1,.27-4.23c.22-.54.49-1.16.76-1.74s.56-1.26.84-2l.65-1.25.05,0,.47-1.14a1.78,1.78,0,0,0,.39-1.12,6.4,6.4,0,0,0,.58-1.58,13.49,13.49,0,0,1,1.11-2.54,5.18,5.18,0,0,0,.46-1.44,5,5,0,0,0,1.09-1.93c.05-.16.09-.36.15-.58a6.49,6.49,0,0,1,.39-1.3l.16-.3a6.09,6.09,0,0,0,.54-1.22,6.29,6.29,0,0,1,.36-.88l.2-.45c.17-.41.31-.78.42-1.09a4.27,4.27,0,0,1,.16-.42l.25-.5.45-1.3a6.51,6.51,0,0,1,.33-.8l1.69-3.29,1.28-3.7c.52-1.63,1.1-3.19,1.72-4.66a6.47,6.47,0,0,0,.87-1.34l.05-.1.67-1.91c.25-.62.51-1.33.74-2a11.31,11.31,0,0,1,.54-1.27c.17-.37.36-.77.53-1.18l.23-.54a9.33,9.33,0,0,1,.45-1l.12-.17.48-1.41a10.87,10.87,0,0,1,.53-1.19l.17-.32v-.31c.18-.46.39-.85.53-1.13l.14-.25c.11-.22.21-.5.33-.81s.14-.38.22-.57c.17-.4.37-.94.61-1.58l.15-.41A5,5,0,0,0,604.28,666.55Zm91.55,147.57,0-.28,0-.28a48.57,48.57,0,0,1-.47-7.69,16.87,16.87,0,0,0-.4-4.29,2.4,2.4,0,0,1-.18-1.08l0-.13-.06-1.23a5.39,5.39,0,0,0-.06-1.75l-.25-3,0-.1c-.08-.37-.17-1-.3-1.95.06-.54.11-1.25.15-2.12a6.27,6.27,0,0,0-.31-2.54,9.58,9.58,0,0,1,0-2.25,8.42,8.42,0,0,0,0-2.25,3.29,3.29,0,0,1,0-1,5.48,5.48,0,0,0-.08-1.71c-.07-.35-.12-.66-.15-.94a4.52,4.52,0,0,1,0-.81l0-.15-.27-3.22c-.07-.6-.14-1.17-.2-1.77,0-.18-.06-.42-.1-.7a17.64,17.64,0,0,1-.26-2.91v-.25a22.14,22.14,0,0,0-.27-4.31,3.75,3.75,0,0,0-.05-1.17.82.82,0,0,1,0-.21l0-.37-.13-.35a1,1,0,0,1,0-.3,5.78,5.78,0,0,0,0-1.22,10.52,10.52,0,0,1-.09-1.21c0-.27,0-.57,0-.88a14.62,14.62,0,0,0,0-2.09l0-.55a15.3,15.3,0,0,0-.36-2.57,3.64,3.64,0,0,1-.18-1.07,7.11,7.11,0,0,0,0-1.4l0-.27c0-.46,0-1,0-1.44a13.91,13.91,0,0,0-.23-3.32,6.79,6.79,0,0,0,0-.89c0-.15,0-.33-.07-.53a4.89,4.89,0,0,1-.07-.68,29.91,29.91,0,0,0-.3-4.31,32.62,32.62,0,0,0-.11-4.2,10.52,10.52,0,0,0,0-2.1,14.52,14.52,0,0,0-.42-2.22,7.9,7.9,0,0,1-.12-.85,4.38,4.38,0,0,1,0-.8,17.41,17.41,0,0,0-.18-3.64l0-.23a2.1,2.1,0,0,0-.08-1l.12-1.08-.19-.24a21.22,21.22,0,0,0-.07-2.76,2.16,2.16,0,0,0-.11-.79l.26-2.18-.39,0a10.59,10.59,0,0,1,0-1.88l.07-.64-.19-.25a13.16,13.16,0,0,0,0-1.66,25.65,25.65,0,0,0-.46-2.85,3.58,3.58,0,0,0-.06-.93,1.25,1.25,0,0,1,0-.22,3.68,3.68,0,0,0,0-1.2.92.92,0,0,1,0-.22,6.19,6.19,0,0,0,0-1.22,4.44,4.44,0,0,1,0-.8l0-.25,0-.25A5.71,5.71,0,0,1,689,705c0-.58,0-1.22-.08-2,0-.6-.1-1.19-.16-1.74l0-.26c-.07-.62-.17-1.49-.32-2.6l-.2-3a6.86,6.86,0,0,0-.05-1.56,4.71,4.71,0,0,1,0-.93,6.5,6.5,0,0,0,0-1l.09-.76-.24-3.4c-.16-1-.26-1.85-.31-2.56s-.1-1.39-.15-2a2,2,0,0,0-.1-.8l.13-1.09-.24-.3c0-.17,0-.38.05-.62a12,12,0,0,0,.07-1.72,5,5,0,0,0-1.39-2.92,4.87,4.87,0,0,0-3.08-1.55l-4.39-.51-1-.1a14.32,14.32,0,0,0-2,0h-.1l-.14-.07-11.45-1.33a11.47,11.47,0,0,0-2.35-.48l-.63-.06a6,6,0,0,0-1.55,0,4.51,4.51,0,0,0-4.5,4L655,676a10,10,0,0,1-.32,1.64,12,12,0,0,0-.65,1.81,5.4,5.4,0,0,0-.43,1.08l-.46,1.59a10.62,10.62,0,0,0-1.07,3.5,25.7,25.7,0,0,1-1.88,6.26,5.63,5.63,0,0,0-.46,1.71,6.53,6.53,0,0,1-.31,1.16c-.15.47-.29,1-.43,1.45l-.24.83a17,17,0,0,1-.79,2l-.11.23-.11.94-.7,2.64A21.3,21.3,0,0,1,645.9,706l-.09.2,0,.15a5.09,5.09,0,0,0-.33,1.21l-.23.18-.13,1.08a2.13,2.13,0,0,0-.31.93l-.08.65c-.2.62-.4,1.26-.6,1.93a14.45,14.45,0,0,1-.79,2l-.11.23,0,.38a1.79,1.79,0,0,0-.25.58l-.32.85,0,.19a6.12,6.12,0,0,1-.25,1l-.09.29c-.12.44-.23.93-.34,1.43a11,11,0,0,1-.64,2.25,12.12,12.12,0,0,0-.88,2.58l-.1.54a8.23,8.23,0,0,1-.35,1.39,4,4,0,0,0-.43,1.24l-.15.24-.12.4-.4,1.91a5,5,0,0,0-.66,1.95,7.26,7.26,0,0,1-.55,1.73l-.08.2,0,.26a2.59,2.59,0,0,0-.29.77l-.67,2.34a2.74,2.74,0,0,0-.32.94l-.88,2.34,0,.27-1.41,5.1v.12a3.52,3.52,0,0,1-.15.75l-.12.19,0,.18-.27.93-.29.23-.13,1.08a2.37,2.37,0,0,0-.31.93v.06a7.42,7.42,0,0,0-.94,2.87,4,4,0,0,1-.43,1.67,3.38,3.38,0,0,0-.54,1.46,2,2,0,0,0-.21.42,17.94,17.94,0,0,0-.5,1.87,34.06,34.06,0,0,1-1.21,4.17,6.91,6.91,0,0,0-.36,1.35l-.09.44c-.06.28-.15.58-.24.87s-.2.67-.27,1c-.13.55-.3,1.13-.49,1.74l-1,3.34c-.17.43-.37,1-.58,1.59a10.76,10.76,0,0,0-.45,1.8l-.59,1.59a2.37,2.37,0,0,0-.29.78l-.65,2.26c-.22.76-.43,1.46-.64,2.1s-.42,1.4-.57,2.11a5.93,5.93,0,0,1-.58,1.52l-.14.27,0,.29a4.88,4.88,0,0,1-.49,1.47l-.06.13-1.09,4.13a4.85,4.85,0,0,0-.4,1.41,2.11,2.11,0,0,1-.2.6l-.1.23-.13,1.16a7.42,7.42,0,0,1-.47,1.16l-1.91,5.61-.71,2.77-.28.22-.13,1.09a2.43,2.43,0,0,0-.31.93l-.08.74v.14a3.94,3.94,0,0,0,3.71,4l5.39.63,2.74.11,10.3,1.21.24,0a5.18,5.18,0,0,0,1.69-.68,4.72,4.72,0,0,0,1.62-2l.23-.36.14-.31c.22-.68.39-1.25.52-1.73.08-.3.19-.62.3-1l.14-.42c.24-.72.41-1.43.55-2s.26-1.26.34-1.86l.18-.27.06-.23a16.23,16.23,0,0,0,.53-2.62,4.3,4.3,0,0,1,.48-1.58l.14-.26.08-.66a8.52,8.52,0,0,0,.36-.91l.34,0,.25-2.12a2.32,2.32,0,0,0,.32-1l.12-.51.25-1.08a7.72,7.72,0,0,1,.22-1.11l.85-2.93a1.86,1.86,0,0,1,1.87-1.12,6.43,6.43,0,0,1,1.36,0l.8.08a5.62,5.62,0,0,1,1.5.3l.23.1,1.43.16a7.79,7.79,0,0,0,1.08,0h.65l1.13.13a15.63,15.63,0,0,0,2.94.54l6.58.77a1,1,0,0,1,1,1c.12.85.19,1.78.26,2.74l.08.91-.14,1.2.11.34h0a3,3,0,0,1,0,.72l0,.19,0,.19c.12,1,.22,1.8.27,2.44l0,.4.08,1,0,.4v.16a7.57,7.57,0,0,1,0,1.51,6.34,6.34,0,0,0,.16,2.13l-.09.77.13.63a9.61,9.61,0,0,0,0,1.2c0,.21,0,.45.07.7a5.05,5.05,0,0,1,.06.67c0,.66,0,1.33,0,1.59a10,10,0,0,1,0,1.23,21.69,21.69,0,0,0,0,2.77,4.14,4.14,0,0,0,3.79,4.12l2.24.27.24-.05a4.09,4.09,0,0,1,.94,0l1.31.15a6.65,6.65,0,0,0,1.86.41l1.7.2h.11a16.46,16.46,0,0,1,1.84.05c.32,0,.63,0,1,.09l1.42.13c.75,0,1.57.09,2.47.12a5.06,5.06,0,0,1,.86.18l1.53.47.14,0,1,.1a4,4,0,0,0,3.5-1.5,4.64,4.64,0,0,0,1-1.85A5.47,5.47,0,0,0,695.83,814.12Zm74.09-3.47c-.17-.48-.34-1-.49-1.54l-.14-.5-1.79-1.35-1.35-.25c-.3,0-.58-.09-.85-.11l-.57,0h-.33l-.26,0a10.09,10.09,0,0,1-2.33-.8l-.18-.08-1.53-.28H760c-.51,0-1,0-1.57,0l-.39,0c-.63-.05-1.23-.13-1.81-.23l-.95-.38L750,804a24.41,24.41,0,0,0-2.49-.35l-.65,0-.45-.09a1.37,1.37,0,0,1-1-.73,2.67,2.67,0,0,1,0-1.87,10.11,10.11,0,0,0,.73-2.74l0-.26a5.9,5.9,0,0,1,.23-1.4,9.5,9.5,0,0,0,.66-3.34,5.29,5.29,0,0,1,.5-1.78l.11-.25.19-2.28,1.15-6.17c.15-.83.28-1.69.37-2.61a10.84,10.84,0,0,1,.61-3,8.12,8.12,0,0,0,.83-2.59c.08-.85.1-1.66.11-2.36a8.93,8.93,0,0,1,.32-2.2c.22-.82.42-1.71.6-2.68l.84-3.43.13-.68a5.25,5.25,0,0,0,.07-1.19,2,2,0,0,1,0-.43,15.35,15.35,0,0,0,.22-1.79v-.24a5.66,5.66,0,0,1,.13-1.12,10.46,10.46,0,0,0,.59-2l.44-2.37a18.27,18.27,0,0,0,.71-3.34c.14-1.11.22-2.1.25-3l.45-2.44a1.3,1.3,0,0,1,.13-.41,5.1,5.1,0,0,0,.32-1,21.2,21.2,0,0,0,.68-2,6.06,6.06,0,0,0,.17-2.57l.64-4.54a2.2,2.2,0,0,1,.19-.67l.13-.17,0-.15a7.33,7.33,0,0,0,.53-2.24,13.21,13.21,0,0,1,.21-1.61l1.33-7.21-.06-.3a1.54,1.54,0,0,1,.23-1,8.39,8.39,0,0,0,.67-2.16l.33-1.78.79-5.43a3.47,3.47,0,0,0,0-1.16,1.63,1.63,0,0,1,0-.2c.29-.88.59-1.94.86-3,.13-.52.24-1.06.34-1.59s.21-1.06.34-1.53l.07-.25A7.66,7.66,0,0,0,764,702a8,8,0,0,1,.16-1.73,5.63,5.63,0,0,0,.51-1.62l0-.15v-.16a14.67,14.67,0,0,1,1-5.54l0-.13.14-.74a4,4,0,0,0-1.83-4.48,4.1,4.1,0,0,0-1.64-.81,3.35,3.35,0,0,0-.4-.05,2.08,2.08,0,0,0-.8.08h0a4.36,4.36,0,0,1-.62,0,8.38,8.38,0,0,1-1-.14l-3.39-.81a5.66,5.66,0,0,0-1.67-.53,7.58,7.58,0,0,0-.76-.1,6.46,6.46,0,0,0-.88,0l-1.78-.33a12.64,12.64,0,0,0-2.31-.63l-2-.15-.74-.15-1.22,0-1.66-.3-.42-.06a3.43,3.43,0,0,0-2.56.87,4.34,4.34,0,0,0-1.69,3.93l-.08,1.21a8.84,8.84,0,0,0-.64,3.61l-.36,2a9.33,9.33,0,0,0-.61,2.16l-1.06,5.73a20.72,20.72,0,0,1-.88,4.9,7.86,7.86,0,0,0-.64,4,2.22,2.22,0,0,1-.12,1.41,10.27,10.27,0,0,0-1,3.32c0,.45-.08.92-.1,1.4s-.05.89-.1,1.31a5.39,5.39,0,0,1-.46,1.64,6.45,6.45,0,0,0-.57,2.34,11.08,11.08,0,0,1-.17,1.41l0,.18v.2a5,5,0,0,1-.45,2.42l-.08.17,0,.19c-.12.63-.29,1.38-.52,2.24a11.44,11.44,0,0,0-.31,3.31l-.52,2.86a17.43,17.43,0,0,0-1,5.17l-.89,4.83a5.75,5.75,0,0,1-.4,1.47l-.07.13,0,.15a9.75,9.75,0,0,0-.62,3.56,2.24,2.24,0,0,1-.18,1.11,4.9,4.9,0,0,0-.51,2.64,3,3,0,0,1,0,1.24,6.75,6.75,0,0,0-.65,3.48,10.64,10.64,0,0,1-.37,2.93l-.29,1.09a27.11,27.11,0,0,0-1.15,5.57l-.86,3.58-.6,3.24a50.6,50.6,0,0,1-1,5.32,13,13,0,0,0-.31,2.92,8.34,8.34,0,0,1-.47,2.47L718,800.43v.12a9,9,0,0,1-.87,3.84l-.1.21-.37,2-.26,2.54-.28,1.45a8.14,8.14,0,0,0-.11,1.66v.21a4,4,0,0,1-.29,1,5.06,5.06,0,0,0-.19.53,9.54,9.54,0,0,0-.26,1,5.61,5.61,0,0,1-.14.61,11.45,11.45,0,0,0-.43,1.68l-.53,1.79a4.52,4.52,0,0,0,1.14,4.12,6.68,6.68,0,0,0,4,1.83l.94,0c.38,0,.83.08,1.34.17l1.82.34.25,0a2.6,2.6,0,0,1,.46,0,8.36,8.36,0,0,1,.86.12,8.65,8.65,0,0,1,1.78.49l.17.08.18,0a2,2,0,0,1,.41.13,5.48,5.48,0,0,0,1.34.4l3.1.36,6.23,1.16.75.34.64.12H740a2.73,2.73,0,0,1,.5,0l.43.06a2.46,2.46,0,0,1,.74.2l.29.21.31,0,7.75,1.43.25,0a2.11,2.11,0,0,1,.46,0,8.36,8.36,0,0,1,.86.12l6.32,1.17,1.58.48,1.55.3c.26,0,.52.08.78.1a7.07,7.07,0,0,0,2.24-.2,3.41,3.41,0,0,0,2.59-2.9l.16-2,.52-2.8.43-1.21.21-1.13.34-.75.48-2.61,0-.25a4.74,4.74,0,0,1,.11-1.29,6.52,6.52,0,0,0,.59-3.17l.21-1.13A3.34,3.34,0,0,0,769.92,810.65ZM923.28,824.2l0-7.18a13.45,13.45,0,0,0-.18-2.49v-1.95a16.27,16.27,0,0,0,0-3.42v-1.59a7,7,0,0,0-.17-1.72c0-.11,0-.53,0-.53a9.93,9.93,0,0,0-.13-1.63c0-.22-.1-.56-.17-.93l-.06-.28a3,3,0,0,0-.17-.88v0l-.06-.25c-.2-.78-.31-1.19-.51-1.92a4.37,4.37,0,0,0-.24-1.2,1.53,1.53,0,0,1-.1-.66,4.19,4.19,0,0,0-.4-1.66l-.09-.23a4.61,4.61,0,0,1-.18-.75c-.06-.31-.12-.61-.2-.89a10,10,0,0,0-.8-1.73c-.2-.39-.44-.82-.65-1.28a16.39,16.39,0,0,0-3-4.83c-.17-.19-.4-.43-.61-.69a9.77,9.77,0,0,1-.64-.87,11.67,11.67,0,0,0-3.56-3.37c-1.69-1-2.54-1.55-4.21-2.56l-.09-.05-1.61-.72a10.85,10.85,0,0,0-2.3-.83l-.37-.11c-1.36-.4-2.76-.81-4.2-1.11a24.29,24.29,0,0,0-3-.4c-.69-.05-1.4-.08-2.13-.08-2.12-.06-3.21-.1-5.38-.18h-1.34a13.68,13.68,0,0,0-1.71.09l-.71.13a7,7,0,0,1-.82.15c-.27,0-.57.07-.84.12l-.44.06a8.19,8.19,0,0,0-2.35.63l-1.32.33-1.44.36a5.26,5.26,0,0,0-1.6.68,31.81,31.81,0,0,0-5.08,2.63,15.35,15.35,0,0,0-4.51,4l-1.37,1.53c-.86,1.15-1.6,2.22-2.31,3.35a24.7,24.7,0,0,0-2.14,4.37c-.14.47-.26.81-.37,1.14s-.29.82-.52,1.4a8.31,8.31,0,0,0-.56,2.26,10.58,10.58,0,0,1-.24,1.43l-.43,0,0,2a2.26,2.26,0,0,0-.17.92,4.18,4.18,0,0,1-.07.62c-.06.36-.2,1-.43,1.94l-.05.19v6.86a32.15,32.15,0,0,1,0,6.58,25.53,25.53,0,0,0,0,4.57v3.84a13.5,13.5,0,0,1-.16,2.32l-.08.36.25.82a29.1,29.1,0,0,1,0,6.12c0,1.74,0,2.55,0,4.14-.12,2.75-.12,5.47,0,8,0,2.11,0,3.24,0,5.33V855l.07.23a3,3,0,0,1,0,1.59,8.58,8.58,0,0,0,0,3.94,3.85,3.85,0,0,1,.15,1.41c0,.27,0,.51-.08.76a14.3,14.3,0,0,0-.11,1.57c0,.54,0,1.16,0,1.81v1.39l0,.13a17.16,17.16,0,0,1,0,4.48,26.16,26.16,0,0,0,0,5.62c0,.28.08.6.13.93s.1.62.14.93c0,.54.07,1.1.07,1.67v.21l.19.78v.12a3,3,0,0,0,0,.52,4.59,4.59,0,0,0,.2,1.55,1.94,1.94,0,0,0,.16.63c0,.22,0,1.21,0,1.21l.17.24v.09l.07.23a15.62,15.62,0,0,1,.5,2c.13.72.32,1.56.56,2.46l.06.23.12.2a4.92,4.92,0,0,1,.5,1l.12.38a9.2,9.2,0,0,0,.81,2l.14.23a30.14,30.14,0,0,1,1.94,3.78l.11.25.18.2A24.42,24.42,0,0,1,865,901.7c.57.75,1.18,1.48,1.81,2.16l.14.14c.49.41.8.69,1.18,1l.62.54a16,16,0,0,0,5.37,3.81,4.21,4.21,0,0,0,1.22.73l.7.35.2.11,1.22.28a7.71,7.71,0,0,0,1.89.88c.52.15,1.27.38,2.19.7a15.66,15.66,0,0,0,3.19.75c1.1.16,2.14.27,3.15.35l6.37.53.25-.07a2.7,2.7,0,0,1,.76,0,9.19,9.19,0,0,0,2.4-.22c.52-.09,1.12-.18,1.74-.26l1.73-.26a18.54,18.54,0,0,0,4.31-1.29,13.36,13.36,0,0,0,3.53-1.52c.59-.32,1.27-.73,2-1.2a21,21,0,0,0,2.63-2.19l1.11-1.08a16.44,16.44,0,0,0,1.62-2.33,5.82,5.82,0,0,0,.49-.73c.08-.13.16-.26.24-.37l.12-.16a2.9,2.9,0,0,0,.52-.82c0-.15.1-.27.15-.39a10.15,10.15,0,0,0,.95-1.54l.21-.42a10.93,10.93,0,0,0,.81-1.9l.07-.23a18.59,18.59,0,0,1,1-2.75l.07-.14.12-.56c.08-.32.13-.57.23-.93a7.25,7.25,0,0,0,.62-3v-.51a12.9,12.9,0,0,0,.56-3.51,7.94,7.94,0,0,1,.14-1.82A9.13,9.13,0,0,0,923,880l0-3a37.59,37.59,0,0,1,0-4.39,7.65,7.65,0,0,0-.17-2.18c0-.83,0-1.33,0-2.17a9.33,9.33,0,0,0,.29-3c0-.82-.07-1.56-.08-2.2v-.14l0-.14a15.61,15.61,0,0,1-.14-5.44,13.57,13.57,0,0,0,.23-2.2V855l0-.14a9,9,0,0,1,0-3.4l0-.16.1-21.17,0-.17a6.11,6.11,0,0,1-.14-1.87l.06-.54a10.74,10.74,0,0,0,.14-1.46v-.22C923.28,825.34,923.29,824.78,923.28,824.2Zm63.6,85.2v-.1l0-.1c-.1-.49-.16-.81-.22-1.21l-.09-.51v-.08c-.07-.82-.12-1.28-.18-2.15l-.05-.77.09-1.17v-.14c0-.28,0-.41,0-.7v-.1s0-.16,0-.19l.1-.78v-.14a5,5,0,0,0,0-.61c0-.54-.06-.9-.12-1.58v-.21l-.08-.29a4.68,4.68,0,0,1-.22-1.29v-.08a7.46,7.46,0,0,0-.24-3.27l-.09-1.22a3.75,3.75,0,0,0-.33-2.63c-.27-.43-.49-.83-.72-1.25l-.37-.66-1.93-1-.44,0c-.34,0-.5,0-.83,0a9.16,9.16,0,0,0-1.32.21,1.41,1.41,0,0,1-.42.09,5.46,5.46,0,0,1-.81,0,9.36,9.36,0,0,1-1.38-.22l-.23-.06-1.47.09-.17,0a11.24,11.24,0,0,1-1.65.35,13.92,13.92,0,0,1-1.58.18l-.73-.12-.19,0-4.84.24a15.32,15.32,0,0,0-2.84.32l-.48,0a1.14,1.14,0,0,1-.81-.48,3.25,3.25,0,0,1-.49-2,10.74,10.74,0,0,0,0-2.8l0-.21a6.6,6.6,0,0,1-.13-1.57,11.13,11.13,0,0,0-.23-3.38,6.47,6.47,0,0,1,0-2l0-.24-.38-2.26c-.18-2.47-.28-3.78-.46-6.41-.08-.87-.18-1.75-.29-2.65a12.48,12.48,0,0,1-.19-3.2,9.19,9.19,0,0,0,.11-2.7c-.11-.76-.26-1.47-.41-2.1l-.05-.25a11.55,11.55,0,0,1-.26-2.35c0-.82,0-1.76-.1-2.75l-.1-3.64c0-.3,0-.39,0-.58a5.26,5.26,0,0,0-.22-1.24,2.27,2.27,0,0,1-.09-.47,15.11,15.11,0,0,0-.24-1.79,14.08,14.08,0,0,1-.18-1.47,8.92,8.92,0,0,0,0-2l-.18-2.36A21,21,0,0,0,958,834c-.12-1-.28-1.93-.49-2.92l-.19-2.5a2.34,2.34,0,0,1,0-.46,6.34,6.34,0,0,0,.06-1.05c0-.23,0-.5,0-.79s.06-.89.06-1.34a6,6,0,0,0-.47-2.47c-.2-1.74-.31-2.69-.53-4.49a3,3,0,0,1,0-.86,5.72,5.72,0,0,0,0-2.43,14.51,14.51,0,0,1-.2-1.57c-.23-2.74-.6-7.05-.6-7.05l-.11-.24a1.62,1.62,0,0,1,0-1,8.44,8.44,0,0,0,.05-2.16l-.15-1.71,0-.44c-.21-1.8-.33-2.82-.58-4.69a3.18,3.18,0,0,0-.28-1.11h0s0-.07,0-.12c0-.36,0-.84,0-1.33s0-1,0-1.54,0-1-.09-1.57-.08-.93-.08-1.36v-.24a6.77,6.77,0,0,0-.27-2.26,6.61,6.61,0,0,1-.27-1.43,5.63,5.63,0,0,0,0-1.57v-.15l0-.15a12.3,12.3,0,0,1-.42-4.86V778l-.07-.69a3.82,3.82,0,0,0-2.72-3.46,6,6,0,0,0-1.36-.33h-.38a2.36,2.36,0,0,0-1.09.34,7,7,0,0,1-1.4.22h-.29l-2.84.1a2.72,2.72,0,0,0-.52-.07,9.13,9.13,0,0,0-1.05,0,6.1,6.1,0,0,0-1.51.32c-.61,0-1,.08-1.61.14a3,3,0,0,0-.31,0,12,12,0,0,0-1.87,0l-1.78.34-.66,0-1.19.31-.38,0-1,.09a3.28,3.28,0,0,0-2.54,1.5,3.81,3.81,0,0,0-.52,3.81c.09.45.14.72.24,1.11a7.89,7.89,0,0,0,.32,3.29l.16,1.77a9.3,9.3,0,0,0,0,2l.49,5.32a20,20,0,0,1,.43,4.58,7.29,7.29,0,0,0,.43,3.83,2,2,0,0,1,.22,1.24,10.62,10.62,0,0,0,0,3.32c.07.42.16.86.25,1.3s.18.85.25,1.26a5.88,5.88,0,0,1,0,1.67,6.5,6.5,0,0,0,.07,2.25,12,12,0,0,1,.19,1.36l0,.17.05.16a8.57,8.57,0,0,1,.19,2.6,12.78,12.78,0,0,0,.05,1.44c0,.32,0,.66,0,1a11.27,11.27,0,0,0,.52,3.15c.08,1.11.13,1.74.22,2.86a18.22,18.22,0,0,0,.42,5.16c.14,1.92.22,2.92.39,4.88a8.25,8.25,0,0,1,0,1.69,9.26,9.26,0,0,0,.29,3.65,2.81,2.81,0,0,1,.13,1.24,4.92,4.92,0,0,0,.19,2.6,3.41,3.41,0,0,1,.26,1.23,7.76,7.76,0,0,0,.27,3.56,12.93,12.93,0,0,1,.37,2.93v1.24a30.09,30.09,0,0,0,.33,5.61l.11,3.7.25,3.31c.23,1.52.31,3.07.4,4.71l0,.88a13.39,13.39,0,0,0,.39,2.67,9.14,9.14,0,0,1,.19,2.59c.32,4.26.52,6.76.79,10.08l.27,3.34,0,.1a10,10,0,0,1,.17,3.91l0,.18.07,1,.09,1,.39,2.47.05.85.06.62a8.85,8.85,0,0,0,.33,1.68,3.7,3.7,0,0,1,0,1.05c0,.2,0,.39,0,.54,0,.33,0,.68,0,1a5.6,5.6,0,0,1,0,.57,15.51,15.51,0,0,0,0,1.67v1.8a4.67,4.67,0,0,0,1.95,3.55,6.48,6.48,0,0,0,3,1,5.12,5.12,0,0,0,1,0l.24,0a9.51,9.51,0,0,1,1.71-.18l1.73,0,.25-.1a4.67,4.67,0,0,1,1.09-.11c.19,0,.4,0,.6,0s.6.06.84.09l.38,0,.5,0a4.63,4.63,0,0,0,.72.1l.5,0,2.85-.26c1.47,0,2.49,0,3.75-.08l1.85,0,.5.11.24.07.87,0,.23-.08a1.78,1.78,0,0,1,.69-.12h.45l.37.21.48,0,7.11-.19.25-.1a3.39,3.39,0,0,1,1.05-.13l5.06-.16a5.66,5.66,0,0,0,.7,0c.49.06.83.09,1.49.14h.83a3.06,3.06,0,0,1,.4,0,6.07,6.07,0,0,0,3-.79A3.28,3.28,0,0,0,986.88,909.4Zm58.61-6.44-.42-2-.32-3.07,0-1.31-.1-.93a1.59,1.59,0,0,0,0-.29c0-.26,0-.44.07-.75v-.1l0-.63c-.07-.56-.11-.9-.15-1.36l-.08-.73-.08-.21a5.6,5.6,0,0,1-.28-1.47v0a7.86,7.86,0,0,0-.34-3.38l-.15-1.32a3.84,3.84,0,0,0-.41-2.68c-.32-.49-.59-1-.87-1.45l-.27-.49-.51-.21c-.45-.18-.66-.26-1.08-.46L1040,880l-.46.06c-.39.06-.59.09-1,.17a5.28,5.28,0,0,0-1.26.32,2.1,2.1,0,0,1-.47.14,5.52,5.52,0,0,1-1.24,0l-.82-.09-.23,0-1.5.22-.16.06a13.59,13.59,0,0,1-1.67.53,14,14,0,0,1-1.53.32l-.68-.07-.23,0-.23,0-4.63.64a16.44,16.44,0,0,0-2.84.6l-.27,0h-.26a.89.89,0,0,1-.65-.38,3.35,3.35,0,0,1-.58-2.08v-.21a12.76,12.76,0,0,0-.12-2.7,8,8,0,0,1-.24-1.93,11.33,11.33,0,0,0-.33-3.45,6.54,6.54,0,0,1-.08-2.08l0-.23-.43-2.33-.72-6.7c-.1-.89-.21-1.81-.39-2.76a32,32,0,0,1-.28-3.31,7.48,7.48,0,0,0,0-2.79,21.49,21.49,0,0,0-.55-2.42,11.48,11.48,0,0,1-.33-2.38c0-.89-.09-1.85-.22-2.89V844c-.07-1.31-.11-2.08-.21-3.48,0-.32,0-.46-.09-.77a3.69,3.69,0,0,0-.25-1.11,1.67,1.67,0,0,1-.08-.4,16.63,16.63,0,0,0-.3-1.87,13.31,13.31,0,0,1-.27-1.52,8.76,8.76,0,0,0,0-2.09l-.27-2.37a22.73,22.73,0,0,0-.3-3.57c-.2-1.2-.43-2.21-.63-3s-.28-2.43-.28-2.43a3,3,0,0,1,0-.42,6.39,6.39,0,0,0,0-.85v-.2c0-.35,0-.67,0-1s0-.79,0-1.19a6.65,6.65,0,0,0-.57-2.47s-.53-3.3-.73-4.51a3,3,0,0,1,0-.8,6.17,6.17,0,0,0-.13-2.46,11.93,11.93,0,0,1-.27-1.54l-.33-2.61c-.17-1.3-.31-2.45-.54-4.11l0-.29-.14-.26a1.41,1.41,0,0,1-.06-.86,8,8,0,0,0,0-2.15l-.21-1.65-.87-4.92a2.82,2.82,0,0,0-.32-1.06c0-.42,0-.87-.05-1.33s0-1,0-1.48-.1-1-.16-1.45-.1-.89-.13-1.3v-.28a5.67,5.67,0,0,0-.35-2.11,5.52,5.52,0,0,1-.3-1.3,4.69,4.69,0,0,0,0-1.49l0-.17,0-.15a10.65,10.65,0,0,1-.57-4.51v-.15l-.08-.65a3.76,3.76,0,0,0-2.89-3.28,6.44,6.44,0,0,0-1.2-.25,2.21,2.21,0,0,0-.58,0,2.09,2.09,0,0,0-1,.32,7.16,7.16,0,0,1-1.42.27l-3.17.21-.34,0a6.17,6.17,0,0,0-1.24.05,5.36,5.36,0,0,0-1.45.32h-.09l-1.51.17h0a12.13,12.13,0,0,0-2.15.09l-1.78.38-.7.07-.11,0-.9.25-1.58.19a3.27,3.27,0,0,0-2.38,1.45,3.78,3.78,0,0,0-.44,3.91l0,.11.21.82a7.73,7.73,0,0,0,.45,3.14l.22,1.65a9.05,9.05,0,0,0,.08,1.95c.29,2,.43,3.07.7,5.12a17.28,17.28,0,0,1,.62,4.46,7.57,7.57,0,0,0,.62,3.75,2.15,2.15,0,0,1,.26,1.27,10.32,10.32,0,0,0,.12,3.27c.08.41.19.87.31,1.33s.21.79.28,1.17a5.35,5.35,0,0,1,.06,1.65,6.94,6.94,0,0,0,.16,2.31,12.73,12.73,0,0,1,.27,1.4l0,.16.05.15a8.28,8.28,0,0,1,.29,2.6,12,12,0,0,0,.1,1.3c0,.35.08.73.1,1.13a11.45,11.45,0,0,0,.65,3.22s.27,2.25.34,2.88a20.18,20.18,0,0,0,.61,5.25l.58,5a7.68,7.68,0,0,1,0,1.69,9.92,9.92,0,0,0,.44,3.8,2.64,2.64,0,0,1,.16,1.25,5.69,5.69,0,0,0,.28,2.68,3.49,3.49,0,0,1,.33,1.33,7.75,7.75,0,0,0,.39,3.59,13.07,13.07,0,0,1,.48,3.07l0,1.25a32.38,32.38,0,0,0,.55,5.84l.24,3.88.36,3.41c.33,1.88.49,3.89.65,5.84a13.82,13.82,0,0,0,.52,2.83,12.12,12.12,0,0,1,.27,2.72l.63,5.83c.27,2.52.52,4.82.89,8.11v.1l0,.09a11.15,11.15,0,0,1,.33,4.19l0,.19.24,2.06.46,2.55.1.92a6.81,6.81,0,0,0,.09.69,8.07,8.07,0,0,0,.38,1.69,4.36,4.36,0,0,1,0,1.15c0,.22,0,.42,0,.58,0,.34,0,.66.06,1a6.38,6.38,0,0,1,0,.69,17.24,17.24,0,0,0,.09,1.75l.06,1.9a4.67,4.67,0,0,0,2.1,3.58,6,6,0,0,0,2.63.82,5.45,5.45,0,0,0,1.48-.1l.2-.05a11.46,11.46,0,0,1,1.72-.33l1.73-.18.26-.12a3.43,3.43,0,0,1,1-.2,9.09,9.09,0,0,1,1.46,0l.36,0h.52l.32,0a5.26,5.26,0,0,0,1,0l2.81-.51,5.61-.61.73.14.3,0a3.13,3.13,0,0,0,.4-.06l.19,0,.19-.09a2.22,2.22,0,0,1,.75-.19,2.34,2.34,0,0,1,.51,0l.34.13.41,0c2.72-.31,4.09-.47,6.81-.8l.3,0,.26-.15a3.52,3.52,0,0,1,1-.23c2-.24,3-.36,5-.62l.73-.09h1.45l.9-.1.35,0a6,6,0,0,0,2.89-1.1A3.55,3.55,0,0,0,1045.49,903Zm62-12v-.13l-.09-.52a20.77,20.77,0,0,0-.48-2.28l-.09-.35a8.79,8.79,0,0,1-.21-1.25c0-.32-.07-.65-.13-1-.11-.77-.19-1.71-.24-2.88l0-.29c0-.24,0-.38-.08-.65l0-.16,0-.15c-.24-.8-.46-1.65-.66-2.53a13.53,13.53,0,0,1-.29-2.62l-.55-3.86a3.29,3.29,0,0,1,0-.55,2.48,2.48,0,0,0-1-2.14,11.38,11.38,0,0,0-1.18-.87,3.49,3.49,0,0,0-1.62-.53,4.06,4.06,0,0,0-1.09.06l-.7.17-.15,0-.14.07a5.45,5.45,0,0,1-1.82.34,5.07,5.07,0,0,0-1.32.4c-.33.17-.68.32-1.14.51l-.21.09-.58.12a6,6,0,0,0-1.67.14l-1.13.23-5,1.09-5.61,1.23a9,9,0,0,0-1.27.42l-.56.2a1,1,0,0,1-.34,0,.8.8,0,0,1-.34-.11,8.17,8.17,0,0,1-1.47-2.59c-.14-1.06-.21-1.66-.34-2.68l0-.2c-.06-.41-.08-.55-.11-.83l0-1.67-.06-.54c0-.16,0-.31-.07-.52l-.69-5.52-.05-.15a9.33,9.33,0,0,1-.42-2l-.12-.91c0-.4,0-1.43,0-1.43l0-.13c0-.3-.07-.46-.1-.76l-.06-.44c-.12-.87-.19-1.41-.3-2.39l0-.33-.17-.29h0a4.73,4.73,0,0,1-.18-.88c-.08-.65-.14-1.34-.18-2s-.09-1.48-.18-2.23c-.23-1.74-.6-4.44-.6-4.44l0-.15a2.54,2.54,0,0,1,.22-2.09,1.52,1.52,0,0,1,1.1-.94l.51-.09a7.38,7.38,0,0,1,1.78-.23l.2,0,12.43-2.43a8.78,8.78,0,0,0,3-1.43,3.76,3.76,0,0,0,1.45-3.57l-.23-1.64c-.27-1.12-.46-2.07-.64-3.17l-.09-.71c-.12-.86-.26-1.87-.43-3,0-.33-.28-2-.28-2a9.07,9.07,0,0,1-.09-1.75V817l0-.16c-.05-.3-.07-.44-.1-.7l0-1.29c0-.48-.08-.66-.14-1,0,0,0-.11,0-.21a5.67,5.67,0,0,0-1.38-3.9,3.11,3.11,0,0,0-2.35-1.46,2.61,2.61,0,0,0-.74,0l-4.16.79a11.52,11.52,0,0,0-3,.59l-3.46.66-4.86,1.14-.35.08-.95.18a2.18,2.18,0,0,1-1.05-.36,3.13,3.13,0,0,1-.6-1.43l-.16-1,0-.1a17.36,17.36,0,0,1-.55-2.61,4,4,0,0,1-.08-1.24l0-.26-.58-3.67a7,7,0,0,0-.77-3.54l-.06-.38a4.33,4.33,0,0,0-.42-2.5c-.2-1.21-.32-1.93-.52-3.12A5.46,5.46,0,0,0,1065,790l-.13-.84-.48-1.68,0-.25-.59-3.63c-.12-.69-.09-1.26,1.25-1.61l.28,0a2.67,2.67,0,0,0,1-.32l.35,0a11.65,11.65,0,0,0,2-.13,19.54,19.54,0,0,1,2.16-.16h.1l.09,0,4.15-.61,1.41-.21c.77-.1,1.49-.26,2.18-.41s1.2-.25,1.78-.33l2.67-.39a21.48,21.48,0,0,0,3.88-.56l.18,0,.16-.08a3.6,3.6,0,0,0,2.11-2.57l.06-.28-.31-2-.08-.19a4.58,4.58,0,0,1-.37-1.48c0-.22,0-.44,0-.65a9.47,9.47,0,0,0-.07-1.12c-.06-.33-.09-.59-.13-.86l-.35-2.26a8.43,8.43,0,0,0-.36-1.35l-.11-.37a5.43,5.43,0,0,1-.1-.72l-.07-.53a3.51,3.51,0,0,1,0-.92,5.59,5.59,0,0,0,0-1.57,3.86,3.86,0,0,0-.95-2.08,3.7,3.7,0,0,0-2.29-1l-.22,0a8.75,8.75,0,0,0-1.06-.14c-.2,0-.4,0-.59,0a14.36,14.36,0,0,0-2.56.41,6,6,0,0,1-1.15.28,10.25,10.25,0,0,0-1.06.2l-1.1.23a18.17,18.17,0,0,1-1.9.18h-.27a17.18,17.18,0,0,1-1.88,0h-.13l-3.06.4-.21.09a4.42,4.42,0,0,1-1.15.23,13.45,13.45,0,0,1-2.27.16l-.17,0-.18,0-1,.13a6.62,6.62,0,0,0-1.54.36,4.75,4.75,0,0,0-.74.19,1.76,1.76,0,0,1-.35.09l-4.19.38-7.65,1a9.91,9.91,0,0,1-1.57.09h-.45l-7.58,1-1.75.43-.27.21a4.17,4.17,0,0,0-1.82,4l.43,2.71a7.93,7.93,0,0,0,.58,2.13,5.6,5.6,0,0,1,.37,2.43l0,.2.5,3.14c.1.55.18,1,.24,1.46a2.77,2.77,0,0,1,0,1l0,.22,0,.22a7.13,7.13,0,0,0,.46,1.67,6.19,6.19,0,0,0,.27,1,2.93,2.93,0,0,0,0,2l.49,1.46c.18,1.34.33,2.37.48,3.41s.34,2.36.56,4l0,.11,0,.17a20.6,20.6,0,0,0,.7,3.18c.83,5.17,1.26,7.93,2.07,13.42a4.7,4.7,0,0,0,.2,1.83c.07.26.15.6.21.94l.39,2.78a9,9,0,0,0,.08,1.81l.23,1.6.19,1.4a52.33,52.33,0,0,1,.88,6.28l.78,5.64.2.17c.08.56.13,1,.21,1.67.11,1.62.31,3.41.61,5.24s.55,3.37.74,4.91l.08.58c.07.47.11.84.18,1.37a11.69,11.69,0,0,0,.08,2.11l.24,1.74a12.08,12.08,0,0,0,.44,2l1.2,9.31a7.31,7.31,0,0,0,0,1.77l.49,2.46c.07.46.11.77.16,1.2l.05.41a18.92,18.92,0,0,0,.35,1.88,3.72,3.72,0,0,1,.09,1.27V873l1.15,9a32.07,32.07,0,0,0,.23,3.24l.82,6.19a22.89,22.89,0,0,0,.63,3.37,9,9,0,0,1,.34,2,12.09,12.09,0,0,1,0,1.34c0,.6,0,1.25,0,1.89a5.52,5.52,0,0,0,1.48,3.38,3.71,3.71,0,0,0,2.48,1.22,3.84,3.84,0,0,0,.89,0,16.79,16.79,0,0,0,3-.34l5.07-1.17,2.57-.5c2-.38,3.53-.68,6-1.17a6.92,6.92,0,0,0,1.82-.6l1.56-.31.93,0,.56-.1,1.1,0,.14,0c1.4-.27,2.21-.44,3.42-.69l.75-.16,1.52-.38c1.49-.37,2.6-.66,4.42-1.09,1.3-.28,2-.43,3.14-.66a8.59,8.59,0,0,0,2.11-.24l6.17-1.28C1105.45,895.58,1107.55,894.61,1107.48,891Zm69-35.66c-.08-2-.22-3.76-.41-5.36a3.2,3.2,0,0,0-.13-1.21s0,0,0,0,0,0,0-.11l0-.32-.09-.31a2,2,0,0,1-.09-.53,6.06,6.06,0,0,0-.2-1.16c-.2-.67-.36-1.41-.53-2.18s-.4-1.73-.64-2.59l-.34-1.27a4,4,0,0,1-.17-1v-.19l0-.18c-.22-.83-.32-1.23-.56-2.06-.61-2.22-2-3.57-3.93-3.71a5,5,0,0,0-.55,0,3.51,3.51,0,0,1-.56,0,16.78,16.78,0,0,1-2.3-.4l-.35-.07a7.12,7.12,0,0,0-1.09-.15l-1,0c-.52-.08-.88-.12-1.16-.14l-.4,0a2.13,2.13,0,0,0-.44-.07h-.42l-1.23-.39-.25,0a2.2,2.2,0,0,0-.37-.06h-.15c-.6-.13-1.15-.24-1.69-.32s-1.11-.19-1.72-.32a11.18,11.18,0,0,0-1.77-.32c-.4,0-.89-.14-1.46-.27l-.16,0-1.28,0-.18,0c-1,.22-3.23,1.1-2.92,4.59v.11l.79,3.47v.78l.36,1.61.07.14a10.51,10.51,0,0,1,.75,4v.17l.16.63c.22,1,.43,2,.58,2.86a8.86,8.86,0,0,1,0,2.54l0,.19,0,.2c0,.16,0,.27.07.38a7.62,7.62,0,0,1-.45,2.82,9.1,9.1,0,0,1-4.6,5.3l-1.34.11-.11,0a2.34,2.34,0,0,1-.71.08l-.23,0-.38,0a3.39,3.39,0,0,1-2.66-.48,11.25,11.25,0,0,1-2.84-2.57,14.18,14.18,0,0,1-2.17-3.74,20.86,20.86,0,0,1-1.27-3.95l-1.39-6.83-.19-.27h0s-.07-.2-.2-.84c-.61-3.08-.91-4.61-1.51-7.66a37.14,37.14,0,0,0-.59-3.94l-1.78-9.25a27.73,27.73,0,0,1-.81-4.23c-.44-2.39-.68-3.64-1.07-5.67l-.12-.65a44.14,44.14,0,0,1-1-5.39c-.66-3.5-1-5.21-1.73-8.39l0-.16-.07-.14a8.06,8.06,0,0,1-.49-1.46l-.09-.45a11.35,11.35,0,0,0-.34-1.44l-.12-.38a5,5,0,0,1-.28-1,17.23,17.23,0,0,0-.29-1.8c-.22-1-.37-1.71-.53-2.47l-.31-1.49a5.07,5.07,0,0,0-.25-.79l0-.11,0-.35a5.16,5.16,0,0,1-.08-.7,8.57,8.57,0,0,0-.1-1.15l-.36-1.77a1.91,1.91,0,0,1-.07-.48l.12-.37-.1-.25-.1-.52a3,3,0,0,0,0-.84c.17-1.35.27-2.11.45-3.46.76-2.37,2.42-3.69,5.21-4.13a7.14,7.14,0,0,0,.77-.13,7,7,0,0,1,1.32,0,14,14,0,0,1,2.44.43l.14.09.1,0a3.06,3.06,0,0,1,.73.43l1.13.9.13.1,2.09,3.83c.06.31.11.54.2.91l0,.12,0,.12a7.09,7.09,0,0,1,.38,1.23l.39,1.82.17.25a2.09,2.09,0,0,0,0,.85l.08.41c.39,1.83.61,2.87,1,4.85a3.16,3.16,0,0,0,1.93,2.3,5.09,5.09,0,0,0,2.55.32,4.43,4.43,0,0,0,1.8-.61,2,2,0,0,1,.37-.23,7.23,7.23,0,0,0,1-.55l.21-.06.25-.16c.16-.1.34-.22.57-.34a7.43,7.43,0,0,0,.71-.48,6.67,6.67,0,0,1,1-.67,13.52,13.52,0,0,1,1.47-.63,18.33,18.33,0,0,0,1.71-.72c1-.54,2.18-1.19,3.52-2l.09,0,.71-.34a1.91,1.91,0,0,0,.56-.25l1-.15.25-.37a4.08,4.08,0,0,0,1.74-1.73,5.62,5.62,0,0,0,.06-3.44c0-.18-.19-1-.19-1a6.5,6.5,0,0,0-.42-1.25c-.19-.93-.54-2.82-.54-2.82a6.27,6.27,0,0,0-.68-1.82,3.8,3.8,0,0,0-.66-1.42,11.73,11.73,0,0,1-.57-1.73c-.26-.81-.53-1.52-.84-2.31a11,11,0,0,0-1.39-2.45,1.86,1.86,0,0,0-.37-.52l-.4-.73-.36-.48-.27-.22a3.91,3.91,0,0,0-.92-1.27l-.07-.07c-.17-.26-.37-.55-.61-.86l-.63-.82-.19,0-.82-1-.65-.38c-.31-.27-.9-.83-.9-.83l-.2-.15-1.35-.87a18.21,18.21,0,0,0-1.65-.9c-.58-.25-1.17-.48-1.83-.7l-1.08-.26c-.57-.14-1.23-.3-2.05-.52s-1.8-.42-2.77-.61-1.93-.34-2.78-.45l-.65-.06a8,8,0,0,0-1.87.06l-.12,0c-.27,0-.55-.07-.83-.09a11.73,11.73,0,0,0-2.95.16l-1.45.09-5.08.85a3.26,3.26,0,0,0-1,.32l-1.47.23-.27.17a3.8,3.8,0,0,1-.79.25l-1.17.25-.16,0-.14,0-1,.38a10.06,10.06,0,0,0-1.06.42c-1.25.63-1.85.93-3.08,1.52a18.83,18.83,0,0,0-2.45,1.17,11.53,11.53,0,0,0-2.27,1.74,22.76,22.76,0,0,0-2.51,2.43,21.16,21.16,0,0,0-3.16,3.94,13.78,13.78,0,0,0-1.4,2.81,25.3,25.3,0,0,0-1.09,3l-.83,3.77v.11c0,.54-.06.83-.08,1.32a4.53,4.53,0,0,0,.12,3.16.88.88,0,0,0,0,.16c0,.3,0,.51,0,.87,0,.12,0,.21,0,.29l0,0,0,.76a4.49,4.49,0,0,1,0,.59,6.33,6.33,0,0,0,.1,1.18c0,.23.07.38.12.61l.08,1.51s.11.53.12.61q0,1,.12,2a9.11,9.11,0,0,0,.51,2.24l0,.19.32,1.58a8.19,8.19,0,0,0,.53,1.82s.56,2.79.8,4l0,.14.06.14a6.22,6.22,0,0,1,.41,1.59l.05.52a10.78,10.78,0,0,1,.06,1.38,8.29,8.29,0,0,0,.15,2c0,.24.08.48.11.72a10.9,10.9,0,0,0,.27,1.36q.08.28.18.6a7.8,7.8,0,0,1,.29,1.08c.14.66.26,1.31.37,2.05l1.19,5.63c.18,1.08.29,1.71.48,2.82a2.63,2.63,0,0,0,.24,1.48,2.06,2.06,0,0,1,.07.29l.17.94a16.58,16.58,0,0,0,.81,4.84l.21,1.18c0,.82.06,1.57.11,2.26a10.2,10.2,0,0,0,.52,2.43l.34,1a23.8,23.8,0,0,0,.71,4.19c.17,1,.27,1.56.43,2.6l.48,2.74a14.88,14.88,0,0,1,.15,1.54c0,.31,0,.61.08.89a5.36,5.36,0,0,0,.49,1.77,19.84,19.84,0,0,1,.18,2.1,12.91,12.91,0,0,0,.26,1.72l.13.69a15.43,15.43,0,0,0,.58,2.2l1.06,6.17.18.27a5.41,5.41,0,0,1,.2.87l.19.92.25.45a8.37,8.37,0,0,0,.46,1.55c0,.17.06.31.09.49a12.25,12.25,0,0,0,.52,2l.08.23a15.58,15.58,0,0,0,1.19,2.47h0a1.94,1.94,0,0,0,.34.77c0,.11.15,1,.15,1l.27.2a8.1,8.1,0,0,0,1.66,3.17,30.51,30.51,0,0,0,4.66,6.51c.55.52,1.08,1.1,1.72,1.8l.27.29.39.14a5,5,0,0,0,.78.65,9.89,9.89,0,0,0,2.19,1.51l.07.38,1,.12,1,.71.23.07a3.81,3.81,0,0,1,.89.38,5.73,5.73,0,0,0,1.8.81l4.29,1a14.51,14.51,0,0,0,1.77.42l2.85.45.31-.07,3.24-.12a7,7,0,0,0,1.33-.12l.63-.1c.67-.08,1.34-.12,1.9-.16s.83,0,1.1-.09l.62-.05a8.38,8.38,0,0,0,1.31-.16l1.74-.4,1.52-.35.13,0,.12-.06c.84-.33,1.66-.63,2.44-.9a10.26,10.26,0,0,0,2.39-1.09,5,5,0,0,0,1.32-.52,6.51,6.51,0,0,0,2.55-1.34c.56-.27,1-.52,1.43-.75a10.34,10.34,0,0,0,1.54-1.16,1.39,1.39,0,0,1,.52-.35l.26-.07.23-.14a21.18,21.18,0,0,0,5.45-5.55l.07-.09,1.46-2.86L1174,870c.32-.6.57-1.11.83-1.63a6.77,6.77,0,0,0,.66-2.14l0-.41,0-.11c.14-.67.27-1.36.39-2.06a18.25,18.25,0,0,0,.23-2.4l.05-.08.06-.37A25.68,25.68,0,0,0,1176.5,855.34Zm52,8.64a9.83,9.83,0,0,0-.63-3c-.19-.49-.41-1-.61-1.39l-.24-.51a12.56,12.56,0,0,0-1-1.87l-1.17-2.67c-.16-.34-.29-.64-.42-1l-.15-.34a3.24,3.24,0,0,1-.27-.88l0-.25-.3-.69c-.29-.66-.5-1.12-.82-1.89l-.07-.16-.1-.14A7.41,7.41,0,0,1,1222,848l-.73-1.77c-.31-.69-.47-1.07-.72-1.66l-.08-.17a12,12,0,0,0-1.27-3.1,6.86,6.86,0,0,1-.63-1.78c0-.18-.09-.34-.12-.47a12.17,12.17,0,0,0-.57-1.43l-.22-.5a16.75,16.75,0,0,0-.9-1.81c-.42-1-.63-1.57-1-2.59a12.47,12.47,0,0,1-.5-1.61l-.06-.24a11.51,11.51,0,0,0-.54-1.47l-.19-.45a16.67,16.67,0,0,0-.86-1.81c-.76-2-1.13-2.94-1.81-4.87a6.58,6.58,0,0,1-.46-1.53l0-.2-.06-.2a11.38,11.38,0,0,0-1.08-2.41,3.71,3.71,0,0,1-.34-1.08,11.62,11.62,0,0,0-1-2.87,14,14,0,0,1-1.29-3.87V810l0-.1c-.58-1.88-1-3.26-1.47-4.57-.51-1.53-1-3-1.59-5l-.64-2.08a31.22,31.22,0,0,1-1.34-4.55l-.74-2.76a18.73,18.73,0,0,0-1.44-5c-.4-1.65-.61-2.52-1-4.2-.06-.27-.1-.62-.14-1a10.4,10.4,0,0,0-.22-1.46l-.79-3.79a43.43,43.43,0,0,1-1.07-5.55c0-.15,0-.26-.06-.38l0-.16-.08-.3c-.15-.44-.22-.67-.36-1.11a.73.73,0,0,0,0-.22l-.36-2.08a10.88,10.88,0,0,1-.14-1.75v-.57l-.28-.34c-.16-.93-.25-1.5-.39-2.5-.21-1.28.19-1.62,1-1.84l1-.29.14-.07a8.41,8.41,0,0,1,1.65-.6,9,9,0,0,1,1-.23,8.56,8.56,0,0,0,1.43-.27l2.95-.85a9.07,9.07,0,0,1,1.82-.36l.25,0,.24-.1.33-.11c1-.27,2.48-1.21,3.14-3.88l.07-.25-.13-1.11.19-.27-.13-.66c-.35-1.85-.51-2.76-.83-4.59-.28-2.93-.42-4.46-.67-7.48,0-.23,0-.62,0-1.19a4.33,4.33,0,0,0-.93-2.84,2.74,2.74,0,0,0-2-1,3.29,3.29,0,0,0-1.32.18,7.34,7.34,0,0,0-1.27.53,6.17,6.17,0,0,0-1.23.27l-.81.27a14.57,14.57,0,0,0-1.71.73l-1.87.58-.92.29a10.42,10.42,0,0,1-1.36.27l-.11,0-.68.21c-3.12,1-4.85,1.48-8.12,2.44l-.22.06-.19.12a4.1,4.1,0,0,1-1.1.44l-1.06.3a2.29,2.29,0,0,1-.65.1h-.23l-1.41.41a9.84,9.84,0,0,0-1.81.67c-4.36,1.24-6.63,1.85-11,3a11.59,11.59,0,0,0-1.63.25l-2.67.7-.1,0a13.56,13.56,0,0,1-2.23.69l-1.68.44a8.88,8.88,0,0,1-1.82.31h-.19l-1.67.4a3.91,3.91,0,0,0-2.52,1.91,4.31,4.31,0,0,0-.61,2.86l0,.09,0,.1a28.5,28.5,0,0,1,.63,2.82c.14,1,.29,1.9.45,2.75l.22,1.36a5.47,5.47,0,0,1,0,.82c0,.37,0,.76,0,1.14a6.78,6.78,0,0,0,.33,1.52l.08.24a4.72,4.72,0,0,1,.21.88,16.75,16.75,0,0,0,.53,2l.06.22a3.31,3.31,0,0,0,2.1,2.25,2.93,2.93,0,0,0,1.36.1l.35.08.33-.05,5.23-1.14a13,13,0,0,0,2.1-.63l1.31-.3a6,6,0,0,0,1.46-.17l1.41-.31.17,0a.35.35,0,0,1,.19.09.83.83,0,0,1,.28.46v.16l.27,1.52.07.17a2.38,2.38,0,0,1,.19,1.54l-.08.35.09.34c.06.27.08.41.13.7a23.66,23.66,0,0,0,.6,2.34l.08.28a6.64,6.64,0,0,1,.23.93c.08.35.16.71.26,1a7.19,7.19,0,0,1,.27,1.64v.13l0,.13c.43,2.06.67,3.11,1.12,5.12a6.33,6.33,0,0,0,.83,3,10.17,10.17,0,0,0,.26,1.65l.42,1.68c.43,1.75.66,2.63,1.12,4.31a9.8,9.8,0,0,0,.28,1.6c.14.54.24.92.37,1.33l0,.26.08.13c.47,1.28.93,2.59,1.39,3.93a32.28,32.28,0,0,1,1.09,4.33l0,.1,0,.1c.35,1.1.56,1.7.89,2.67l.2.58.09.15a4.4,4.4,0,0,1,.41,1c2.55,9.1,4.1,14.09,7.53,24.29a4.72,4.72,0,0,1,.15.64,6.18,6.18,0,0,0,.76,2,27.86,27.86,0,0,1,1.86,5.39c.48,1.43.78,2.24,1.14,3.26l.51,1.43.05.08a20.5,20.5,0,0,1,1,2.21l.82,2.22c.39,1,.58,1.58,1,2.62.27.71.5,1.32.72,1.94a9.16,9.16,0,0,1,.49,1.7,6.89,6.89,0,0,0,.81,2.21l.56,1.53a6.93,6.93,0,0,0,.51,1,1.86,1.86,0,0,1,.24.4l.17.74a14,14,0,0,0,.67,2.46c.23.67.5,1.34.76,2l.36.95a5.94,5.94,0,0,0,2.49,3,5.1,5.1,0,0,0,2.34.79,4.59,4.59,0,0,0,1.43-.12l1-.24.28-.1a15.42,15.42,0,0,1,1.45-.67,14.68,14.68,0,0,1,1.5-.47,8.06,8.06,0,0,1,1.26-.21,11.86,11.86,0,0,1,1.33,0l.32,0,.29-.12c.67-.26,1-.38,1.68-.62l.28-.06,7.19-1.76A2.88,2.88,0,0,0,1228.53,864Zm45.54-12.92c-.34-.66-1.14-2.27-1.14-2.27l-1-1.72-.07-.08a12.14,12.14,0,0,1-1.13-1.65l-1.12-1.92c-2.63-4.57-3.82-6.73-6.09-11-.14-.26-.32-.58-.53-1a8.26,8.26,0,0,0-1-1.48,9.89,9.89,0,0,1-1-2.37,19.08,19.08,0,0,0-.93-2.21,12,12,0,0,0-1.45-2.23l-1.27-2.66-.17-.18a.64.64,0,0,1-.15-.27c-.06-.21-.14-.43-.22-.65a3.54,3.54,0,0,0-.51-1.65,8,8,0,0,1-.57-1.1,110,110,0,0,1-5.22-13.2c-.4-1.47-1-3.3-1.74-5.37a8.94,8.94,0,0,0-.39-1.82l-.39-1.42c-.39-1.34-.58-2-.92-3.32l-.38-1.49-.18,0c-.78-3-1.24-4.92-2-8.42a23.69,23.69,0,0,0-.79-3.71s0-.1,0-.26a17.88,17.88,0,0,1-.66-3.42,9.08,9.08,0,0,0-.35-2.86l-.11-.33a7.47,7.47,0,0,1-.59-2.66,5,5,0,0,0-.28-1.94,4.85,4.85,0,0,1-.29-1.44c0-.33,0-.62,0-.91s0-.78,0-1.13a7.18,7.18,0,0,0-.45-2.12l-.11-.83-.14-.26a1.19,1.19,0,0,1-.09-.87,7.17,7.17,0,0,0,0-2.73c-.14-.75-.33-1.68-.56-2.79a.44.44,0,0,1,0-.15,10.21,10.21,0,0,1-.1-2.23l0-.18,0-.17c-.2-1.8-.29-2.68-.45-4.48a13.35,13.35,0,0,0-.49-3.14,2,2,0,0,1-.11-1.15l.07-.26,0-.28c0-.15,0-.24,0-.4a5.63,5.63,0,0,1,0-.91c0-.23,0-.44,0-.63v-.23a8.39,8.39,0,0,0-.39-2.76,1.3,1.3,0,0,1-.06-.66,4.81,4.81,0,0,0-.09-2.53c0-.37,0-.63-.07-1.06s0-.49,0-.81,0-.76.06-1.13l0-.49c0-.42,0-.55,0-.79l-.12-2.46c0-.44,0-.8,0-1.19a7.25,7.25,0,0,0-.18-1.12l-.08-.35a2.51,2.51,0,0,0-2.62-2.07,7.91,7.91,0,0,0-1.63.09l-.28,0-.21.12a11.16,11.16,0,0,0-2.18,1l-11.11,4.11a12,12,0,0,1-1.53.46h-.29l-.22.1a5.66,5.66,0,0,0-3,2.32,6.84,6.84,0,0,0-.85,4.19l0,.46.18.23c0,.08,0,.22.05.44,0,0,.3,3.42.37,4.28a9,9,0,0,0,.36,3.45,5.51,5.51,0,0,1,.18,1.8l0,.59c0,.37.06.65.12,1.09l0,.21.09.2a2.15,2.15,0,0,1,.12,1.25l0,.22.21,1.81c.14,1.3.26,2.34.47,4a10.87,10.87,0,0,0,.48,2.29c.1.82.18,1.39.28,2.06l.17,1.19a3.5,3.5,0,0,1,0,.78l0,.26,0,.31c.68,4.07,1,6.14,1.86,10.3a14.32,14.32,0,0,0,.37,1.5,2.6,2.6,0,0,1,.12.91v.15l.23,1.23a6.73,6.73,0,0,0,.13,1.49,3.53,3.53,0,0,0,.26,1.52,5.55,5.55,0,0,1,.18.59l0,.11,0,.1a10.57,10.57,0,0,1,.46,1.51,12.8,12.8,0,0,0,.34,1.3l.28,1.43c1.51,6.57,2.35,9.71,4.23,15.76a6.39,6.39,0,0,0,.51,2.35c.28.73.66,1.61,1.14,2.69.48,1.44.8,2.32,1.31,3.73l.2.56a14.65,14.65,0,0,0,1.24,3.17l1.09,2.4c.56,1.42.87,2.19,1.48,3.66l.09.23c.19.4.34.72.5,1a5,5,0,0,0,1.07,3.1c1.24,2.84,1.91,4.36,3.25,7.28a11,11,0,0,0,1,2.78l.19.36a14.14,14.14,0,0,0,1.36,2.28,4.83,4.83,0,0,1,.82,1.73,8.39,8.39,0,0,0,1.64,3.3,10.09,10.09,0,0,1,.84,1.4,2.24,2.24,0,0,0,.12.29l.18.61.06.19c.07.16.12.27.18.38,2.5,4.92,3.71,7.26,6.15,11.84a11.44,11.44,0,0,0,.85,2,5.19,5.19,0,0,0,1.95,2.06,6.38,6.38,0,0,0,2.88,1.05,4.33,4.33,0,0,0,1.35-.12l3.76-1.19c.65-.08,1-.13,1.66-.23a6.19,6.19,0,0,0,1.88-.24c.28-.06.45-.1.72-.18l.5-.16.18-.24a7.57,7.57,0,0,0,1-.46l1.27-.33c.72,0,1.43-.11,2.1-.21a17.87,17.87,0,0,0,2-.39l.29-.07a2.65,2.65,0,0,0,1.81-1.38A3.64,3.64,0,0,0,1274.07,851.06Zm49.61-12.19c-.87-1.74-1.29-2.62-2-4l-.33-.68-.08-.11a4.22,4.22,0,0,1-.31-.47l-.45-.94-.38-.56-1.14-2.27a17.33,17.33,0,0,1-1-2.25l0-.14-.08-.13c-.19-.33-.32-.54-.48-.79l-.15-.23c-.39-1-.76-1.91-1.18-2.77a14.41,14.41,0,0,1-1.16-3l0-.16s-.63-1.28-.77-1.58l-.13-.57.3-.09-1-2.14a2.08,2.08,0,0,0-.16-.72,8.88,8.88,0,0,1-.36-1.16c-.11-.39-.22-.81-.36-1.23s-.26-1-.41-1.75l-.23-1.05c-.19-1.08-.32-1.95-.38-2.67l0-.22L1311,806a11.28,11.28,0,0,1-.53-2.17c-.13-.89-.32-2.25-.56-4l-.25-1.11c-.12-.46-.22-.87-.34-1.43l.09-.2-.12-.52c0-.19-.08-.32-.12-.46v0a12.41,12.41,0,0,0-.24-2.75,40.08,40.08,0,0,1-.84-8.09V785l0-.11c0-.26-.08-.4-.13-.63-.15-1.87-.23-3.28-.25-4.44v-.14l0-.14c0-.16-.06-.9-.1-2.18l-.3-3.61a6.34,6.34,0,0,0,0-2.17v-.09c0-.58,0-1.12,0-1.63a15,15,0,0,1,.2-2.42l0-.22,0-.22c-.08-.53-.12-.82-.18-1.28a7.3,7.3,0,0,0,0-1.59c0-.13,0-.64.09-1.08l0-.38a12.77,12.77,0,0,0,.08-1.38V761a14.91,14.91,0,0,0-.06-1.54c0-.21-.05-.34-.06-.46a3.18,3.18,0,0,0,.17-1.57,2.11,2.11,0,0,1,0-.45l0-.2,0-2.21,0-.33c0-.91.08-1.77.09-2.77l.12-3.15.37-2.33,0-.39,0-.39.08-.6,0-.39a6.28,6.28,0,0,0,.09-1.5,1.9,1.9,0,0,1,.07-.45l.09-.27,0-.28a8.12,8.12,0,0,1,0-1.21c0-.18.06-.43.11-.71.08-.5.18-1.1.23-1.73v-.33a2.16,2.16,0,0,1,0-.35,5.73,5.73,0,0,0,.06-.86v-.23l0-.24a7.85,7.85,0,0,0,.11-1.26,7.1,7.1,0,0,1,.12-1.29c.11-.65.19-1.28.24-1.85a11,11,0,0,1,.23-1.09l.15-.67a13.66,13.66,0,0,0,.35-3.24v-1.31c.21-1.12.39-1.89.5-2.32.14-.67.23-1.34.3-2a7.27,7.27,0,0,1,.16-.9c0-.21.09-.4.12-.58s0-.33,0-.54,0-.34,0-.53l.34-2.1v-.13c0-.33,0-.54,0-.79v-.26c.21-1,.33-1.48.55-2.42a7.61,7.61,0,0,0,.35-1.33c.06-.38.16-.88.3-1.52l.06-.41a19.28,19.28,0,0,1,1.07-5.17,5.56,5.56,0,0,0,.33-1.71,7.41,7.41,0,0,1,.23-1.09l0-.17v-.18c0-.43,0-.68.05-1.05a11.85,11.85,0,0,0,.67-2.11,18.4,18.4,0,0,0,.3-1.84l.05-.4a3.11,3.11,0,0,0-.52-2.51,2.78,2.78,0,0,0-2.05-1,6.22,6.22,0,0,0-1.69.16l-.12,0-.12,0c-2.16.87-3.24,1.3-5.38,2.18a6.6,6.6,0,0,1-1.49.52l-.22,0-.29.09-1.5.63-.13.06-.13.08a6.48,6.48,0,0,1-1.2.64l-6,2.49a6,6,0,0,0-2.59,2.52,8.6,8.6,0,0,0-1.17,2.94c-.13.77-.18,1.09-.27,1.77l0,1-.19.27,0,1.28a2.82,2.82,0,0,0-.2,1.06,3.66,3.66,0,0,1-.16,1l-.06.2v.21a11.06,11.06,0,0,1-.52,3l0,.17s0,.39,0,.49a9.06,9.06,0,0,1-.08,1.35c-.06.46-.15.91-.26,1.44l0,.16v1.08l-.15.4,0,.3v.26c0,.49-.08.73-.15,1.19l0,.24,0,.17-.17.47V723c-.11.69-.19,1.25-.24,1.66,0,.16,0,.31-.08.47a6.59,6.59,0,0,0-.16.92,6,6,0,0,0,0,1.12,4.23,4.23,0,0,1-.11,1.14l0,.2v.2a11.17,11.17,0,0,1-.1,1.86,21.75,21.75,0,0,0-.27,3.22,3.5,3.5,0,0,0-.13,1,2,2,0,0,1-.06.27l-.06.18s0,.28,0,.34l-.12.21,0,.48c0,.24,0,.41,0,.59a2.27,2.27,0,0,0-.13,1l-.06,2c0,.58,0,.89.06,1.36a26.7,26.7,0,0,0-.47,3.37l-.13,3.23,0,.42c0,.09,0,.42,0,.86s0,.64,0,1l0,1.18a9.43,9.43,0,0,0,0,1.41v.48a6.87,6.87,0,0,1-.08.91,14.68,14.68,0,0,0-.15,2c0,.24,0,.54,0,.9,0,.68,0,1.53,0,2.49a27.76,27.76,0,0,0,0,3l0,.34c0,.25,0,.52,0,.81,0,.49,0,1,0,1.52a14.05,14.05,0,0,1,0,1.43l0,.71a22.24,22.24,0,0,0,.07,2.63l0,.56.05.93c0,.92.1,1.88.22,2.81l.05.36c.08.58.18,1.28.22,2.08a22.66,22.66,0,0,1,.12,3.05,8.85,8.85,0,0,0,.07,2.27l.08.4c.06.32.12.66.21,1-.21-.6-.46-1.26-.78-2-.13-.54-.27-1.06-.41-1.51s-.43-1.14-.82-2a8.16,8.16,0,0,0-.57-1.91c-.2-.58-.38-1.13-.52-1.61s-.28-1.21-.46-2.24l-.1-.55-.19-.17,0-.15a10.6,10.6,0,0,1-.46-1.47l-.2-.76c-.13-.47-.28-1-.44-1.69l-.13-.46c-.15-.35-.27-.66-.37-1a4.85,4.85,0,0,1-.16-.76l0-.27-.12-.24a6.79,6.79,0,0,1-.53-1.31c-.12-.44-.27-.92-.44-1.4l-.34-2.72a6.7,6.7,0,0,0-.67-2.17l-.08-.17-.12-.15a.92.92,0,0,1-.15-.49,24.87,24.87,0,0,0-.46-2.57c-.18-.65-.32-1.23-.43-1.78s-.27-1.27-.45-1.94l-.78-3.28a2.22,2.22,0,0,0,0-.43l-.11-.73-.15-.09a27.47,27.47,0,0,0-.71-3.16c0-.41,0-.65-.08-1.09a4.51,4.51,0,0,0-.16-1,1.7,1.7,0,0,1-.1-.51v-.17l0-.17a10.33,10.33,0,0,1-.29-1.47,8.53,8.53,0,0,0-.21-1.13c0-.14-.09-.35-.16-.59a8.32,8.32,0,0,1-.33-1.41,23.16,23.16,0,0,0-.6-3.19,13.56,13.56,0,0,1-.3-1.84,8.23,8.23,0,0,0-.63-2.45,3,3,0,0,1-.27-1.28c0-.59,0-1.22-.05-2l0-.67a2.72,2.72,0,0,0-.2-.9v-1.75l-.28-.19-.07-.21a3.58,3.58,0,0,0-.25-1.1l-.17-1.39,0-.63-.18-.33a4.31,4.31,0,0,1-.33-2c0-.42,0-.59,0-.9v-.13l0-.14a3,3,0,0,0-2.82-2.81,6.33,6.33,0,0,0-3.1.76c-3.65,1.58-5.5,2.38-9.11,3.91l-1,.26-5.32,2.15a4.49,4.49,0,0,0-2.81,3.95,8.75,8.75,0,0,0,.17,1.78,14.83,14.83,0,0,0,.5,1.86l.06,1,.23.35a5.69,5.69,0,0,0,.51,2.11l0,.1.05.1a5.14,5.14,0,0,0,.24,1.24,12.46,12.46,0,0,0,.45,2.63l.74,2.8a7.48,7.48,0,0,0,.58,1.88,19.54,19.54,0,0,1,.71,3.88v.12l0,.13a2.69,2.69,0,0,0,.23.85l.11,1.29.2.14,0,.18.1.21a5.21,5.21,0,0,1,.42,1.19l.09.39c.1.42.21.87.34,1.35l.06.21.12.19a2.66,2.66,0,0,0,.35,1l.48,1.8c.17.58.31,1.12.42,1.65s.2,1.1.28,1.71a6.22,6.22,0,0,0,.67,2.11,5.91,5.91,0,0,1,.65,1.86,18.28,18.28,0,0,0,1.36,5.1c0,.19.14.84.14.84l.12.22a9.26,9.26,0,0,1,.67,1.7c.22.74.55,1.72,1,2.91l.13.83.2.29,0,.19a5.25,5.25,0,0,0,.51,1.47,8.14,8.14,0,0,1,.37,1.08c.16.62.46,1.53,1,2.85l.22.59.11.06c0,.12.6,1.61.6,1.61.06.31.1.52.18.85l0,.12.06.17c.24.62.46,1.16.65,1.6s.3.71.36.9a18.64,18.64,0,0,0,.83,2.28A5.63,5.63,0,0,0,1265,785a14.23,14.23,0,0,0,1.45,3.29l.18.71a1.9,1.9,0,0,0,.36.79l.59,2.17.38-.13c.21.41.41.83.6,1.28a19.72,19.72,0,0,1,.8,2.28,7.43,7.43,0,0,0,1.19,2.54l.87,1.43c.24.47.49,1,.71,1.55.08.18.16.41.24.63a9.41,9.41,0,0,0,.48,1.22,6.63,6.63,0,0,0,.38.71l.26.46a15.14,15.14,0,0,0,1.15,2,11,11,0,0,1,.91,1.45c.24.51.47,1.06.69,1.63l.33.9a7.58,7.58,0,0,0,1.15,1.84,15.07,15.07,0,0,1,1,1.39,9.42,9.42,0,0,1,.78,1.53l.34.75.37.48.07.17c.07.16.11.24.17.35l.08.13.1.12a7.7,7.7,0,0,1,.93,1.27,17,17,0,0,0,1,1.61,2.61,2.61,0,0,0,.54.71l.49.93.3.22.1.2a10.71,10.71,0,0,1,.84,1.27,8.28,8.28,0,0,0,1.23,1.6,7.32,7.32,0,0,1,.82,1.13l.17.27c.2.27.35.52.51.78s.31.51.48.77a17.29,17.29,0,0,0,1.08,1.48l.44.57a19.35,19.35,0,0,0,1.63,1.94l0,.06a7.79,7.79,0,0,0,1.11,1.49c.42.53.79,1,1.12,1.47s.78,1,1.19,1.52a5.16,5.16,0,0,0,.62.8,6,6,0,0,1,.36.5l.08.13.11.11a8.66,8.66,0,0,1,1.12,1.31,3,3,0,0,0,.61.66c.13.2.23.35.37.6l.63,1.08.23-.07a10.43,10.43,0,0,0,1.12,1.45,38.56,38.56,0,0,0,2.83,3.21,5.54,5.54,0,0,0,3.49,1.88,3.86,3.86,0,0,0,1.22-.11l1.17-.33a8.39,8.39,0,0,0,1.72-.24l2.42-.66a15.75,15.75,0,0,0,1.77-.63c.5-.2,1.11-.47,1.78-.8a2,2,0,0,1,.33,0,1.29,1.29,0,0,0,.38.06,4.56,4.56,0,0,0,1.65-.23l.43-.11,3.73-1.25a1.89,1.89,0,0,0,1.14-1C1324.44,841.38,1324.19,840.27,1323.68,838.87ZM1393.17,820l-.27-.53c-.43-.8-.85-1.46-1.16-1.94l-.21-.33a10.08,10.08,0,0,1-.57-1.14c-.13-.27-.26-.55-.4-.82a26,26,0,0,1-1-2.59l0-.08-.07-.16c-.12-.24-.18-.37-.29-.64l0-.11-.06-.1c-.43-.72-.84-1.49-1.22-2.29a13.47,13.47,0,0,1-.91-2.5c-.58-1.55-.84-2.25-1.34-3.67a2.34,2.34,0,0,1-.13-.54,2.65,2.65,0,0,0-1.25-1.89c-.24-.18-.66-.42-1.13-.69a3.29,3.29,0,0,0-1.4-.45,3.6,3.6,0,0,0-1.36.18l-.73.24-.22.16a4,4,0,0,1-1.4.4l-.13,0-.13.05a5.07,5.07,0,0,0-1,.49c-.22.14-.57.37-1.07.66l-.4.14a4.7,4.7,0,0,0-1.51.27c-.32.09-.69.21-1,.33l-1.14.38c-2.37.78-3.89,1.28-6.53,2.13l-1.47.47a8.39,8.39,0,0,0-1.18.54l-.42.21a.52.52,0,0,1-.28,0,1,1,0,0,1-.34-.09,9.23,9.23,0,0,1-2-2.43l-.23-.66c-.24-.69-.43-1.23-.71-2.09l-.27-.85-.32-1.55-.31-1c-.63-2.06-.92-3.11-1.5-5.26l0-.15-.06-.13a11.13,11.13,0,0,1-.68-2c-.06-.32-.12-.52-.22-.9l-.17-1.41c-.1-.49-.15-.69-.25-1.07l-.7-3.09-.14-.22a4.1,4.1,0,0,1-.26-.95c-.16-.74-.27-1.45-.37-2.17s-.21-1.58-.35-2.36c-.34-1.79-.5-2.7-.8-4.49l0-.15-.06-.15a3.57,3.57,0,0,1,.14-2.57,2,2,0,0,1,1.07-1.31l.49-.18a6.27,6.27,0,0,1,1.55-.45h.24l11.7-4.28a8.89,8.89,0,0,0,2.88-2,4.76,4.76,0,0,0,1.26-3.76c-.09-.75-.12-1.11-.17-1.84a34.65,34.65,0,0,1-.48-3.62c-.09-1.17-.2-2.62-.31-4.34l-.14-2.34a14.92,14.92,0,0,1,.06-2.2v-.45l0-.69c0-.54,0-.88.1-1.54l0-1.1,0-.29a6.69,6.69,0,0,0-.86-4.48,2.55,2.55,0,0,0-3.35-1.49c-1.11.46-1.86.75-2.71,1.09l-1.37.55a10.12,10.12,0,0,0-3,1.22h0l-3.31,1.33-3,1.35-1.82.83-1.23.49h-.07a.88.88,0,0,1-.49-.15,5.36,5.36,0,0,1-.35-1.52c0-.33,0-1.11,0-1.11l0-.14a19.44,19.44,0,0,1-.25-3.09,9.34,9.34,0,0,1,.1-1.77l0-.14,0-4.3a9.38,9.38,0,0,0-.17-4.12c0-.22,0-.39,0-.62a6,6,0,0,0,0-2.84c0-1.63.05-2.53.1-4.14a8.31,8.31,0,0,0,.24-1.77l0-1.12-.1-2,0-.94c.08-1.58.12-2.4.22-4a4.11,4.11,0,0,1,2.31-3.64l.38-.16a4.14,4.14,0,0,0,.89-.49,1.31,1.31,0,0,1,.36-.21.77.77,0,0,0,.23-.08,9.7,9.7,0,0,0,2-.59c.57-.22,1.42-.46,2.24-.68l1.89-.72,4.1-1.58c.79-.29,1.57-.62,2.32-1s1.28-.56,1.86-.78l2.77-1a26.43,26.43,0,0,0,4.2-1.54l.13-.06.12-.08a6.2,6.2,0,0,0,2.32-2.89l.07-.19.3-2.33V689a8.17,8.17,0,0,1,.13-2.1c.07-.32.15-.63.23-.93.12-.46.23-.89.29-1.27l.28-1.87.32-2a11,11,0,0,0,.15-1.8v-.28a6.18,6.18,0,0,1,.17-.91c0-.21.09-.42.12-.62a6.67,6.67,0,0,1,.41-1.46,7,7,0,0,0,.54-1.64,3.49,3.49,0,0,0-.3-2.46,2.3,2.3,0,0,0-2-1.12l-.54,0h-.3a7.33,7.33,0,0,0-1.65.13,20.7,20.7,0,0,0-2.77,1,8.57,8.57,0,0,1-1.4.6c-.3.09-.74.27-1.29.5l-1.14.46a19.12,19.12,0,0,1-2.25.66c-.85.22-1.5.37-2.12.48l-.12,0-3.25,1.09-.16.11a6.91,6.91,0,0,1-1.46.64,15.88,15.88,0,0,1-2.39.71l-.15,0-.15,0c-.51.17-.75.25-1.24.45a7.46,7.46,0,0,0-1.39.64l-.24.13a6.85,6.85,0,0,0-.79.37,1.94,1.94,0,0,1-.44.22l-4.48,1.49c-3.31,1.23-4.92,1.83-8.14,3.09a9.28,9.28,0,0,1-1.76.54l-.16,0-.15,0c-3.23,1.26-4.83,1.89-8,3.18l-1.69.88-.18.19a7.36,7.36,0,0,0-2.36,4.52l-.09,1.17c-.05.66-.1,1.25-.15,2.12a10.41,10.41,0,0,0,0,2.43,9.78,9.78,0,0,1-.21,3.35l0,.13v.14c-.08,1.33-.12,2.07-.17,3.33,0,0-.08,1.61-.09,2.15a7.8,7.8,0,0,1-.23,1.41l0,.16v.16a363.57,363.57,0,0,1,.18,3.3,5.34,5.34,0,0,0-.42,2.41c0,.45.11,1.05.22,1.81-.15,3.56-.19,5.42-.24,9.1v.21a25.14,25.14,0,0,0,.22,3.78c.1,6,.21,9.12.63,15.59a6.23,6.23,0,0,0,.06,2,8.89,8.89,0,0,1,.15,1.07l0,.53c.08,1,.13,1.62.22,2.7a11,11,0,0,0,0,2V754c.05.54.11,1.1.17,1.64l.14,1.48c.29,1.74.55,3.95.8,6.89.28,2.21.44,3.29.75,5.41l.09.58.21.18L1328,772a50.05,50.05,0,0,0,.87,5.51l.42,1.94c.25,1.1.48,2.14.69,3.15.14.72.24,1.16.38,1.79l0,.23a10.29,10.29,0,0,0,.33,2.2l.4,1.7a14.64,14.64,0,0,0,.66,2c.91,3.58,1.46,5.53,2.59,9.17a6.48,6.48,0,0,0,.38,1.74c.41,1,.59,1.45,1,2.32.17.54.29.88.54,1.55A13.43,13.43,0,0,0,1337,807a5.48,5.48,0,0,1,.4,1.24l0,.12,0,.12c1.25,3.29,1.94,4.94,3.35,8a27,27,0,0,0,1.19,2.87c.44.88.91,1.81,1.44,2.78l.17.33c.4.75.81,1.51,1.23,2.21a28.29,28.29,0,0,0,2,2.86,14.53,14.53,0,0,1,1.33,1.85c.15.27.34.65.54,1.05.28.56.59,1.18,1,1.79a7.66,7.66,0,0,0,2.65,2.56,4.53,4.53,0,0,0,2.14.75,3.58,3.58,0,0,0,1.13-.09,12.78,12.78,0,0,0,2.6-.56c1.62-.59,2.38-.87,3.94-1.41l6.85-2.12a5.07,5.07,0,0,0,1.47-.67l1.08-.33.94,0,.38-.15,1-.09.18-.05c1.27-.41,1.94-.61,3.17-1l.27-.08c1.8-.66,2.73-1,4.62-1.55l2.47-.68a7.45,7.45,0,0,0,1.87-.32l5-1.43a2.91,2.91,0,0,0,1.89-1.49A4.4,4.4,0,0,0,1393.17,820Zm-494.9-7.43c0-.87,0-1.44,0-2.13h-.12l0-1.4v-.55a1.81,1.81,0,0,1-.17-.72.92.92,0,0,1,0-.16c-.4-2-.51-2.63-.53-2.93a9.69,9.69,0,0,0-.95-2.54c-.06-.14-.1-.22-.15-.35-.73-1.16-1-1.52-1-1.53a6.3,6.3,0,0,0-1.43-.74l-.15,0-.43-.2a6.2,6.2,0,0,0-1.85-.53l-1.15-.1a5.45,5.45,0,0,0-1.07,0,16,16,0,0,0-2.1.49,4.46,4.46,0,0,0-1,.48,2.86,2.86,0,0,0-.52.41,9.1,9.1,0,0,0-2.22,4.1,5.76,5.76,0,0,0-.35,1.46,8.75,8.75,0,0,1-.44,2,6.22,6.22,0,0,1-.35,1.61,3.13,3.13,0,0,1,0,1.4,4.69,4.69,0,0,0,0,.87l0,1.77a9,9,0,0,0,.16,1.52l0,.13v4.33c0,.81,0,1.59,0,2.32,0,.56,0,1.14.09,1.71,0,.41.06.81.08,1.18a11.92,11.92,0,0,1-.17,2.92l0,2.69c0,.73,0,1.5.08,2.29a9.52,9.52,0,0,1-.27,2.89l0,9,.17,5.37,0,.15a12.27,12.27,0,0,0,0,3.92l0,.21V854l0,.13,0,.23a25.07,25.07,0,0,0,0,6l0,1.49c0,.23,0,1.27,0,1.27a6.52,6.52,0,0,1-.23,1.62,6.22,6.22,0,0,0-.06,1.81c.07.81.09,1.61.09,2.44v.59c0,.43.08.67.13,1l.05.37v.35a5.71,5.71,0,0,0,0,.61,28,28,0,0,0,0,4.49l0,.3,0,.23a11,11,0,0,0,.32,3.49l0,.18s0,.59,0,.68a7,7,0,0,1,.36,2,7.82,7.82,0,0,0,5.94,6.5l.72,0a12,12,0,0,0,1.81-.08l1-.08a4,4,0,0,0,2.68-1,8.26,8.26,0,0,0,1.74-3,17.49,17.49,0,0,0,.83-4.19c.07-.81.09-1.62.11-2.37s0-1.41.09-2l.09-.63a9.6,9.6,0,0,0,.1-1s0-1.47,0-1.83c0-10.48.06-15.8.1-26.34V847l0-.18a6.6,6.6,0,0,0-.2-2.07l0-.15,0-1.92,0-.2a7.71,7.71,0,0,0,.16-3.4l0-.13,0-8.5c0-.86,0-1.7-.08-2.49a14.06,14.06,0,0,1,.1-2.83v-.39l0-.64a35.44,35.44,0,0,1,.07-6.91c0-.15,0-.32.07-.51a5.37,5.37,0,0,0,.11-1.09l0-.22A27.35,27.35,0,0,1,898.27,812.58Z"/></g></g></svg>