<svg width="32" height="32" viewBox="0 0 32 32" fill="none" xmlns="http://www.w3.org/2000/svg">
<path d="M17.3325 2.66655C14.1797 2.36377 11.0221 3.19326 8.42507 5.00645C5.82808 6.81964 3.96138 9.49812 3.15927 12.5622C2.35715 15.6263 2.67201 18.8759 4.04745 21.729C5.4229 24.5821 7.76909 26.8523 10.6659 28.1332C12.3435 28.8919 14.1583 29.3002 15.9992 29.3332C18.9299 29.3335 21.7789 28.3681 24.1059 26.5866C24.3867 26.3724 24.5711 26.0556 24.6186 25.7056C24.6661 25.3557 24.5728 25.0011 24.3592 24.7199C24.2531 24.5789 24.12 24.4604 23.9677 24.3713C23.8155 24.2821 23.647 24.2241 23.4721 24.2005C23.2973 24.177 23.1194 24.1883 22.949 24.234C22.7786 24.2797 22.6189 24.3587 22.4792 24.4666C21.0964 25.5111 19.4799 26.203 17.7695 26.4823C16.0592 26.7617 14.3065 26.6201 12.6632 26.0698C11.0199 25.5196 9.53539 24.5772 8.33813 23.3243C7.14088 22.0713 6.26694 20.5455 5.79192 18.8789C5.3169 17.2123 5.25511 15.455 5.6119 13.7591C5.96869 12.0633 6.7333 10.4798 7.83959 9.1459C8.94589 7.81196 10.3605 6.76765 11.9612 6.10333C13.5618 5.43901 15.3001 5.17468 17.0259 5.33322C19.7042 5.64321 22.1723 6.93541 23.953 8.95989C25.7336 10.9844 26.7003 13.5973 26.6659 16.2932V17.1999C26.6643 17.5062 26.6011 17.8091 26.4799 18.0904C26.3588 18.3717 26.1821 18.6257 25.9606 18.8373C25.7391 19.0489 25.4772 19.2136 25.1906 19.3217C24.904 19.4298 24.5986 19.4791 24.2925 19.4666C23.6822 19.3995 23.1199 19.1036 22.7191 18.6385C22.3182 18.1733 22.1086 17.5735 22.1325 16.9599V11.1999C22.1325 10.8463 21.9921 10.5071 21.742 10.2571C21.492 10.007 21.1528 9.86655 20.7992 9.86655C20.4737 9.86379 20.1584 9.98023 19.9127 10.1939C19.6671 10.4076 19.5082 10.7038 19.4659 11.0266C18.225 9.85799 16.5837 9.2091 14.8792 9.21322C13.7208 9.2219 12.5839 9.52698 11.5767 10.0994C10.5695 10.6718 9.72566 11.4925 9.12543 12.4833C8.5252 13.4742 8.18859 14.6022 8.14766 15.7599C8.10672 16.9176 8.36283 18.0666 8.89158 19.0973C9.42034 20.1281 10.2041 21.0063 11.1684 21.6484C12.1326 22.2905 13.2451 22.6752 14.4 22.7656C15.555 22.8561 16.7138 22.6494 17.7663 22.1653C18.8187 21.6812 19.7297 20.9357 20.4125 19.9999C20.7996 20.5986 21.3151 21.1036 21.9216 21.4781C22.5282 21.8527 23.2106 22.0875 23.9192 22.1653C24.6279 22.2432 25.345 22.1623 26.0184 21.9284C26.6918 21.6945 27.3047 21.3136 27.8125 20.8132C28.3013 20.3482 28.6886 19.7872 28.9502 19.1654C29.2118 18.5436 29.3419 17.8744 29.3325 17.1999V16.2932C29.3624 12.9425 28.1542 9.69876 25.9396 7.18403C23.7251 4.6693 20.6601 3.06064 17.3325 2.66655V2.66655ZM14.9059 20.1199C14.091 20.1199 13.2945 19.8783 12.6169 19.4255C11.9394 18.9728 11.4113 18.3294 11.0995 17.5765C10.7877 16.8237 10.7061 15.9953 10.865 15.1961C11.024 14.3969 11.4164 13.6628 11.9926 13.0866C12.5688 12.5104 13.3029 12.118 14.1021 11.9591C14.9013 11.8001 15.7297 11.8817 16.4825 12.1935C17.2354 12.5053 17.8788 13.0334 18.3315 13.7109C18.7842 14.3885 19.0259 15.185 19.0259 15.9999C19.0224 17.0915 18.5872 18.1374 17.8153 18.9093C17.0434 19.6812 15.9975 20.1164 14.9059 20.1199V20.1199Z" fill="black"/>
</svg>
