<svg width="32" height="32" viewBox="0 0 32 32" fill="none" xmlns="http://www.w3.org/2000/svg">
<path d="M12.3858 27.9999C11.2843 27.9946 10.1948 27.7702 9.18071 27.3399C8.16666 26.9096 7.24833 26.2818 6.47918 25.4932C5.7158 24.7697 5.10258 23.9027 4.67462 22.942C4.24666 21.9812 4.01235 20.9455 3.98511 19.894C3.95786 18.8426 4.13821 17.7961 4.51584 16.8145C4.89347 15.8329 5.46096 14.9353 6.18585 14.1732L15.9992 4.26655C16.5232 3.74345 17.1479 3.33198 17.8354 3.05699C18.5228 2.78199 19.2589 2.64917 19.9992 2.66655C20.7921 2.66925 21.5766 2.8298 22.3069 3.13884C23.0371 3.44788 23.6985 3.89922 24.2525 4.46655C25.3552 5.5282 25.9946 6.9819 26.0321 8.51212C26.0695 10.0423 25.5019 11.5256 24.4525 12.6399L14.5858 22.5465C14.2698 22.8647 13.8938 23.1169 13.4795 23.2886C13.0652 23.4603 12.621 23.5479 12.1725 23.5465C11.6881 23.5472 11.2084 23.4508 10.7619 23.263C10.3153 23.0752 9.9109 22.7999 9.57251 22.4532C8.89615 21.7984 8.50555 20.903 8.48557 19.9618C8.4656 19.0206 8.81787 18.1095 9.46585 17.4265L18.5725 8.27988C18.8317 8.10775 19.1429 8.03168 19.4523 8.06484C19.7616 8.09799 20.0496 8.23829 20.2664 8.46143C20.4833 8.68457 20.6152 8.97651 20.6394 9.28669C20.6637 9.59687 20.5787 9.90577 20.3992 10.1599L11.2925 19.3065C11.1407 19.4895 11.0667 19.7248 11.0867 19.9617C11.1066 20.1986 11.2189 20.4182 11.3992 20.5732C11.5868 20.7621 11.8397 20.8719 12.1058 20.8799C12.2044 20.8813 12.3023 20.8632 12.3938 20.8266C12.4854 20.7899 12.5688 20.7356 12.6392 20.6665L22.4925 10.7599C23.0456 10.1455 23.3347 9.33806 23.2972 8.51222C23.2598 7.68637 22.8989 6.90843 22.2925 6.34655C21.7293 5.7618 20.9634 5.41516 20.1524 5.37796C19.3413 5.34076 18.5469 5.61582 17.9325 6.14655L8.07918 15.9999C7.60004 16.5145 7.22739 17.1188 6.98268 17.778C6.73797 18.4372 6.62603 19.1383 6.65329 19.8409C6.68055 20.5435 6.84648 21.2338 7.14154 21.8721C7.43659 22.5103 7.85494 23.0839 8.37251 23.5599C8.89155 24.0979 9.51261 24.5272 10.1994 24.8225C10.8862 25.1178 11.6249 25.2733 12.3725 25.2799C13.0171 25.2851 13.6563 25.163 14.2535 24.9204C14.8507 24.6779 15.3941 24.3197 15.8525 23.8665L25.7058 13.9599C25.8293 13.8356 25.976 13.7368 26.1376 13.6692C26.2993 13.6015 26.4726 13.5664 26.6478 13.5658C26.823 13.5652 26.9966 13.5991 27.1587 13.6656C27.3208 13.732 27.4682 13.8298 27.5925 13.9532C27.7168 14.0767 27.8156 14.2234 27.8832 14.385C27.9509 14.5466 27.986 14.72 27.9866 14.8952C27.9872 15.0704 27.9533 15.244 27.8868 15.4061C27.8204 15.5682 27.7226 15.7156 27.5992 15.8399L17.7458 25.7465C17.0463 26.4585 16.2122 27.0243 15.292 27.4112C14.3719 27.798 13.384 27.9981 12.3858 27.9999V27.9999Z" fill="black"/>
</svg>
