<svg width="23" height="16" viewBox="0 0 23 16" fill="none" xmlns="http://www.w3.org/2000/svg">
<rect x="0.5" y="0.5" width="22" height="15" rx="2" fill="white" stroke="#D9D9D9"/>
<path fill-rule="evenodd" clip-rule="evenodd" d="M16.8406 7.96666C16.8406 10.8938 14.468 13.2667 11.5413 13.2667C8.61453 13.2667 6.24194 10.8938 6.24194 7.96666C6.24194 5.03955 8.61453 2.66666 11.5413 2.66666C14.468 2.66666 16.8406 5.03955 16.8406 7.96666ZM12.8144 5.99755C13.5515 6.25072 14.0908 6.62981 13.985 7.33531C13.9081 7.85192 13.6207 8.10177 13.2389 8.18926C13.7628 8.46098 13.9413 8.97668 13.7754 9.60025C13.4604 10.4976 12.7116 10.5732 11.7156 10.3856L11.4738 11.3502L10.89 11.2051L11.1285 10.2534C10.9772 10.2159 10.8225 10.1758 10.6631 10.1331L10.4236 11.0894L9.84049 10.9443L10.082 9.97768L8.90607 9.6821L9.19614 9.01604C9.19614 9.01604 9.62659 9.1297 9.6206 9.12141C9.78593 9.16217 9.85945 9.05481 9.88839 8.98356L10.5437 6.36537C10.551 6.24177 10.5081 6.08602 10.2716 6.02704C10.2806 6.02074 9.84747 5.92199 9.84747 5.92199L10.0028 5.30067L11.1804 5.59128L11.4199 4.6356L12.0034 4.78074L11.7689 5.71754C11.9259 5.75299 12.0836 5.78911 12.2369 5.82722L12.4698 4.89639L13.0536 5.04153L12.8144 5.99755ZM11.4174 7.59166C11.8151 7.6971 12.6805 7.92655 12.8313 7.32494C12.9852 6.70941 12.1445 6.52351 11.7328 6.43249L11.7328 6.43249C11.6862 6.42217 11.645 6.41308 11.6115 6.40472L11.3207 7.56651C11.3484 7.57336 11.381 7.58199 11.4174 7.59166ZM10.9669 9.46213C11.4432 9.58761 12.485 9.86205 12.6507 9.19912C12.8204 8.52131 11.8103 8.29554 11.3175 8.18538L11.3175 8.18537C11.2625 8.17307 11.2139 8.1622 11.1741 8.15231L10.8534 9.43274C10.8859 9.4408 10.924 9.45083 10.9666 9.46205L10.9668 9.4621L10.9669 9.46213Z" fill="#F7931A"/>
</svg>
