<svg width="24" height="24" viewBox="0 0 24 24" fill="none" xmlns="http://www.w3.org/2000/svg">
<path d="M19 20H5C4.73478 20 4.48043 20.1054 4.29289 20.2929C4.10536 20.4804 4 20.7348 4 21C4 21.2652 4.10536 21.5196 4.29289 21.7071C4.48043 21.8946 4.73478 22 5 22H19C19.2652 22 19.5196 21.8946 19.7071 21.7071C19.8946 21.5196 20 21.2652 20 21C20 20.7348 19.8946 20.4804 19.7071 20.2929C19.5196 20.1054 19.2652 20 19 20Z" fill="black"/>
<path d="M5.0003 18H5.0903L9.2603 17.62C9.71709 17.5745 10.1443 17.3732 10.4703 17.05L19.4703 8.04998C19.8196 7.68095 20.0084 7.18849 19.9953 6.68052C19.9822 6.17254 19.7682 5.69049 19.4003 5.33998L16.6603 2.59998C16.3027 2.26408 15.8341 2.07134 15.3436 2.05843C14.8532 2.04553 14.3751 2.21335 14.0003 2.52998L5.0003 11.53C4.67706 11.8559 4.4758 12.2832 4.4303 12.74L4.0003 16.91C3.98683 17.0564 4.00583 17.2041 4.05596 17.3424C4.10608 17.4806 4.1861 17.6062 4.2903 17.71C4.38374 17.8027 4.49455 17.876 4.61639 17.9258C4.73823 17.9755 4.86869 18.0007 5.0003 18ZM15.2703 3.99998L18.0003 6.72998L16.0003 8.67998L13.3203 5.99998L15.2703 3.99998Z" fill="black"/>
</svg>
