<svg width="32" height="32" viewBox="0 0 32 32" fill="none" xmlns="http://www.w3.org/2000/svg">
<path d="M25.3327 5.33337H6.66602C5.60515 5.33337 4.58773 5.7548 3.83759 6.50495C3.08744 7.25509 2.66602 8.27251 2.66602 9.33337V22.6667C2.66602 23.7276 3.08744 24.745 3.83759 25.4951C4.58773 26.2453 5.60515 26.6667 6.66602 26.6667H25.3327C26.3935 26.6667 27.411 26.2453 28.1611 25.4951C28.9113 24.745 29.3327 23.7276 29.3327 22.6667V9.33337C29.3327 8.27251 28.9113 7.25509 28.1611 6.50495C27.411 5.7548 26.3935 5.33337 25.3327 5.33337V5.33337ZM25.3327 8.00004L16.666 13.96C16.4633 14.0771 16.2334 14.1387 15.9993 14.1387C15.7653 14.1387 15.5354 14.0771 15.3327 13.96L6.66602 8.00004H25.3327Z" fill="black"/>
</svg>
