<svg width="40" height="40" viewBox="0 0 40 40" fill="none" xmlns="http://www.w3.org/2000/svg">
<path d="M20.4933 15.23C22.8496 15.23 24.76 17.1401 24.76 19.4967C24.76 21.853 22.8496 23.7634 20.4933 23.7634C18.1367 23.7634 16.2266 21.853 16.2266 19.4967C16.2266 17.1401 18.1367 15.23 20.4933 15.23V15.23Z" fill="white"/>
<path fill-rule="evenodd" clip-rule="evenodd" d="M19.3452 9.0032C19.5681 9.00285 19.808 9.00296 20.0668 9.00307L20.4934 9.0032C23.9111 9.0032 24.3161 9.01547 25.6658 9.0768C26.9138 9.13387 27.5911 9.3424 28.0423 9.51761C28.6397 9.74961 29.0655 10.0269 29.5133 10.4749C29.9613 10.923 30.2386 11.3496 30.4711 11.947C30.6463 12.3976 30.8552 13.075 30.912 14.323C30.9733 15.6723 30.9866 16.0777 30.9866 19.4937C30.9866 22.9097 30.9733 23.3151 30.912 24.6644C30.8549 25.9124 30.6463 26.5898 30.4711 27.0405C30.2391 27.6378 29.9613 28.0631 29.5133 28.5109C29.0653 28.9589 28.6399 29.2362 28.0423 29.4682C27.5917 29.6442 26.9138 29.8522 25.6658 29.9093C24.3164 29.9706 23.9111 29.984 20.4934 29.984C17.0755 29.984 16.6705 29.9706 15.3211 29.9093C14.0731 29.8517 13.3958 29.6431 12.9443 29.4679C12.347 29.2359 11.9203 28.9586 11.4723 28.5106C11.0243 28.0626 10.7469 27.637 10.5144 27.0394C10.3392 26.5887 10.1304 25.9114 10.0736 24.6634C10.0123 23.314 10 22.9087 10 19.4905C10 16.0723 10.0123 15.6691 10.0736 14.3198C10.1307 13.0718 10.3392 12.3944 10.5144 11.9432C10.7464 11.3459 11.0243 10.9192 11.4723 10.4712C11.9203 10.0232 12.347 9.74587 12.9443 9.51334C13.3955 9.33734 14.0731 9.12933 15.3211 9.072C16.5019 9.01867 16.9595 9.00267 19.3452 9V9.0032ZM27.326 11.1286C26.478 11.1286 25.79 11.8158 25.79 12.664C25.79 13.512 26.478 14.2001 27.326 14.2001C28.1741 14.2001 28.8621 13.512 28.8621 12.664C28.8621 11.816 28.1741 11.128 27.326 11.128V11.1286ZM13.92 19.4966C13.92 15.8666 16.8631 12.9234 20.4932 12.9232C24.1233 12.9232 27.0658 15.8665 27.0658 19.4966C27.0658 23.1268 24.1236 26.0687 20.4934 26.0687C16.8633 26.0687 13.92 23.1268 13.92 19.4966Z" fill="white"/>
</svg>
