<svg width="23" height="16" viewBox="0 0 23 16" fill="none" xmlns="http://www.w3.org/2000/svg">
<rect x="0.5" y="0.5" width="22" height="15" rx="2" fill="white" stroke="#D9D9D9"/>
<path fill-rule="evenodd" clip-rule="evenodd" d="M16.8957 12.5615C16.8957 12.8033 16.8011 13.0351 16.6326 13.206C16.4641 13.3769 16.2356 13.4729 15.9974 13.4729H7.00471C6.88666 13.473 6.76973 13.4496 6.66062 13.4038C6.55151 13.3581 6.45235 13.291 6.36883 13.2063C6.2853 13.1217 6.21904 13.0212 6.17383 12.9105C6.12862 12.7999 6.10535 12.6813 6.10535 12.5615V3.43897C6.10535 3.3192 6.12862 3.20061 6.17383 3.08997C6.21904 2.97933 6.2853 2.87881 6.36883 2.79417C6.45235 2.70953 6.55151 2.64242 6.66062 2.59668C6.76973 2.55094 6.88666 2.52747 7.00471 2.5276H15.9968C16.235 2.5276 16.4635 2.62362 16.632 2.79454C16.8005 2.96545 16.8951 3.19726 16.8951 3.43897L16.8957 12.5615Z" fill="#EDAA00"/>
<path d="M12.1302 8.1184V6.15834L12.6347 6.03717V6.29381C12.6347 6.29381 12.7652 5.95598 13.0682 5.87748C13.1615 5.85366 13.2084 5.86795 13.2084 5.86795V6.36796C13.1176 6.36922 13.0279 6.3882 12.9442 6.42388C12.7572 6.49866 12.6633 6.66229 12.6633 6.91084V7.99309L12.1302 8.1184ZM9.47171 8.75574C9.47171 8.75574 9.39004 8.63146 9.39004 8.18986V7.21408L9.13033 7.27622V6.87459L9.39024 6.81246V6.37417L9.9266 6.24575V6.683L10.3055 6.59186V6.99369L9.9266 7.08504V8.07926C9.9266 8.531 10.0448 8.61779 10.0448 8.61779L9.47171 8.75574ZM10.3615 7.58981C10.3615 7.24121 10.4105 6.98707 10.5154 6.79195C10.6402 6.56038 10.8454 6.40959 11.1439 6.34062C11.7321 6.20495 11.9442 6.55831 11.9358 7.03181C11.9332 7.20103 11.9338 7.28367 11.9338 7.28367L10.8974 7.53078V7.54776C10.8974 7.87917 10.966 8.03597 11.1726 7.99123C11.3511 7.95311 11.4007 7.83961 11.4148 7.69959C11.4172 7.6766 11.4181 7.61922 11.4181 7.61922L11.9038 7.50116C11.9038 7.50116 11.905 7.54155 11.9038 7.5865C11.8993 7.77478 11.8454 8.24164 11.1706 8.4032C10.5316 8.5571 10.3609 8.16107 10.3609 7.58981H10.3615ZM11.1647 6.70558C10.993 6.74514 10.9029 6.91602 10.8993 7.19917L11.4207 7.07323C11.4217 7.06039 11.4217 7.03181 11.4217 6.98789C11.4207 6.77434 11.3556 6.66167 11.1649 6.70558H11.1647ZM15.0227 6.44356C15.0023 5.84661 15.155 5.3727 15.8114 5.2215C16.2303 5.12498 16.389 5.23517 16.4694 5.34184C16.5468 5.44375 16.5766 5.58108 16.5766 5.7735V5.80912L16.0625 5.9334V5.8607C16.0625 5.63286 16.0013 5.54586 15.8379 5.58729C15.6438 5.63679 15.5654 5.82362 15.5654 6.19563V6.36899C15.5654 6.747 15.6164 6.92016 15.84 6.87252C16.0343 6.8311 16.0609 6.65877 16.0646 6.50715C16.0646 6.48333 16.066 6.4071 16.066 6.4071L16.5793 6.28448V6.36547C16.5778 6.86092 16.3204 7.17327 15.8377 7.2872C15.1736 7.44544 15.0433 7.05542 15.0229 6.44356H15.0227ZM13.247 7.27912C13.247 6.82509 13.5096 6.68155 13.9042 6.51605C14.2589 6.36713 14.2664 6.29318 14.2681 6.16394C14.2699 6.05519 14.2203 5.96178 14.0435 6.00755C13.8812 6.04898 13.8381 6.1687 13.8295 6.26398C13.8265 6.29744 13.8254 6.33105 13.8262 6.36464L13.3287 6.48374C13.3253 6.38314 13.3369 6.2826 13.363 6.18548C13.4426 5.91393 13.6788 5.73124 14.0859 5.63576C14.6152 5.51148 14.7918 5.74761 14.7926 6.11422V6.9823C14.7926 7.40215 14.8693 7.46346 14.8693 7.46346L14.3808 7.5809C14.3538 7.52359 14.3318 7.46399 14.315 7.40277C14.315 7.40277 14.2082 7.67598 13.8395 7.76421C13.4516 7.85659 13.2474 7.61342 13.2474 7.27932L13.247 7.27912ZM14.2652 6.65939C14.1828 6.71797 14.0958 6.76958 14.0051 6.8137C13.8418 6.89469 13.7685 6.99411 13.7685 7.14738C13.7685 7.28015 13.8501 7.36756 13.9971 7.33028C14.1554 7.29009 14.2652 7.14034 14.2652 6.93259V6.65939ZM6.66805 10.1296C6.61229 10.1295 6.5576 10.1141 6.50972 10.0851C6.46185 10.0562 6.42256 10.0146 6.396 9.96487C6.36944 9.91513 6.35659 9.85906 6.3588 9.80254C6.361 9.74602 6.37819 9.69114 6.40855 9.6437L6.41181 9.63935L6.41773 9.6379L7.14662 9.46329V10.0252L7.13519 10.0279C6.96981 10.0683 6.77217 10.1141 6.73134 10.1226C6.71043 10.1273 6.68906 10.1297 6.66764 10.1296H6.66805ZM6.66805 10.8486C6.58613 10.8486 6.50756 10.8156 6.44954 10.757C6.39152 10.6983 6.3588 10.6187 6.35853 10.5356C6.3582 10.4749 6.37561 10.4155 6.40855 10.3649L6.41181 10.3593L6.41773 10.3581L7.14662 10.1835V10.7454L7.13519 10.7485C6.96981 10.7887 6.77217 10.8353 6.73134 10.8434C6.71036 10.8476 6.68902 10.8496 6.66764 10.8496L6.66805 10.8486ZM6.66805 11.5688C6.58594 11.5687 6.50721 11.5356 6.44917 11.4766C6.39113 11.4177 6.35852 11.3378 6.35853 11.2545C6.3582 11.1939 6.37561 11.1345 6.40855 11.0839L6.41181 11.0781L7.14682 10.9024V11.4644L7.13539 11.4673C6.96083 11.5099 6.76666 11.5545 6.73154 11.5625C6.71054 11.5666 6.68922 11.5687 6.66784 11.5688" fill="#231F20"/>
<path d="M6.58236 9.44095L6.58215 6.29694L7.14709 6.16148V9.30528L6.58236 9.44095Z" fill="#231F20"/>
<path d="M7.9896 9.17353C7.9874 9.08121 7.9497 8.99343 7.88456 8.92893C7.81942 8.86442 7.732 8.82831 7.64098 8.82831C7.54995 8.82831 7.46253 8.86442 7.3974 8.92893C7.33226 8.99343 7.29456 9.08121 7.29236 9.17353V12.1123C7.29279 12.3661 7.39234 12.6093 7.56922 12.7888C7.74609 12.9683 7.98587 13.0693 8.23603 13.0698C8.49982 13.0698 9.22258 13.0686 9.22258 13.0686V10.4755C9.22271 10.3993 9.20427 10.3242 9.1689 10.257C9.13353 10.1897 9.08233 10.1324 9.01984 10.0901L8.14028 9.48402V10.8602C8.14081 10.8705 8.13926 10.8808 8.13574 10.8905C8.13222 10.9001 8.1268 10.909 8.1198 10.9165C8.1128 10.924 8.10437 10.9299 8.09502 10.934C8.08568 10.9381 8.07562 10.9402 8.06545 10.9402C8.05528 10.9402 8.04522 10.9381 8.03587 10.934C8.02653 10.9299 8.0181 10.924 8.0111 10.9165C8.0041 10.909 7.99867 10.9001 7.99515 10.8905C7.99163 10.8808 7.99009 10.8705 7.99062 10.8602C7.99062 10.8455 7.98878 9.35518 7.98878 9.17353H7.9896ZM8.46041 6.98107C8.3536 7.00612 8.25336 7.05424 8.16655 7.12215C8.07973 7.19007 8.00837 7.27618 7.95734 7.37462V7.15444L7.44875 7.27665V8.68781C7.53796 8.65211 7.63515 8.64209 7.72962 8.65886C7.82408 8.67564 7.91214 8.71856 7.98409 8.78289V7.87152C7.98409 7.65341 8.09148 7.47901 8.2442 7.44483C8.35955 7.41915 8.45551 7.46099 8.45551 7.66874V8.9983L8.99105 8.87071V7.46451C8.99105 7.12337 8.86202 6.88455 8.46021 6.98107H8.46041ZM16.2464 4.96882C16.1809 4.96886 16.1168 4.94918 16.0623 4.91228C16.0078 4.87537 15.9653 4.8229 15.9402 4.76149C15.915 4.70008 15.9084 4.63249 15.9212 4.56727C15.9339 4.50205 15.9655 4.44213 16.0118 4.39509C16.0581 4.34804 16.1171 4.31599 16.1814 4.30298C16.2456 4.28997 16.3123 4.29658 16.3728 4.32199C16.4334 4.34739 16.4852 4.39045 16.5216 4.44571C16.5581 4.50097 16.5776 4.56595 16.5776 4.63244C16.5774 4.72147 16.5425 4.80681 16.4804 4.86975C16.4183 4.93268 16.3342 4.96809 16.2464 4.9682V4.96882ZM16.2464 4.33832C16.1891 4.33832 16.1331 4.35555 16.0855 4.38784C16.0379 4.42012 16.0007 4.46602 15.9788 4.51971C15.9569 4.5734 15.9511 4.63249 15.9623 4.6895C15.9734 4.74651 16.001 4.79888 16.0415 4.83999C16.082 4.8811 16.1336 4.90911 16.1898 4.92048C16.246 4.93184 16.3042 4.92605 16.3572 4.90384C16.4101 4.88162 16.4554 4.84398 16.4872 4.79568C16.5191 4.74737 16.5361 4.69056 16.5361 4.63244C16.536 4.5545 16.5055 4.47979 16.4512 4.42466C16.3969 4.36953 16.3233 4.33848 16.2464 4.33832Z" fill="#231F20"/>
<path d="M16.1259 4.43261H16.2688C16.3257 4.43261 16.3709 4.4614 16.3709 4.53783C16.3709 4.59106 16.3476 4.63207 16.3035 4.63912C16.3443 4.64326 16.3647 4.66563 16.3666 4.72342C16.3666 4.74931 16.3678 4.78162 16.369 4.80627C16.369 4.81331 16.3708 4.82024 16.3741 4.8264C16.3775 4.83256 16.3823 4.83775 16.3882 4.84148H16.3155C16.3082 4.83086 16.3044 4.81819 16.3045 4.80523C16.3021 4.78059 16.3025 4.75759 16.3016 4.72777C16.3016 4.68303 16.2871 4.66335 16.2426 4.66335H16.1914V4.84148H16.1267L16.1259 4.43261ZM16.242 4.6153C16.2508 4.61612 16.2597 4.61495 16.2679 4.61187C16.2762 4.60879 16.2837 4.60388 16.2899 4.5975C16.2961 4.59111 16.3008 4.58341 16.3037 4.57495C16.3065 4.5665 16.3075 4.55749 16.3065 4.5486C16.3065 4.5049 16.2882 4.48211 16.2453 4.48211H16.1914V4.6153H16.242Z" fill="#231F20"/>
</svg>
