<svg width="23" height="16" viewBox="0 0 23 16" fill="none" xmlns="http://www.w3.org/2000/svg">
<rect x="0.5" y="0.5" width="22" height="15" rx="2" fill="white" stroke="#D9D9D9"/>
<path fill-rule="evenodd" clip-rule="evenodd" d="M11.7143 11.6974C10.8367 12.4337 9.69828 12.8782 8.45433 12.8782C5.67869 12.8782 3.42859 10.6652 3.42859 7.93534C3.42859 5.20547 5.67869 2.99248 8.45433 2.99248C9.69829 2.99248 10.8367 3.43697 11.7143 4.17328C12.5919 3.43698 13.7303 2.99249 14.9742 2.99249C17.7499 2.99249 20 5.20549 20 7.93536C20 10.6652 17.7499 12.8782 14.9742 12.8782C13.7303 12.8782 12.5919 12.4337 11.7143 11.6974Z" fill="#ED0006"/>
<path fill-rule="evenodd" clip-rule="evenodd" d="M11.7142 11.6974C12.7948 10.7908 13.48 9.44178 13.48 7.93534C13.48 6.42891 12.7948 5.07987 11.7142 4.17326C12.5918 3.43696 13.7302 2.99248 14.9742 2.99248C17.7498 2.99248 19.9999 5.20547 19.9999 7.93534C19.9999 10.6652 17.7498 12.8782 14.9742 12.8782C13.7302 12.8782 12.5918 12.4337 11.7142 11.6974Z" fill="#F9A000"/>
<path fill-rule="evenodd" clip-rule="evenodd" d="M11.7143 11.6974C12.7948 10.7908 13.48 9.4418 13.48 7.93538C13.48 6.42896 12.7948 5.07994 11.7143 4.17332C10.6337 5.07994 9.94849 6.42896 9.94849 7.93538C9.94849 9.4418 10.6337 10.7908 11.7143 11.6974Z" fill="#FF5E00"/>
</svg>
