<svg width="32" height="32" viewBox="0 0 32 32" fill="none" xmlns="http://www.w3.org/2000/svg">
<path d="M15.9993 14.6667C17.0542 14.6667 18.0853 14.3539 18.9624 13.7678C19.8395 13.1818 20.523 12.3489 20.9267 11.3743C21.3304 10.3998 21.436 9.32742 21.2302 8.29285C21.0244 7.25829 20.5165 6.30798 19.7706 5.5621C19.0247 4.81622 18.0744 4.30827 17.0398 4.10248C16.0053 3.89669 14.9329 4.00231 13.9584 4.40598C12.9838 4.80965 12.1509 5.49323 11.5648 6.37029C10.9788 7.24736 10.666 8.2785 10.666 9.33334C10.666 10.7478 11.2279 12.1044 12.2281 13.1046C13.2283 14.1048 14.5849 14.6667 15.9993 14.6667Z" fill="black"/>
<path d="M23.9993 28C24.353 28 24.6921 27.8596 24.9422 27.6095C25.1922 27.3595 25.3327 27.0203 25.3327 26.6667C25.3327 24.1914 24.3494 21.8174 22.599 20.067C20.8487 18.3167 18.4747 17.3334 15.9993 17.3334C13.524 17.3334 11.15 18.3167 9.39969 20.067C7.64935 21.8174 6.66602 24.1914 6.66602 26.6667C6.66602 27.0203 6.80649 27.3595 7.05654 27.6095C7.30659 27.8596 7.64573 28 7.99935 28H23.9993Z" fill="black"/>
</svg>
