<svg width="32" height="32" viewBox="0 0 32 32" fill="none" xmlns="http://www.w3.org/2000/svg">
<path d="M23.1993 29.3333C17.7557 29.3263 12.5371 27.1607 8.68788 23.3115C4.83866 19.4622 2.67307 14.2436 2.66602 8.79999C2.66602 7.17333 3.3122 5.61329 4.46243 4.46307C5.61265 3.31285 7.17269 2.66666 8.79935 2.66666C9.1438 2.66403 9.48768 2.69529 9.82602 2.75999C10.1531 2.80839 10.4746 2.88878 10.786 2.99999C11.005 3.07683 11.2002 3.2095 11.3522 3.38489C11.5042 3.56027 11.6077 3.77229 11.6527 3.99999L13.4793 12C13.5286 12.2171 13.5227 12.4432 13.4621 12.6574C13.4015 12.8717 13.2883 13.0674 13.1327 13.2267C12.9593 13.4133 12.946 13.4267 11.306 14.28C12.6193 17.1611 14.9236 19.4749 17.7993 20.8C18.666 19.1467 18.6793 19.1333 18.866 18.96C19.0253 18.8044 19.221 18.6911 19.4352 18.6306C19.6495 18.57 19.8755 18.5641 20.0927 18.6133L28.0927 20.44C28.3131 20.4911 28.5169 20.5975 28.6848 20.7491C28.8527 20.9007 28.9793 21.0926 29.0527 21.3067C29.1652 21.6231 29.25 21.9488 29.306 22.28C29.3597 22.6151 29.3864 22.9539 29.386 23.2933C29.3614 24.913 28.6971 26.4572 27.538 27.5889C26.3789 28.7205 24.8192 29.3476 23.1993 29.3333V29.3333Z" fill="black"/>
</svg>
