<?xml version="1.0" standalone="no"?>
<!DOCTYPE svg PUBLIC "-//W3C//DTD SVG 20010904//EN"
 "http://www.w3.org/TR/2001/REC-SVG-20010904/DTD/svg10.dtd">
<svg version="1.0" xmlns="http://www.w3.org/2000/svg"
 width="2049.000000pt" height="2049.000000pt" viewBox="0 0 2049.000000 2049.000000"
 preserveAspectRatio="xMidYMid meet">
<metadata>
Created by potrace 1.14, written by Peter Selinger 2001-2017
</metadata>
<g transform="translate(0.000000,2049.000000) scale(0.100000,-0.100000)"
fill="#000000" stroke="none">
<path d="M9690 20469 c-2039 -114 -3961 -813 -5578 -2028 -948 -713 -1744
-1555 -2397 -2536 -759 -1142 -1289 -2447 -1534 -3785 -180 -980 -218 -2015
-110 -3000 252 -2303 1275 -4445 2910 -6090 1708 -1718 3924 -2763 6334 -2985
586 -53 1254 -53 1865 0 3386 299 6422 2293 8064 5297 611 1119 1004 2334
1165 3608 57 445 75 760 75 1285 1 467 -7 650 -45 1026 -196 1990 -961 3855
-2221 5416 -299 370 -797 896 -1133 1195 -1064 946 -2270 1646 -3595 2089
-874 291 -1753 456 -2710 509 -213 11 -876 11 -1090 -1z m1167 -3323 c572 -57
1054 -159 1568 -331 1548 -517 2863 -1568 3723 -2976 133 -219 362 -653 362
-688 0 -15 -598 -240 -1079 -407 -321 -111 -688 -228 -999 -319 l-253 -73 -13
21 c-7 12 -41 72 -76 132 -184 322 -472 691 -743 952 -952 916 -2199 1362
-3507 1252 -671 -57 -1336 -273 -1914 -623 -330 -200 -571 -390 -861 -680
l-210 -210 -55 -3 c-625 -37 -870 -56 -1270 -98 -583 -62 -1178 -156 -1627
-259 -57 -13 -103 -19 -103 -15 0 32 213 490 321 691 811 1508 2144 2666 3734
3243 625 227 1262 360 1965 409 141 9 893 -3 1037 -18z m6931 -3903 c6 -11
-18 -428 -64 -1108 -40 -599 -73 -1119 -73 -1154 l-1 -65 452 -760 c255 -428
453 -772 453 -785 0 -19 -7 -26 -30 -33 -175 -49 -897 -239 -1225 -322 -2250
-567 -4117 -917 -5380 -1010 -691 -51 -1061 -55 -1470 -17 -804 77 -1004 114
-1385 262 -248 96 -252 98 -284 135 -67 76 -42 207 52 269 50 32 105 34 436
18 357 -18 418 -14 519 32 103 47 142 93 142 168 0 81 -44 148 -141 212 -75
50 -112 68 -294 135 -431 159 -868 236 -1548 270 -228 12 -607 1 -915 -26
-971 -84 -2263 -365 -3627 -790 -154 -48 -304 -94 -332 -103 l-53 -16 0 -1063
c0 -1163 3 -1107 -59 -1151 -63 -45 -143 -28 -195 43 l-21 27 0 2811 0 2810
80 44 c237 130 669 281 1099 384 797 192 1802 314 3131 382 327 17 1168 17
1355 0 929 -82 1801 -235 2040 -357 92 -47 146 -133 156 -247 15 -168 -282
-2140 -391 -2601 -51 -212 -53 -245 -25 -317 40 -101 123 -171 250 -211 69
-21 187 -25 260 -8 123 28 212 142 245 311 12 64 12 76 -1 96 -8 12 -18 22
-23 22 -5 0 -49 23 -99 50 -135 75 -138 73 -166 -80 -17 -95 -43 -130 -96
-130 -62 0 -95 33 -102 100 -3 29 9 150 22 230 5 30 25 179 45 330 36 288 53
360 88 385 41 29 114 13 136 -29 14 -28 16 -63 7 -163 -8 -77 -7 -82 14 -93
16 -8 34 -9 68 -1 26 5 79 15 117 22 39 7 76 18 83 24 8 7 15 48 19 103 6 96
-12 197 -45 252 -73 119 -233 189 -404 176 -43 -3 -78 -4 -78 -3 0 2 47 201
104 442 l103 440 39 -2 c22 -1 208 -5 414 -9 923 -17 1693 74 2670 316 1071
266 2487 758 3660 1274 118 52 225 94 237 95 12 1 26 -7 31 -16z m-14817 -436
c59 -39 69 -73 69 -237 l-1 -145 -104 -89 c-57 -48 -120 -99 -140 -113 l-36
-25 3 271 c3 254 4 271 24 298 25 35 79 63 120 63 17 0 46 -10 65 -23z m3013
-3974 c76 -242 287 -690 445 -941 338 -538 790 -1007 1304 -1351 658 -442
1391 -694 2182 -752 198 -14 619 -6 805 15 893 105 1681 443 2383 1024 125
103 388 362 504 497 107 124 273 342 348 457 l50 76 145 27 c80 15 348 68 595
117 248 50 462 93 477 95 l28 5 -60 -137 c-667 -1523 -1994 -2677 -3590 -3123
-358 -100 -714 -162 -1099 -192 -173 -13 -605 -13 -786 0 -1060 77 -2072 455
-2920 1090 -390 293 -782 678 -1077 1060 -311 403 -567 852 -759 1329 -69 172
-175 488 -167 496 16 16 1036 247 1169 264 3 1 13 -25 23 -56z m-1435 -470
c459 -1387 1409 -2546 2681 -3271 172 -98 524 -268 709 -342 1381 -554 2952
-554 4334 -1 1330 532 2426 1540 3068 2823 78 155 207 449 245 556 12 36 25
54 39 57 11 3 169 39 350 80 182 41 468 108 638 148 169 41 307 71 307 69 0
-3 -18 -69 -41 -146 -535 -1855 -1826 -3407 -3549 -4269 -135 -68 -312 -151
-394 -186 -2395 -1012 -5142 -608 -7132 1050 -639 532 -1173 1168 -1594 1900
-87 151 -289 560 -359 726 -97 230 -272 727 -260 737 11 8 863 253 890 255 4
1 34 -83 68 -186z"/>
<path d="M9941 16243 l-23 -5 7 -141 c4 -78 8 -144 8 -147 1 -3 -2 -6 -7 -8
-8 -3 -68 127 -111 241 l-18 48 -51 -3 -51 -3 2 -50 c11 -222 37 -582 43 -589
5 -5 29 -5 55 -2 37 6 45 11 41 24 -3 9 -8 81 -12 160 -5 102 -3 142 5 142 6
0 11 -5 11 -11 0 -6 13 -41 28 -77 16 -37 44 -102 62 -144 l33 -78 48 0 c27 0
49 1 49 3 0 1 -9 139 -20 307 -11 168 -20 313 -20 323 0 17 -23 20 -79 10z"/>
<path d="M10590 16233 c-24 -9 -61 -45 -77 -77 -10 -19 -20 -99 -31 -243 -16
-210 -16 -216 3 -251 29 -53 78 -82 137 -82 26 0 57 5 68 12 15 10 22 9 39 -6
40 -36 46 -19 59 165 7 95 9 176 5 180 -12 10 -141 21 -146 12 -2 -5 -7 -25
-11 -45 -6 -33 -4 -38 12 -38 32 0 43 -23 36 -76 -9 -78 -22 -104 -53 -104
-56 0 -60 26 -40 275 12 151 24 185 63 185 34 0 51 -26 49 -76 -2 -49 4 -52
70 -33 36 10 37 11 37 58 0 88 -68 152 -160 150 -25 0 -52 -3 -60 -6z"/>
<path d="M9143 16153 c-41 -5 -41 -5 -3 -203 16 -85 41 -220 56 -299 l27 -143
45 6 c26 3 49 10 53 14 4 4 -6 79 -22 167 -17 88 -43 228 -58 310 -30 164 -25
157 -98 148z"/>
<path d="M8485 15985 c-27 -8 -70 -20 -93 -26 -24 -7 -46 -18 -49 -25 -3 -8
14 -74 37 -146 23 -73 64 -205 92 -293 28 -88 53 -163 57 -167 7 -8 145 33
191 57 47 24 70 62 70 115 0 44 -101 386 -130 440 -15 28 -69 60 -100 59 -14
0 -47 -7 -75 -14z m88 -122 c14 -27 58 -164 97 -300 17 -59 17 -64 2 -83 -9
-11 -30 -22 -46 -23 l-30 -2 -65 208 c-70 227 -70 227 -4 227 25 0 36 -6 46
-27z"/>
<path d="M12430 15751 c-46 -24 -80 -89 -80 -152 0 -29 14 -91 35 -153 39
-116 42 -151 19 -184 -34 -49 -106 -6 -85 51 12 31 7 35 -52 43 -40 6 -45 4
-50 -17 -4 -13 -7 -44 -7 -68 0 -38 5 -49 39 -81 71 -67 169 -71 227 -7 63 68
66 142 13 287 -45 125 -35 200 28 200 32 0 46 -25 39 -69 -5 -34 -3 -39 17
-45 49 -13 77 -7 87 20 48 125 -105 242 -230 175z"/>
<path d="M7790 15713 c-41 -14 -190 -87 -190 -93 0 -4 25 -58 55 -119 30 -61
55 -113 55 -115 0 -7 153 -322 162 -333 8 -10 19 -8 48 7 21 11 41 23 43 27 3
5 -15 50 -39 101 -24 52 -44 98 -44 103 0 25 35 1 103 -71 42 -44 82 -80 91
-80 23 0 86 32 86 44 0 6 -37 47 -82 93 -81 81 -81 82 -68 112 22 53 -7 147
-79 265 -32 51 -92 76 -141 59z m39 -112 c10 -6 32 -42 50 -81 l33 -72 -19
-26 c-35 -46 -63 -36 -97 33 -60 125 -60 122 -29 139 33 18 39 19 62 7z"/>
<path d="M13081 15441 c-28 -38 -26 -55 4 -69 30 -14 41 -37 27 -55 -18 -22
-262 -427 -262 -435 0 -5 19 -19 42 -32 50 -28 28 -52 189 212 67 108 127 202
135 209 11 9 20 8 39 -5 13 -9 31 -16 38 -16 13 0 55 76 46 84 -12 12 -220
136 -228 136 -5 0 -19 -13 -30 -29z"/>
<path d="M7070 15324 c-91 -39 -132 -124 -98 -201 21 -45 214 -336 240 -359
53 -49 104 -56 167 -24 78 39 113 108 91 177 -7 21 -63 115 -126 210 -94 143
-120 176 -153 193 -47 24 -74 25 -121 4z m87 -116 c26 -29 174 -251 197 -297
39 -74 -37 -117 -86 -49 -86 121 -198 304 -198 324 0 44 54 57 87 22z"/>
<path d="M13628 14933 c-57 -71 -129 -160 -161 -200 -62 -77 -87 -126 -87
-170 0 -61 78 -141 148 -150 72 -10 103 17 280 236 89 110 162 204 162 209 0
14 -55 62 -71 62 -7 0 -23 -13 -34 -28 -39 -54 -280 -347 -295 -359 -34 -28
-80 -9 -80 33 0 24 27 61 204 279 l119 146 -24 25 c-51 54 -50 55 -161 -83z"/>
<path d="M6454 14861 c-74 -33 -113 -109 -95 -179 13 -46 259 -337 314 -371
40 -24 96 -27 136 -7 36 19 89 79 97 112 13 53 -30 154 -66 154 -20 0 -90 -28
-90 -36 0 -3 11 -20 25 -38 14 -18 25 -42 25 -54 0 -26 -35 -52 -61 -45 -23 6
-260 273 -274 309 -23 60 45 85 96 35 17 -17 34 -31 38 -31 5 0 19 20 32 44
23 45 23 45 4 66 -26 28 -88 60 -117 60 -13 0 -41 -9 -64 -19z"/>
<path d="M14100 14308 c-124 -117 -226 -217 -228 -223 -1 -6 33 -45 76 -87
132 -129 150 -125 354 63 83 77 160 152 171 165 26 34 33 94 14 130 -20 38
-135 164 -150 164 -7 -1 -113 -96 -237 -212z m269 46 c12 -15 21 -34 21 -43 1
-21 -268 -280 -298 -288 -24 -6 -72 29 -72 52 0 12 309 305 321 305 4 0 17
-12 28 -26z"/>
<path d="M5900 14318 c-36 -40 -71 -80 -78 -90 -11 -14 15 -41 224 -227 130
-116 242 -211 248 -210 13 1 156 163 155 175 0 5 -16 22 -35 38 l-34 28 -41
-46 c-22 -25 -45 -46 -51 -46 -15 0 -118 89 -118 102 0 6 14 26 31 46 l31 35
-37 36 -36 36 -34 -38 c-41 -47 -53 -45 -120 23 l-49 50 30 32 c59 65 59 64
22 97 -18 17 -35 31 -38 31 -3 0 -35 -33 -70 -72z"/>
<path d="M14665 13785 c-99 -74 -213 -158 -252 -187 -40 -29 -73 -57 -73 -61
0 -12 51 -77 61 -77 6 0 314 222 498 359 l25 18 -33 42 c-18 22 -36 41 -39 40
-4 0 -88 -61 -187 -134z"/>
<path d="M5490 13771 c-34 -18 -150 -170 -150 -195 1 -6 22 -24 47 -40 26 -17
139 -93 252 -170 113 -76 213 -141 222 -143 16 -4 59 51 59 75 0 5 -38 36 -85
67 -77 51 -106 85 -72 85 6 0 57 -14 112 -30 55 -16 103 -30 107 -30 12 0 68
84 61 91 -5 4 -51 19 -103 34 -52 14 -103 28 -112 31 -11 3 -18 15 -18 28 0
38 -41 87 -120 143 -66 47 -121 73 -155 73 -6 0 -26 -8 -45 -19z m121 -130
c24 -17 55 -41 69 -56 23 -25 23 -26 7 -60 -9 -19 -21 -35 -27 -35 -15 0 -168
103 -174 117 -8 18 33 63 58 63 12 0 43 -13 67 -29z"/>
<path d="M15040 13357 c-195 -104 -326 -186 -347 -217 -78 -114 46 -281 177
-236 42 14 285 149 357 198 85 57 91 158 14 240 -32 34 -45 41 -87 45 -42 4
-58 0 -114 -30z m144 -110 c8 -22 6 -31 -9 -47 -21 -20 -268 -163 -323 -187
-55 -23 -98 17 -68 63 12 18 171 114 315 191 40 21 74 13 85 -20z"/>
<path d="M7283 12003 c-83 -3 -124 -8 -132 -16 -7 -9 -12 -183 -16 -518 -3
-277 -7 -654 -10 -838 -2 -209 0 -341 6 -353 9 -16 24 -18 153 -18 105 0 146
3 154 13 7 8 12 104 15 262 2 158 7 257 14 270 7 11 18 38 26 60 18 49 14 59
76 -185 91 -358 101 -394 122 -412 16 -14 43 -17 155 -17 75 0 145 4 155 10
27 14 24 37 -26 210 -57 192 -82 280 -140 489 -26 91 -55 194 -65 229 -21 74
-24 59 65 271 32 74 70 167 85 205 15 39 47 117 70 174 41 97 43 105 29 130
l-15 26 -144 0 -144 0 -23 -34 c-13 -19 -28 -52 -34 -75 -6 -22 -19 -58 -30
-81 -15 -33 -144 -363 -162 -415 -3 -8 -2 120 1 286 l5 301 -24 16 c-13 10
-28 16 -34 15 -5 -1 -65 -4 -132 -5z"/>
<path d="M6310 11934 c-25 -2 -108 -11 -185 -19 -77 -9 -163 -18 -192 -21 -28
-3 -57 -12 -63 -19 -8 -10 -10 -43 -6 -107 3 -51 10 -176 16 -278 15 -264 29
-480 40 -616 11 -138 17 -235 25 -389 3 -60 7 -126 10 -145 2 -19 7 -66 10
-105 7 -84 21 -99 80 -91 22 3 85 13 140 21 111 16 130 29 120 80 -3 16 -10
83 -16 150 -5 66 -12 138 -14 160 -2 22 -7 84 -11 138 -7 93 -6 97 13 97 15 0
25 -11 36 -38 61 -152 222 -510 237 -526 16 -17 24 -17 100 -7 46 6 104 11
129 11 58 0 91 22 91 59 0 15 -4 31 -9 36 -5 6 -25 48 -44 95 -44 106 -147
340 -175 399 l-22 44 45 46 c90 91 115 194 96 399 -29 331 -43 396 -102 486
-67 101 -191 151 -349 140z m67 -336 c32 -30 41 -71 55 -251 12 -151 11 -161
-7 -195 -25 -46 -59 -63 -132 -65 l-58 -2 -7 35 c-15 70 -36 475 -26 487 11
13 77 22 123 16 16 -2 39 -13 52 -25z"/>
<path d="M17265 11886 c-434 -153 -446 -159 -464 -211 -18 -54 -20 -580 -3
-760 31 -312 103 -597 205 -800 40 -82 108 -175 132 -181 14 -3 62 7 117 24
51 17 145 44 208 62 144 39 160 46 160 66 0 9 -17 53 -39 98 -21 44 -43 98
-50 118 -23 70 -34 71 -196 15 -92 -32 -101 -33 -116 -18 -36 35 -121 400 -99
426 6 7 42 24 78 36 87 28 138 54 146 74 3 9 1 58 -4 110 -5 52 -7 108 -4 124
8 40 -13 91 -37 91 -10 0 -62 -19 -114 -41 -65 -28 -100 -38 -107 -31 -16 16
-6 415 10 435 8 9 30 21 50 27 79 25 248 93 263 106 9 8 20 49 29 106 7 51 17
103 21 115 24 65 -20 67 -186 9z"/>
<path d="M8659 11908 c-9 -7 -26 -44 -37 -83 -12 -38 -35 -117 -52 -175 -18
-58 -38 -125 -47 -150 -8 -25 -32 -103 -53 -175 -21 -71 -55 -184 -75 -250
-20 -66 -48 -158 -62 -205 -13 -47 -46 -157 -73 -245 -112 -364 -110 -357 -99
-376 11 -22 22 -25 162 -40 84 -8 111 -8 122 1 16 13 37 76 75 222 13 48 28
89 34 91 6 2 62 -2 124 -11 132 -17 118 3 126 -197 4 -95 10 -144 19 -152 8
-8 68 -20 142 -29 175 -20 169 -26 156 162 -12 157 -17 234 -31 484 -5 96 -14
240 -19 320 -6 80 -13 201 -16 270 -3 69 -8 136 -10 150 -3 14 -7 90 -10 170
-3 80 -8 153 -11 163 -8 27 -33 35 -141 46 -55 6 -124 13 -154 17 -38 4 -59 2
-70 -8z m106 -759 c3 -63 6 -166 8 -229 l2 -115 -65 3 c-35 1 -68 6 -73 11 -6
6 -3 27 6 53 16 46 93 324 102 372 10 49 16 22 20 -95z"/>
<path d="M5085 11773 c-49 -8 -99 -16 -110 -18 -49 -10 -54 -22 -86 -225 -17
-107 -34 -220 -39 -250 -5 -30 -22 -152 -39 -270 -17 -118 -35 -242 -41 -275
-14 -83 -75 -559 -95 -733 -17 -150 -14 -172 24 -172 37 0 267 72 284 88 14
14 19 46 27 162 12 176 17 205 33 219 19 15 240 61 251 51 4 -4 25 -76 46
-160 20 -83 44 -158 53 -167 14 -14 28 -12 149 17 73 18 139 34 146 36 33 9
31 50 -9 180 -22 71 -55 188 -74 259 -19 72 -55 207 -79 300 -91 340 -149 561
-161 615 -7 30 -27 118 -45 195 -18 77 -37 146 -42 153 -13 15 -75 14 -193 -5z
m59 -710 c28 -123 67 -305 73 -345 7 -44 -6 -53 -89 -63 -70 -9 -66 -29 -38
215 11 96 20 196 20 222 0 27 4 48 8 48 5 0 16 -35 26 -77z"/>
<path d="M9675 11766 c-11 -8 -23 -48 -36 -116 -10 -58 -23 -127 -29 -155 -5
-27 -21 -111 -34 -185 -14 -74 -32 -175 -42 -225 -9 -49 -22 -126 -30 -170 -8
-44 -25 -138 -39 -210 -13 -71 -38 -209 -55 -305 -17 -96 -37 -201 -45 -233
-17 -65 -9 -93 28 -102 28 -6 135 -27 473 -90 93 -17 112 -14 120 24 3 14 12
51 19 81 23 95 28 165 13 176 -14 11 -73 25 -201 48 -43 8 -80 16 -83 19 -5 4
33 224 55 322 5 22 15 74 21 115 7 41 18 109 27 150 17 86 22 113 63 340 17
91 35 188 41 215 17 80 39 209 39 225 0 28 -18 43 -61 50 -24 5 -69 12 -99 18
-103 19 -128 21 -145 8z"/>
<path d="M16540 11634 c-47 -19 -95 -39 -107 -44 -39 -16 -54 -54 -73 -192
-31 -225 -43 -424 -38 -634 l4 -199 -28 90 c-57 178 -106 395 -160 705 -12 65
-16 75 -36 78 -25 4 -217 -72 -244 -96 -23 -20 -23 -24 7 -151 149 -620 289
-936 571 -1287 102 -127 107 -130 181 -109 32 9 77 20 100 26 71 18 72 25 10
151 -65 135 -89 202 -116 340 -66 330 -54 732 36 1189 15 74 24 143 20 152 -9
24 -31 21 -127 -19z"/>
<path d="M4260 11643 c-34 -5 -190 -33 -217 -38 -12 -3 -26 -18 -33 -37 -40
-110 -180 -532 -185 -562 -8 -38 -25 -40 -25 -2 0 13 -21 83 -46 157 -25 74
-64 186 -85 251 -25 72 -46 119 -57 123 -9 3 -63 -1 -121 -10 -59 -9 -121 -18
-139 -21 -66 -10 -70 -23 -71 -206 -1 -90 -11 -325 -22 -523 -32 -541 -29
-1186 7 -1278 8 -21 37 -27 82 -16 21 4 78 15 127 24 49 8 95 21 102 28 11 11
11 60 2 258 -8 163 -9 351 -4 564 8 295 9 316 22 270 7 -27 44 -142 81 -254
72 -219 85 -241 131 -218 27 14 40 49 120 312 29 94 58 185 66 203 8 18 15 43
15 55 0 12 4 27 8 34 4 6 6 -143 5 -330 -3 -360 12 -733 29 -754 15 -19 56
-16 154 12 49 14 106 30 126 35 54 15 59 32 48 152 -14 163 -20 386 -26 1093
-4 433 -9 664 -16 672 -10 13 -28 14 -78 6z"/>
<path d="M15581 11274 c-47 -19 -90 -34 -96 -34 -7 0 -20 -9 -30 -20 -18 -20
-18 -28 -6 -148 34 -348 93 -618 185 -852 83 -210 241 -533 276 -565 19 -17
23 -17 92 -1 40 9 89 21 109 25 69 15 75 32 31 102 -29 46 -89 152 -142 254
-153 294 -242 666 -266 1120 -4 66 -11 128 -16 138 -12 24 -40 20 -137 -19z"/>
<path d="M15300 11170 c-95 -31 -374 -112 -468 -135 -132 -33 -130 -31 -113
-155 17 -129 22 -133 137 -104 37 10 68 13 73 8 4 -5 13 -38 20 -74 37 -192
136 -540 226 -795 26 -72 57 -159 70 -195 12 -36 27 -76 33 -90 5 -14 17 -46
26 -71 19 -53 46 -70 91 -57 17 4 64 15 105 24 93 20 110 29 110 58 0 13 -19
63 -41 112 -171 370 -341 909 -351 1118 -3 54 -11 48 104 80 39 11 59 22 63
36 8 25 -15 221 -28 238 -11 14 -21 14 -57 2z"/>
<path d="M14335 10954 c-158 -33 -244 -87 -297 -187 -20 -36 -23 -57 -23 -147
0 -61 7 -139 17 -185 31 -144 48 -237 88 -476 21 -129 47 -269 56 -310 58
-255 218 -382 445 -350 201 28 327 136 351 302 12 81 0 202 -29 289 -20 62 -1
53 -183 84 -93 16 -120 10 -120 -27 0 -12 7 -67 17 -122 18 -111 14 -145 -22
-181 -44 -44 -115 -22 -150 46 -16 31 -47 172 -95 430 -17 91 -45 228 -62 305
-48 213 -42 274 31 290 59 13 112 -34 126 -114 17 -96 24 -111 53 -111 16 0
71 22 123 49 l94 49 -1 48 c-2 77 -49 180 -108 240 -43 43 -61 53 -118 67 -62
16 -146 20 -193 11z"/>
<path d="M13705 10845 c-49 -7 -153 -20 -230 -29 -77 -9 -150 -19 -162 -21
-30 -7 -38 -44 -25 -109 15 -70 79 -476 97 -611 8 -60 26 -195 40 -300 48
-362 54 -410 66 -520 12 -122 21 -152 46 -162 16 -6 199 26 388 67 44 10 98
21 120 24 99 17 101 21 75 181 -12 69 -23 132 -26 140 -8 21 -35 26 -74 15
-86 -25 -242 -52 -251 -43 -5 5 -14 45 -19 89 -5 43 -16 132 -24 196 -9 65
-13 124 -10 131 3 9 45 21 106 32 55 10 110 26 121 36 20 16 20 20 9 106 -7
50 -12 104 -12 121 0 16 -8 39 -17 51 l-18 22 -113 -22 c-69 -14 -116 -19
-121 -13 -9 9 -61 293 -61 332 0 16 8 22 33 26 17 3 82 12 142 21 61 9 116 22
123 29 10 10 10 30 0 106 -6 51 -18 99 -26 106 -16 16 -54 16 -177 -1z"/>
<path d="M12765 10734 c-55 -7 -105 -13 -112 -13 -25 -2 -45 -34 -39 -65 10
-52 66 -493 82 -636 8 -74 18 -160 23 -190 5 -30 12 -89 16 -130 9 -111 44
-435 55 -512 6 -37 10 -87 10 -111 0 -31 6 -49 19 -61 21 -19 24 -19 483 33
32 4 63 12 69 18 14 14 -3 260 -21 292 -8 17 -20 21 -59 21 -26 0 -61 -4 -77
-9 -16 -5 -54 -12 -86 -15 l-56 -6 -6 63 c-4 34 -11 100 -17 147 -5 47 -11
103 -14 125 -19 201 -36 355 -55 495 -5 41 -14 116 -20 165 -10 81 -33 255
-46 344 -8 60 -14 61 -149 45z"/>
<path d="M12091 10669 c-70 -5 -109 -13 -119 -23 -13 -13 -13 -35 2 -193 9
-98 18 -203 21 -233 15 -180 46 -566 55 -690 33 -426 46 -541 60 -551 19 -12
517 -1 542 12 16 8 17 21 12 122 -8 174 -15 188 -86 182 -24 -2 -79 -5 -123
-6 -96 -4 -89 -18 -104 196 -33 448 -72 964 -82 1060 -11 112 -22 137 -58 134
-9 -1 -63 -5 -120 -10z"/>
<path d="M11370 10646 c-71 -20 -122 -51 -167 -99 -100 -108 -103 -129 -103
-714 0 -320 4 -500 11 -535 28 -128 123 -245 234 -287 111 -42 274 -43 360 -1
86 42 153 142 175 260 5 30 11 278 12 550 2 396 0 506 -11 550 -38 150 -121
240 -256 275 -70 18 -192 18 -255 1z m187 -288 c35 -29 38 -74 35 -548 -3
-543 -1 -533 -86 -538 -53 -3 -80 12 -99 58 -6 16 -9 191 -8 487 1 403 3 468
17 504 9 22 26 45 38 50 24 10 85 2 103 -13z"/>
</g>
</svg>
