<svg width="40" height="40" viewBox="0 0 40 40" fill="none" xmlns="http://www.w3.org/2000/svg">
<path d="M17.75 9C16.3447 9 15.246 10.0367 14.5149 11.2866C13.9575 12.2395 13.5912 13.3396 13.4468 14.3542L11.3345 14.8345L9 29.125L22.4155 31.75L30 30.0684L27.6655 14.25L25.9155 13.8125L24.1655 11.9155L22.3352 12.3325C22.2377 11.9944 22.1162 11.6589 21.9524 11.3464C21.5428 10.5653 20.867 9.875 19.9375 9.875C19.7978 9.875 19.6674 9.90087 19.5359 9.92285C19.432 9.77884 19.3182 9.64162 19.1838 9.52295C18.8156 9.19777 18.3191 9 17.75 9ZM17.75 9.875C18.1311 9.875 18.3844 9.98314 18.6045 10.1775C18.6239 10.1946 18.6386 10.2236 18.6575 10.2424C18.3808 10.4044 18.1258 10.602 17.9089 10.8354C17.3958 11.3878 17.0263 12.0867 16.7485 12.7734C16.6241 13.0812 16.5237 13.3832 16.4341 13.6741L14.3833 14.1406C14.542 13.3347 14.8394 12.4659 15.2703 11.7292C15.9153 10.6265 16.7849 9.875 17.75 9.875ZM19.9683 10.7568C20.4459 10.7728 20.8547 11.1394 21.1765 11.7532C21.3004 11.9895 21.397 12.2564 21.4773 12.5273L20.3391 12.7854C20.2947 12.0918 20.1954 11.3848 19.9683 10.7568ZM19.1104 10.979C19.1208 11.0056 19.1346 11.025 19.1445 11.0525C19.341 11.5945 19.4349 12.288 19.4744 12.9819L17.4407 13.4451C17.4823 13.3293 17.5132 13.218 17.5603 13.1016C17.8134 12.4758 18.1485 11.8622 18.5498 11.4302C18.7265 11.24 18.9133 11.0924 19.1104 10.979Z" fill="white"/>
</svg>
