<svg width="40" height="40" viewBox="0 0 40 40" fill="none" xmlns="http://www.w3.org/2000/svg">
<path fill-rule="evenodd" clip-rule="evenodd" d="M29.5194 18.278C23.8591 14.9165 14.5227 14.6074 9.11928 16.2474C8.2514 16.5108 7.33381 16.0209 7.07108 15.1532C6.80813 14.2849 7.29733 13.368 8.16563 13.1042C14.3685 11.2214 24.6796 11.585 31.1958 15.4531C31.9764 15.9165 32.2323 16.9245 31.7697 17.7037C31.3067 18.4841 30.2979 18.7414 29.5194 18.278ZM29.334 23.2567C28.9369 23.9011 28.0944 24.1032 27.4508 23.7075C22.7321 20.807 15.5361 19.9665 9.95322 21.6612C9.22939 21.8799 8.46466 21.4719 8.2447 20.7491C8.02663 20.0252 8.43489 19.262 9.15767 19.0418C15.5353 17.1064 23.4637 18.0437 28.8836 21.3746C29.5271 21.7709 29.7297 22.6138 29.334 23.2567ZM25.6805 28.4024C26.1961 28.7178 26.8698 28.5557 27.1854 28.0382C27.5007 27.5224 27.3382 26.8482 26.8222 26.5331C22.1938 23.7048 16.4562 23.0469 9.76725 24.5759C9.17698 24.7103 8.8092 25.2974 8.94423 25.8864C9.07843 26.4752 9.66555 26.8443 10.2546 26.7092C16.3669 25.3131 21.557 25.8822 25.6805 28.4024Z" fill="white"/>
</svg>
