<svg width="40" height="40" viewBox="0 0 40 40" fill="none" xmlns="http://www.w3.org/2000/svg">
<path fill-rule="evenodd" clip-rule="evenodd" d="M29.8016 11.5493C30.9031 11.8516 31.7706 12.7422 32.065 13.8732C32.6 15.923 32.6 20.2 32.6 20.2C32.6 20.2 32.6 24.4768 32.065 26.5268C31.7706 27.6578 30.9031 28.5484 29.8016 28.8508C27.8054 29.4 19.8 29.4 19.8 29.4C19.8 29.4 11.7946 29.4 9.79825 28.8508C8.69673 28.5484 7.82924 27.6578 7.53484 26.5268C7 24.4768 7 20.2 7 20.2C7 20.2 7 15.923 7.53484 13.8732C7.82924 12.7422 8.69673 11.8516 9.79825 11.5493C11.7946 11 19.8 11 19.8 11C19.8 11 27.8054 11 29.8016 11.5493ZM17.4 16.6001V24.6001L23.8 20.6003L17.4 16.6001Z" fill="white"/>
</svg>
